<?xml version="1.0" encoding="utf-8"?>
<!-- Generator: Adobe Illustrator 19.0.0, SVG Export Plug-In . SVG Version: 6.00 Build 0)  -->
<svg version="1.1" id="Capa_1" xmlns="http://www.w3.org/2000/svg" xmlns:xlink="http://www.w3.org/1999/xlink" x="0px" y="0px"
	 width="9.165px" height="9.167px" viewBox="-82 120.283 9.165 9.167" enable-background="new -82 120.283 9.165 9.167"
	 xml:space="preserve">
<path fill="#444242" d="M-77.418,120.283c-2.531,0-4.582,2.052-4.582,4.583c0,2.532,2.051,4.584,4.582,4.584
	c2.531,0,4.583-2.052,4.583-4.584C-72.835,122.335-74.887,120.283-77.418,120.283z M-76.696,121.934l0.739-0.195
	c0.015-0.004,0.031-0.006,0.046-0.006c0.119,0,0.239,0.114,0.282,0.278l1.066,4.029l-1.216,0.331l-1.068-4.037
	C-76.896,122.148-76.828,121.969-76.696,121.934z M-79.085,127.111l-0.738,0.195c-0.133,0.035-0.274-0.063-0.315-0.22l-0.959-3.622
	c-0.04-0.156,0.033-0.311,0.165-0.345l0.738-0.196c0.018-0.005,0.037-0.007,0.055-0.007c0.115,0,0.224,0.091,0.26,0.226l0.958,3.623
	C-78.88,126.921-78.954,127.076-79.085,127.111z M-77.63,126.949l-0.738,0.195c-0.132,0.035-0.276-0.073-0.321-0.242l-1.035-3.919
	c-0.045-0.168,0.026-0.334,0.157-0.369l0.739-0.195c0.017-0.004,0.034-0.007,0.051-0.007c0.116,0,0.231,0.101,0.269,0.249
	l1.037,3.919C-77.426,126.749-77.497,126.914-77.63,126.949z M-77.233,126.643l-1.139-4.309c-0.05-0.186,0.019-0.365,0.15-0.4
	l0.739-0.195c0.015-0.004,0.031-0.006,0.046-0.006c0.119,0,0.239,0.114,0.282,0.278l1.141,4.31c0.011,0.042-0.003,0.075-0.003,0.115
	l-0.956,0.26c-0.067,0.018-0.117,0.07-0.16,0.126C-77.176,126.774-77.213,126.716-77.233,126.643z M-73.947,127.306l-2.662,0.726
	c-0.115,0.031-0.237-0.051-0.273-0.183l-0.201-0.737c-0.036-0.132,0.028-0.264,0.143-0.295l2.662-0.726
	c0.017-0.005,0.033-0.007,0.05-0.007c0.098,0,0.192,0.077,0.223,0.19l0.201,0.737C-73.769,127.143-73.833,127.275-73.947,127.306z"
	/>
</svg>
