<?xml version="1.0" encoding="utf-8"?>
<!-- Generator: Adobe Illustrator 25.0.0, SVG Export Plug-In . SVG Version: 6.00 Build 0)  -->
<svg version="1.1" id="Capa_1" xmlns="http://www.w3.org/2000/svg" xmlns:xlink="http://www.w3.org/1999/xlink" x="0px" y="0px"
	 viewBox="0 0 595.276 841.89" enable-background="new 0 0 595.276 841.89" xml:space="preserve">
<path d="M446.816,1915.084c-1.819-1.117-4.105-2.44-6.31-3.885c-29.822-19.547-59.633-39.11-89.446-58.67
	c-92.225-60.508-184.454-121.01-276.663-181.542c-4.766-3.129-9.606-5.395-15.42-6.51
	c-112.925-21.665-220.521-58.868-322.65-111.708c-88.919-46.006-170.934-102.162-246.228-168.175
	c-77.318-67.788-145.386-143.838-204.344-228.052c-3.366-4.808-7.684-8.168-12.454-11.296
	c-102.278-67.054-204.559-134.104-306.753-201.286c-13.418-8.82-13.372-5.501-4.656-20.028
	c39.778-66.289,79.613-132.545,119.55-198.738c3.284-5.443,4.194-10.378,2.585-16.827c-12.579-50.444-21.437-101.611-27.604-153.202
	c-3.279-27.429-5.483-54.984-7.105-82.601c-2.465-41.982-2.394-83.96-1.343-125.937c1.001-39.965,4.623-79.757,9.479-119.459
	c11.482-93.878,32.785-185.452,63.753-274.771c50.272-144.996,123.478-277.337,220.685-396.112
	c120.996-147.843,267.78-262.835,441.349-343.097c79.775-36.89,162.703-64.601,248.774-82.644c6.158-1.291,9.726-4.423,12.857-9.67
	c36.545-61.231,73.296-122.339,109.998-183.476c6.931-11.545,6.941-11.534,17.789-4.341
	c88.047,58.371,176.144,116.668,264.059,175.237c7.985,5.32,16.207,8.536,25.588,9.958c127.566,19.334,248.437,59.338,363.033,118.4
	c88.096,45.404,169.339,100.953,244.021,166.111c93.571,81.64,173.548,174.941,239.939,279.869
	c3.341,5.279,7.646,8.98,12.709,12.333c103.631,68.639,207.232,137.324,310.789,206.075c12.688,8.423,12.296,6.029,4.211,19.623
	c-45.311,76.179-90.591,152.377-136.153,228.406c-4.493,7.497-6.518,14.376-4.852,23.251c7.621,40.609,11.823,81.688,15.41,122.818
	c1.157,13.27,1.908,26.593,2.315,39.908c1.191,38.975,1.776,77.967,0.097,116.937c-1.821,42.266-5.639,84.353-11.353,126.302
	c-10.814,79.393-28.655,157.118-53.513,233.268c-33.038,101.204-77.801,196.924-134.134,287.24
	c-59.605,95.56-130.544,181.836-212.799,258.734c-77.568,72.517-163.006,134.193-256.454,184.71
	c-70.849,38.301-144.774,69.228-221.889,92.46c-6.102,1.838-10.194,4.869-13.511,10.464
	c-51.144,86.279-102.508,172.427-153.822,258.604c-1.705,2.863-3.384,5.741-5.157,8.561
	C450.326,1913.712,449.417,1915.184,446.816,1915.084z M439.99-545.271l-0.451-0.495c-0.726-3.402,0.445-6.569,1.264-9.764
	c7.28-28.372,14.578-56.74,21.883-85.105c3.985-15.473,8.017-30.933,11.983-46.411c2.183-8.517,2.142-8.529-5.38-13.591
	c-0.553-0.372-1.135-0.699-1.69-1.067c-84.701-56.178-169.396-112.366-254.125-168.503c-2.703-1.791-5.077-4.33-8.575-4.698
	c-2.694,1.811-3.678,4.765-5.202,7.299c-49.964,83.1-99.912,166.21-149.844,249.33C-53.785-445.752-157.414-273.223-261.039-100.691
	c-5.187,8.636-5.187,8.687,0.821,16.477c24.627,31.929,49.294,63.827,73.886,95.783c1.486,1.932,4.326,3.484,2.72,7.189
	c-3.509,0-7.163,0-10.817,0c-41,0-82-0.138-122.999,0.061c-19.039,0.092-13.334-3.177-23.088,13.032
	c-67.351,111.914-134.53,223.932-201.774,335.91c-102.754,171.11-205.516,342.215-308.274,513.323
	c-1.2,1.998-2.401,3.996-3.574,6.01c-1.378,2.365-1.122,4.423,1.231,6.036c1.648,1.13,3.287,2.272,4.957,3.369
	c59.32,38.976,118.638,77.955,177.973,116.909c8.114,5.327,8.138,5.247,15.274-0.848c22.554-19.264,45.104-38.531,67.71-57.734
	c1.869-1.587,3.333-4.44,6.958-3.056c0.131,2.202,0.386,4.496,0.387,6.79c0.026,34.669,0.298,69.341-0.195,104.003
	c-0.11,7.775,2.45,12.121,8.872,15.987c12.554,7.556,24.647,15.878,36.905,23.922c147.935,97.082,295.868,194.166,443.794,291.26
	c145.698,95.632,291.387,191.28,437.082,286.917c17.272,11.338,34.528,22.698,51.854,33.952c6.112,3.97,6.307,3.821,10.109-1.922
	c0.551-0.832,1.016-1.721,1.527-2.579c49.945-83.887,99.823-167.814,149.974-251.579c3.737-6.241,3.641-11.164,0.551-17.442
	c-12.063-24.509-23.709-49.223-35.422-73.902c-1.375-2.898-3.812-5.555-2.986-9.283c3.097-1.885,6.482-0.995,9.687-1.005
	c25.666-0.084,51.341-0.404,76.995,0.158c8.309,0.182,13.004-2.174,17.357-9.552c47.233-80.071,94.816-159.936,142.553-239.708
	c3.596-6.009,3.71-10.171-0.376-16.032c-18.675-26.787-36.85-53.923-55.136-80.981c-1.886-2.79-4.451-5.363-5.127-9.208
	c3.651-0.104,5.828,1.565,8.195,2.612c27.415,12.123,54.803,24.307,82.221,36.424c7.927,3.503,8.016,3.46,12.359-3.831
	c47.062-79.01,94.043-158.069,141.287-236.971c3.347-5.59,3.393-9.783,0.585-15.562c-16.741-34.458-33.057-69.122-49.478-103.735
	c-1.099-2.318-3.041-4.454-1.965-8.038c3.471,0,7.109,0,10.748,0c35,0,70.004-0.287,104.996,0.214
	c8.133,0.116,12.491-2.656,16.482-9.457c24.28-41.384,48.978-82.523,73.527-123.749c18.582-31.206,37.044-62.485,55.818-93.575
	c3.483-5.768,4.915-10.706-0.284-16.014c-1.146-1.17-1.884-2.739-2.819-4.118c-22.448-33.095-44.916-66.175-67.31-99.306
	c-1.85-2.736-4.718-5.211-4.396-10.05c7.888,3.465,14.866,6.501,21.822,9.59c30.441,13.52,60.868,27.073,91.318,40.573
	c6.738,2.987,6.773,2.913,10.821-3.512c0.533-0.845,1.041-1.707,1.552-2.566c78.909-132.568,157.81-265.141,236.741-397.695
	c6.734-11.309,4.622-9.524-3.479-15.303c-1.898-1.354-3.88-2.59-5.825-3.879c-137.775-91.305-275.56-182.596-413.324-273.919
	C876.862-430.461,725.796-530.667,574.671-630.785c-9.451-6.261-7.422-8.05-18.815,0.445
	c-34.997,26.095-69.986,52.202-105.079,78.167C447.372-549.654,444.547-546.051,439.99-545.271z M843.494,140.44
	c-29.922-65.074-59.856-130.143-89.806-195.204c-2.889-6.275-2.956-6.285-10.258-2.61C646.409-8.545,549.393,40.295,452.374,89.129
	c-4.166,2.097-8.396,4.074-12.501,6.283c-2.674,1.439-4.389,0.821-5.547-1.865c-0.66-1.53-1.356-3.044-1.988-4.585
	C395.341-1.343,358.354-91.651,321.355-181.955c-8.966-21.883-17.945-43.76-26.967-65.619c-3.892-9.429-3.948-9.406-12.682-5.562
	c-0.305,0.134-0.606,0.277-0.91,0.413c-54.385,24.447-108.785,48.861-163.142,73.37c-10.76,4.852-11.284,2.269-6.165,14.742
	c40.466,98.607,80.934,197.212,121.397,295.82c6.954,16.947,13.767,33.954,20.911,50.821c1.763,4.161,1.769,6.879-2.934,8.495
	c-1.562,0.537-2.993,1.454-4.481,2.203c-51.773,26.079-103.54,52.17-155.32,78.235c-55.355,27.865-110.727,55.697-166.08,83.566
	c-8.656,4.358-8.644,4.419-4.54,13.363c9.17,19.983,18.354,39.959,27.536,59.937c20.034,43.588,40.05,87.183,60.123,130.753
	c3.278,7.115,3.399,7.073,10.13,3.873c1.805-0.858,3.56-1.819,5.346-2.718c101.783-51.226,203.567-102.45,305.35-153.675
	c2.976-1.498,5.991-2.924,8.91-4.527c3.402-1.868,5.631-1.08,6.923,2.594c0.551,1.568,1.311,3.062,1.943,4.604
	c44.371,108.16,88.738,216.322,133.108,324.482c3.919,9.552,8.044,19.025,11.713,28.672c1.747,4.593,4.095,5.62,8.211,3.081
	c1.127-0.695,2.397-1.161,3.613-1.705c54.106-24.252,108.229-48.466,162.308-72.777c13.64-6.132,11.841-3.947,6.455-17.104
	c-48.329-118.058-96.746-236.079-145.196-354.087c-5.214-12.699-4.554-10.666,6.185-16.08
	c100.56-50.692,201.167-101.289,301.738-151.958c3.504-1.765,7.459-2.868,10.385-6.252
	C844.662,143.512,844.179,141.93,843.494,140.44z M439.548-545.756c-0.335,0.338-0.706,0.645-0.992,1.017
	c-0.046,0.059,0.292,0.413,0.452,0.631c0.328-0.387,0.655-0.775,0.982-1.162C439.99-545.271,439.539-545.766,439.548-545.756z"/>
</svg>
