<?xml version="1.0" encoding="utf-8"?>
<!-- Generator: Adobe Illustrator 25.0.0, SVG Export Plug-In . SVG Version: 6.00 Build 0)  -->
<svg version="1.1" id="Capa_1" xmlns="http://www.w3.org/2000/svg" xmlns:xlink="http://www.w3.org/1999/xlink" x="0px" y="0px"
	 viewBox="0 0 595.276 841.89" enable-background="new 0 0 595.276 841.89" xml:space="preserve">
<path d="M335.768-182.532c-299.329,0-598.658,0-897.988-0.001c-3.333,0-6.667-0.002-10-0.019c-3.104-0.016-6.223-0.321-7.407-3.775
	c-1.196-3.49,1.323-5.575,3.574-7.585c5.965-5.329,11.967-10.615,17.954-15.92c50.388-44.643,100.782-89.28,151.164-133.931
	c69.088-61.23,138.172-122.462,207.246-183.707c48.377-42.893,96.727-85.817,145.101-128.714
	C14.979-717.875,84.57-779.542,154.13-841.242c55.848-49.537,111.665-99.111,167.5-148.662c2.742-2.433,5.486-4.867,8.309-7.204
	c6.602-5.466,7.126-5.555,13.413-0.057c14.801,12.944,29.522,25.978,44.236,39.021c81.552,72.289,163.101,144.582,244.633,216.894
	c55.351,49.093,110.653,98.241,166.011,147.327c73.81,65.447,147.662,130.845,221.476,196.287
	c49.376,43.776,98.721,87.588,148.073,131.391c26.172,23.229,52.33,46.473,78.5,69.704c1.246,1.106,2.586,2.107,3.813,3.232
	c2.003,1.837,4.003,3.828,2.989,6.862c-1.164,3.482-4.224,3.858-7.332,3.891c-3,0.032-6,0.023-9,0.023
	C936.424-182.532,636.096-182.532,335.768-182.532z M-731.076,1315.193c-15.42,0.001-13.645-1.663-13.654,14.07
	c-0.045,80.655-0.058,161.31,0.009,241.966c0.014,17.057-2.18,15.038,14.676,15.039c710.566,0.029,1421.132,0.025,2131.699,0.025
	c1.667,0,3.333,0.018,4.999-0.003c9.006-0.114,9.008-0.117,9.088-9.59c0.014-1.667,0.002-3.333,0.002-4.999
	c0-80.655,0.041-161.31-0.034-241.966c-0.015-16.524,2.238-14.531-14.087-14.532c-355.283-0.036-710.566-0.028-1065.849-0.028
	C-19.843,1315.175-375.46,1315.169-731.076,1315.193z M273.082-1113.532c-40.651,0.99-81.047,4.979-121.393,9.886
	c-51.266,6.235-102.02,15.319-152.245,27.167c-142.987,33.731-277.984,87.649-404.634,162.116
	c-163.644,96.219-303.701,219.426-420.094,369.399c-95.961,123.648-170.217,259.28-222.751,406.711
	c-32.043,89.926-54.9,182.161-68.751,276.67c-7.977,54.43-13.216,109.103-14.81,164.026c-1.488,51.276-1.083,102.582,2.881,153.831
	c3.211,41.514,7.753,82.818,14.062,123.972c11.322,73.858,28.604,146.298,51.303,217.436
	c33.445,104.812,78.297,204.548,134.275,299.273c19.334,32.717,39.975,64.588,61.715,95.752c2.414,3.461,4.206,6.819,9.886,6.792
	c60.657-0.296,121.315-0.193,181.973-0.25c1.816-0.002,4.125,0.697,5.031-1.89c-0.057-0.358,0-0.755-0.172-0.971
	c-8.891-11.214-17.864-22.365-26.7-33.622c-87.32-111.242-155.241-233.261-203.192-366.33
	c-33.877-94.013-56.712-190.613-68.234-289.932c-5.457-47.036-8.573-94.186-9.116-141.492
	c-0.644-56.013,2.713-111.824,9.258-167.478c5.448-46.328,13.344-92.193,23.722-137.652
	c25.112-109.999,63.933-214.922,116.297-314.867c57.596-109.931,129.398-209.66,215.052-299.394
	c55.129-57.755,115.096-110.023,179.811-156.836c148.035-107.086,311.28-180.213,489.656-219.644
	c11.024-2.437,23.172-2.261,32.796-7.883c9.595-5.605,17.208-14.603,25.687-22.117c50.629-44.86,101.262-89.716,151.88-134.59
	c5.907-5.236,11.725-10.572,18.542-16.728C279.672-1114.268,276.332-1113.611,273.082-1113.532z M388.556-1111.157
	c1.348,0.952,2.8,1.785,4.027,2.872c27.949,24.74,55.873,49.508,83.803,74.269c34.913,30.952,69.845,61.881,104.71,92.886
	c3.329,2.961,6.821,4.985,11.302,5.853c12.739,2.468,25.443,5.155,38.087,8.073c130.486,30.103,253.452,79.164,368.794,147.144
	c137.822,81.228,256.959,184.217,357.611,308.571c83.424,103.069,149.652,216.24,198.811,339.364
	c54.577,136.693,84.789,278.739,91.436,425.666c2.439,53.923,1.594,107.907-2.813,161.822
	c-4.101,50.168-10.745,99.922-20.319,149.317c-20.251,104.471-53.069,204.856-98.066,301.253
	c-47.894,102.601-108.087,197.433-180.384,284.587c-1.959,2.362-5.193,4.295-4.567,8.78c3.78,0,7.424,0,11.069,0
	c56.999,0,114-0.242,170.993,0.287c7.73,0.072,11.747-2.151,15.956-8.199c57.675-82.877,106.557-170.612,146.295-263.431
	c68.723-160.519,107.274-328.106,115.846-502.398c2.601-52.89,2.134-105.925-0.807-158.904
	c-2.643-47.598-7.674-94.912-14.988-141.966c-11.985-77.108-30.147-152.795-54.456-226.958
	c-44.612-136.105-107.768-263.007-189.494-380.649c-75.553-108.756-164.101-205.675-265.671-290.607
	c-98.166-82.085-205.199-150.334-321.173-204.536c-69.844-32.642-141.804-59.634-215.902-80.805
	c-72.119-20.606-145.385-35.75-219.894-44.835c-37.701-4.597-75.461-8.212-113.413-9.714c-5.247-0.208-10.509-0.029-15.764-0.029
	C389.242-1112.681,388.899-1111.919,388.556-1111.157z M1152.754,1199.293c14.417,0,12.736,1.072,12.744-12.962
	c0.042-70.331,0.031-140.662,0.008-210.992c-0.004-13.471,1.27-12.152-12.489-12.152c-541.647-0.013-1083.294-0.011-1624.941-0.01
	c-2.333,0-4.67,0.101-6.999,0.004c-3.837-0.159-5.461,1.644-5.273,5.414c0.116,2.327,0.007,4.665,0.007,6.999
	c-0.001,69.998-0.035,139.995,0.026,209.992c0.013,15.347-1.925,13.695,13.977,13.696c270.324,0.028,540.647,0.02,810.971,0.02
	C611.441,1199.301,882.098,1199.304,1152.754,1199.293z M745.792,834.685c0.002,13.909-1.496,12.642,13.046,12.646
	c94.649,0.025,189.298,0.019,283.947,0.006c13.29-0.002,12.347,1.175,12.347-12.447c0.004-296.278,0.003-592.556,0.005-888.834
	c0-13.172,1.031-12.729-12.235-12.726c-94.982,0.017-189.965,0.003-284.947,0.016c-13.801,0.002-12.159-0.941-12.162,12.504
	c-0.028,148.306-0.017,296.611-0.017,444.917C745.775,538.74,745.766,686.713,745.792,834.685z M497.513-55.21
	c0-11.299-0.026-11.427-9.444-11.43c-96.982-0.032-193.963-0.033-290.945,0.004c-8.865,0.003-8.868,0.155-9.026,8.851
	c-0.024,1.333-0.004,2.666-0.004,3.999c0,296.277-0.004,592.554,0.012,888.831c0.001,13.241-1.387,12.292,12.447,12.294
	c94.649,0.011,189.297,0.015,283.946-0.005c14.486-0.003,13,1.201,13.002-12.714c0.024-147.972,0.015-295.944,0.015-443.915
	C497.517,242.067,497.519,93.429,497.513-55.21z M-60.154-51.423c0-2.333,0.046-4.666-0.01-6.997
	c-0.19-7.859-0.239-7.909-7.67-8.219c-1.663-0.069-3.332-0.015-4.998-0.015c-94.635,0-189.269,0.002-283.904-0.003
	c-13.454-0.001-12.123-0.621-12.123,12.689c-0.01,296.232-0.011,592.465,0.003,888.697c0.001,13.664-1.12,12.601,12.162,12.604
	c94.635,0.018,189.269,0.025,283.904-0.006c14.367-0.005,12.611,1.231,12.615-13.05c0.037-147.95,0.023-295.899,0.023-443.849
	C-60.154,243.143-60.154,95.86-60.154-51.423z M422.08,1818.392c168.189-9.648,329.865-47.731,484.812-113.66
	c-0.107-0.662-0.214-1.325-0.321-1.987c-381.051,0-762.103,0-1143.154,0C-26.13,1793.834,193.67,1831.495,422.08,1818.392z"/>
</svg>
