<?xml version="1.0" encoding="utf-8"?>
<!-- Generator: Adobe Illustrator 25.0.0, SVG Export Plug-In . SVG Version: 6.00 Build 0)  -->
<svg version="1.1" id="Capa_1" xmlns="http://www.w3.org/2000/svg" xmlns:xlink="http://www.w3.org/1999/xlink" x="0px" y="0px"
	 viewBox="0 0 595.276 841.89" enable-background="new 0 0 595.276 841.89" xml:space="preserve">
<path d="M-1196.463,420.346c-2.848-818.223,667.439-1495.934,1496.099-1495.547c828.45,0.386,1496.879,678.735,1495.336,1498.993
	c-1.537,817.425-669.96,1496.306-1502.286,1493.02C-533.264,1913.55-1199.748,1236.741-1196.463,420.346z M1637.651,421.128
	C1636.43-323.269,1031.31-916.977,300.228-917.67c-731.573-0.693-1336.912,591.99-1339.738,1333.166
	c-2.842,745.524,603.264,1343.13,1337.119,1343.812C1030.577,1759.988,1636.059,1165.457,1637.651,421.128z"/>
<path d="M-655.296,255.17c1.634-21.642,1.334-41.639,2.78-61.603c4.584-63.314,15.302-125.502,32.346-186.606
	c35.398-126.901,94.723-241.541,177.656-343.819c80.116-98.804,176.205-178.57,288.076-239.253
	c90.96-49.34,187.526-82.616,289.374-100.43c41.347-7.232,83.073-11.209,125.065-13.212c33.713-1.608,67.335-0.952,100.89,1.153
	c72.017,4.517,142.722,17.097,211.86,37.928c128.774,38.8,244.333,101.883,346.467,189.403
	c93.99,80.54,169.62,175.708,226.784,285.534c43.835,84.218,74.163,173.086,91.373,266.396c6.402,34.71,10.658,69.72,13.121,104.982
	c1.838,26.307,2.228,52.6,1.969,78.92c-0.468,47.619-9.385,93.951-21.98,139.686c-22.156,80.447-56.473,155.821-96.181,228.855
	c-62.746,115.408-138.105,222.391-218.996,325.615c-67.671,86.354-139.335,169.3-213.59,250.042
	c-59.804,65.028-121.111,128.601-184.03,190.604c-68.14,67.148-137.553,132.957-209.316,196.251
	c-0.75,0.661-1.468,1.359-2.233,2.002c-6.34,5.326-8.222,5.438-14.5-0.137c-17.691-15.713-35.438-31.368-52.879-47.356
	c-71.265-65.324-141.051-132.196-208.921-201.044c-82.149-83.332-161.977-168.823-238.189-257.647
	c-92.318-107.596-179.635-219-256.583-338.247c-48.667-75.42-92.78-153.337-127.912-236.103
	c-22.564-53.158-40.827-107.677-52.119-164.416C-652.138,326.608-655.167,290.175-655.296,255.17z M418.766,725.221
	c0.438,10.647,0.913,24.956,1.657,39.251c0.447,8.593,1.157,9.227,9.576,8.037c18.776-2.654,37.515-5.542,56.059-9.601
	c123.154-26.957,230.078-84.296,320.592-171.953c61.014-59.088,108.659-127.671,143.04-205.374
	c23.7-53.563,39.858-109.316,48.621-167.265c3.69-24.401,5.666-48.934,7.06-73.516c1.208-21.301,0.309-42.61-1.315-63.897
	c-0.417-5.456-2.454-7.054-7.473-6.179c-2.288,0.399-4.667,0.254-6.966,0.608c-22.037,3.385-44.064,6.914-65.718,12.263
	c-131.739,32.546-243.686,98.523-335.043,199.029c-60.176,66.202-104.692,141.759-133.983,226.259
	c-17.631,50.862-28.602,103.132-33.336,156.799C420.01,686.975,420.224,704.287,418.766,725.221z M177.533,722.892
	c1.472-46.495-3.653-92.475-14.123-137.672C124.602,417.699,34.652,284.289-106.221,185.734
	c-78.373-54.83-165.347-89.566-259.494-106.248c-11.447-2.028-22.922-4.16-34.585-4.867c-3.755-0.228-5.488,1.021-5.678,4.922
	c-0.451,9.308-1.484,18.596-1.713,27.906c-0.916,37.369,1.911,74.488,7.401,111.46c7.615,51.286,21.219,100.924,40.891,148.835
	c43.547,106.058,110.103,195.059,199.775,266.496c96.058,76.524,205.372,122.086,327.022,138.262
	c8.69,1.156,9.75,0.558,10.028-8.647C177.839,750.209,177.533,736.546,177.533,722.892z"/>
</svg>
