<?xml version="1.0" encoding="utf-8"?>
<!-- Generator: Adobe Illustrator 25.0.0, SVG Export Plug-In . SVG Version: 6.00 Build 0)  -->
<svg version="1.1" id="Capa_1" xmlns="http://www.w3.org/2000/svg" xmlns:xlink="http://www.w3.org/1999/xlink" x="0px" y="0px"
	 viewBox="0 0 595.276 841.89" enable-background="new 0 0 595.276 841.89" xml:space="preserve">
<path d="M392.759,1501.298c4.039-0.009,6.565-2.989,9.499-5.018c47.213-32.66,91.914-68.432,134.111-107.394
	c71.887-66.376,134.451-140.602,187.724-222.601c81.641-125.663,137.659-261.982,168.879-408.535
	c8.742-41.034,15.273-82.385,20.059-124.076c6.968-60.701,9.115-121.585,7.019-182.55c-1.6-46.555-6.085-92.922-12.898-139.087
	c-15.346-103.979-43.37-204.33-84.343-301.076c-44.872-105.953-103.83-203.391-177.011-292.218
	c-68.019-82.562-145.941-154.407-233.356-216.005c-0.272-0.192-0.564-0.356-0.834-0.552c-7.595-5.495-7.701-5.57-2.361-13.13
	c14.418-20.414,28.93-40.762,43.414-61.13c10.428-14.665,20.865-29.324,31.319-43.972c1.14-1.598,2.411-3.102,3.938-5.055
	c11.655,7.026,22.018,15.365,32.595,23.341c147.13,110.956,267.797,245.662,361.452,404.36
	c68.349,115.817,118.21,239.263,149.83,369.981c11.976,49.507,21.164,99.558,27.172,150.184c3.492,29.421,6.195,58.873,8.043,88.453
	c3.101,49.64,2.697,99.304,0.874,148.899c-1.6,43.539-6.493,86.881-12.812,130.063c-12.521,85.572-33.012,169.132-61.613,250.705
	c-52.434,149.549-128.78,285.795-228.523,408.89c-92.219,113.809-199.821,210.621-322.601,290.524
	c-12.844,8.359-25.977,16.275-38.948,24.44c-13.107,8.251-11.084,4.15-11.055,19.257c0.064,33.001,0.106,66.005,0.63,98.999
	c0.105,6.622-1.683,9.923-7.955,12.734c-107.771,48.311-218.16,89.207-332.765,118.237
	c-56.814,14.392-114.214,25.796-172.356,33.419c-35.982,4.718-72.054,8.037-108.295,10.207c-44.987,2.693-89.998,2.9-134.904,0.83
	c-104.775-4.829-207.618-22.25-308.645-50.553c-132.445-37.104-257.972-91.008-379.159-155.503
	c-5.772-3.072-14.647-4.273-16.158-10.44c-1.323-5.4,5.181-10.988,8.402-16.38c9.739-16.305,19.664-32.499,29.473-48.762
	c5.09-8.439,5.066-8.492-3.197-13.324c-48.098-28.123-94.325-59.034-138.673-92.77c-108.221-82.324-202.128-178.638-281.588-288.934
	c-86.979-120.732-152.666-252.204-197.375-394.152c-20.634-65.511-36.278-132.208-46.913-200.032
	c-6.03-38.455-10.075-77.154-13.029-116.012c-3.567-46.932-4.2-93.899-2.8-140.832c1.588-53.227,6.798-106.203,14.819-158.932
	c22.337-146.84,67.978-286.006,136.307-417.769c49.625-95.693,109.95-184.14,180.948-265.286
	c110.93-126.786,240.852-229.641,389.314-309.168c109.541-58.678,224.939-101.835,345.899-130.041
	c52.198-12.172,104.962-21.276,158.298-27.096c36.09-3.938,72.213-6.67,108.497-8.103c21.663-0.856,43.307-1.426,64.951-1.043
	c47.615,0.842,95.088,3.815,142.451,9.174C-66.834-861.698,34.921-837.62,134.2-802.715c2.512,0.883,4.975,1.91,7.431,2.939
	c0.908,0.38,1.733,0.959,2.581,1.439c0.035,3.287-2.658,4.5-4.582,6.171c-38.498,33.436-77.067,66.789-115.492,100.308
	c-4.09,3.567-7.485,4.985-13.282,3.351c-54.828-15.453-110.38-27.505-166.894-35.098c-34.653-4.656-69.387-7.889-104.29-10.015
	c-37.986-2.314-75.971-2.335-113.92-0.995c-35.569,1.255-71.036,4.484-106.404,8.945c-61.204,7.719-121.475,19.826-180.838,36.498
	c-143.198,40.218-275.133,103.852-395.789,190.819c-61.546,44.361-118.494,94.034-170.775,149.014
	c-72.026,75.745-133.469,159.264-183.919,250.849c-53.511,97.143-93.116,199.64-118.52,307.595
	c-10.373,44.08-17.921,88.648-23.556,133.599c-8.48,67.653-10.38,135.593-6.989,203.495
	c6.829,136.747,35.936,268.842,86.983,396.029c47.665,118.762,112.134,227.545,193.64,326.145
	c69.183,83.694,148.197,156.89,236.962,219.505c28.335,19.988,57.456,38.754,87.409,56.223c6.991,4.078,7.03,4.011,11.324-2.935
	c4.38-7.086,8.451-14.286,11.58-22.08c4.232-10.543,10.078-20.33,16.701-29.528c33.773-46.905,61.973-97.163,89.078-148.055
	c23.366-43.872,43.595-89.15,58.743-136.58c16.645-52.118,26.125-105.281,22.889-160.228c-1.812-30.767-8.173-60.596-18.669-89.597
	c-1.892-5.227-5.044-7.238-10.128-7.787c-32.084-3.463-64.168-6.936-96.234-10.564c-32.39-3.666-64.753-7.568-97.139-11.27
	c-30.407-3.476-60.829-6.827-91.245-10.227c-8.268-0.924-8.383-0.91-8.545-8.615c-0.573-27.318-1.113-54.637-1.551-81.957
	c-0.151-9.425-0.003-9.449,9.321-11.726c58.19-14.207,116.391-28.369,174.549-42.707c2.92-0.72,6.486-0.566,10.09-4.165
	c-12.724-1.757-24.056-3.356-35.397-4.882c-43.847-5.902-87.696-11.791-131.547-17.658c-6.925-0.926-13.852-1.914-20.81-2.491
	c-4.58-0.38-6.377-2.358-6.285-6.958c0.266-13.33-0.306-26.7,0.504-39.99c0.976-15.994,0.785-31.98,1.097-47.969
	c0.27-13.816,0.23-13.768,14.13-17.155c52.378-12.76,104.747-25.553,157.116-38.348c0.307-0.075,0.567-0.342,1.184-0.73
	c-6.584-4.121-14.094-3.248-20.986-4.225c-37.218-5.276-74.523-9.936-111.796-14.821c-9.895-1.297-19.781-2.655-29.675-3.956
	c-7.401-0.974-7.656-0.952-7.708-8.592c-0.16-22.999-0.317-46.002-0.087-68.999c0.407-40.646,2.74-81.227,6.447-121.68
	c13.025-142.161,42.835-280.742,89.63-415.66c22.766-65.638,49.757-129.275,86.444-188.531
	c81.684-131.934,191.211-233.411,330.704-301.881c54.087-26.549,111.385-43.918,170.188-56.574
	c45.561-9.806,91.352-18.319,137.685-23.418c20.824-2.292,41.736-3.939,62.69-5.127c20.978-1.19,41.942-1.598,62.928-1.744
	c9.237-0.064,9.191,0.065,11.225,8.678c10.707,45.339,21.429,90.674,32.185,136.002c0.606,2.553,1.555,5.025,2.299,7.391
	c3.534,0.329,5.109-2.162,7.062-3.825c47.956-40.836,95.891-81.698,143.81-122.577c76.065-64.888,152.128-129.778,228.169-194.694
	c66.409-56.693,132.786-113.424,199.178-170.137c19.005-16.235,38.011-32.47,57.022-48.699c1.013-0.865,2.061-1.692,3.116-2.507
	c8.707-6.729,16.381-6.778,23.286-0.156c6.495,6.229,7.14,13.757,1.332,22.498c-24.898,37.468-49.91,74.86-74.901,112.266
	c-110.887,165.974-221.78,331.945-332.677,497.912c-8.516,12.745-17.008,25.508-25.672,38.153c-2.484,3.625-2.827,5.997,1.246,9
	c27.036,19.936,45.913,46.08,57.881,77.341c2.712,7.084,7.708,12.434,13.306,17.235c28.844,24.739,57.242,49.976,84.981,75.95
	c14.111,13.212,28.309,26.334,42.273,39.699c39.973,38.258,79.695,76.78,119.809,114.889c30.203,28.693,60.577,57.263,92.825,83.652
	c23.222,19.004,33.092,43.43,33.876,72.536c0.593,22.012-0.975,43.93-2.215,65.884c-1.07,18.936-0.658,37.825,1.446,56.833
	c4.023,36.358-8.717,67.566-33.608,93.761c-28.422,29.911-64.123,47.074-103.562,57.24c-44.355,11.434-89.025,10.494-133.794,3.022
	c-19.371-3.233-38.484-7.715-57.5-12.655c-5.988-1.556-11.059-4.185-15.877-7.942c-23.439-18.275-44.669-39.02-66.429-59.166
	c-21.293-19.715-43.182-38.596-67.029-55.29c-22.941-16.059-46.843-17.308-72.098-7.764c-7.453,2.816-14.642,6.417-21.74,10.07
	c-40.52,20.856-82.893,36.414-127.827,44.469c-45.726,8.197-91.294,8.119-136.846-2.223c-15.949-3.622-30.974-10.26-47.102-13.022
	c-1.311-0.224-2.581-0.713-3.895-0.887c-12.473-1.646-19.951,6.715-16.812,18.887c1.776,6.885,5.449,12.863,9.596,18.53
	c13.753,18.794,31.295,33.656,50.051,47.072c26.609,19.033,54.527,35.798,84.731,48.738c29.922,12.819,56.266,31.7,82.155,51.088
	c97.097,72.712,179.863,159.476,250.993,257.484c63.774,87.872,115.445,182.407,152.18,284.639
	c26.816,74.627,47.993,150.982,62.256,229.084c5.258,28.792,8.996,57.815,11.169,87.076c1.782,23.997,2.15,47.957,0.963,71.904
	c-1.004,20.26-3.691,40.42-8.486,60.21c-0.686,2.832-1.61,5.605-1.153,8.58c-0.824,0.148-1.218,0.697-0.725,1.144
	C392.173,1502.543,392.687,1502.131,392.759,1501.298z M-99.935-253.537C-91.807-233.284,8.813-74.354,14.923-69.288
	c4.027-10.79,8-21.319,11.877-31.883c1.52-4.142,3.546-7.573,7.529-10.104c14.607-9.283,29.017-18.879,43.448-28.436
	c2.847-1.885,5.791-3.091,9.222-3.419c6.285-0.601,12.552-1.415,18.817-2.207c3.954-0.5,7.892-1.134,11.84-1.684
	c3.928-0.547,8.232,0.202,12.134-3.543C52.797-185.076-23.569-219.306-99.935-253.537z"/>
</svg>
