<?xml version="1.0" encoding="utf-8"?>
<!-- Generator: Adobe Illustrator 25.0.0, SVG Export Plug-In . SVG Version: 6.00 Build 0)  -->
<svg version="1.1" id="Capa_1" xmlns="http://www.w3.org/2000/svg" xmlns:xlink="http://www.w3.org/1999/xlink" x="0px" y="0px"
	 viewBox="0 0 595.276 841.89" enable-background="new 0 0 595.276 841.89" xml:space="preserve">
<g>
	<path d="M-525.965,1174.052c0.102-9.597-3.178-18.335-4.711-27.291c-6.038-35.271-8.79-70.56-5.861-106.409
		c2.23-27.294,5.587-54.291,12.256-80.832c1.43-5.69-0.168-10.297-2.711-15.184c-38.605-74.185-77.116-148.418-115.642-222.643
		c-1.381-2.661-2.701-5.354-4.027-8.042c-0.968-1.963-0.952-3.833,0.628-5.518c1.875-2,4.204-2.125,6.388-0.974
		c2.036,1.074,3.817,2.652,5.653,4.082c50.225,39.103,100.444,78.215,150.661,117.329c1.052,0.819,2.053,1.704,3.116,2.508
		c6.167,4.662,6.294,4.732,10.28-1.77c37.86-61.749,88.488-110.527,150.198-148.085c7.165-4.361,7.21-4.522,2.365-11.927
		c-38.5-58.837-77.041-117.647-115.573-176.463C-499.602,391.088-566.26,289.347-632.91,187.599
		c-1.277-1.949-2.52-3.924-3.679-5.944c-1.11-1.933-0.958-3.806,0.626-5.477c1.548-1.633,3.593-2.157,5.451-1.225
		c2.957,1.483,5.726,3.368,8.484,5.219c140.553,94.362,281.097,188.736,421.639,283.114c20.195,13.562,40.362,27.165,60.581,40.69
		c2.706,1.811,5.132,4.241,9.301,4.787c2.096-3.181,0.944-6.847,0.829-10.225c-2.371-69.045,7.951-136.096,31.503-201.068
		c9.212-25.413,20.122-50.086,33.573-73.544c3.423-5.969,4.028-10.892,1.415-17.574c-54.33-138.954-108.377-278.019-162.473-417.065
		c-3.537-9.091-2.98-13.848,1.911-17.141c4.934-3.322,9.601-2.038,16.556,4.594c62.722,59.803,125.421,119.631,188.171,179.405
		c32.098,30.576,64.28,61.064,96.441,91.574c6.423,6.093,6.439,6.033,13.906,0.782c25.129-17.673,51.415-33.41,79.306-46.306
		c5.452-2.521,8.23-5.744,9.252-11.563c6.564-37.367,13.356-74.694,20.06-112.036c7.822-43.564,15.647-87.127,23.44-130.697
		c9.669-54.054,19.279-108.119,28.966-162.169c8.161-45.536,16.414-91.055,24.593-136.587
		c9.826-54.701,19.585-109.415,29.433-164.112c8.963-49.784,18.048-99.547,27.004-149.332
		c10.311-57.321,20.547-114.655,30.8-171.986c8.847-49.468,17.669-98.94,26.52-148.407c0.41-2.293,1.005-4.553,1.502-6.831
		c0.568-2.604,2.128-4.113,4.832-4.161c3.238-0.058,4.776,1.785,5.215,4.848c1.132,7.907,2.407,15.794,3.457,23.711
		c5.601,42.235,11.07,84.488,16.742,126.713c5.627,41.893,11.516,83.751,17.153,125.643c5.016,37.277,9.781,74.587,14.772,111.867
		c4.946,36.946,10.065,73.869,15.052,110.81c4.275,31.667,8.442,63.347,12.705,95.016c5.106,37.933,10.294,75.855,15.39,113.789
		c3.589,26.721,7.041,53.46,10.632,80.181c5.097,37.934,10.306,75.852,15.391,113.788c4.289,32.001,8.415,64.024,12.712,96.024
		c5.006,37.274,10.148,74.529,15.175,111.8c2.625,19.463,5.38,38.914,7.556,58.428c0.796,7.143,3.738,10.859,10.618,13.413
		c35.773,13.279,69.143,31.315,100.765,52.609c17.999,12.121,34.826,25.748,51.071,40.114c5.125,4.532,5.335,4.622,10.363-0.161
		c21.01-19.986,41.973-40.022,62.86-60.136c48.5-46.706,96.941-93.474,145.421-140.2c6.719-6.476,13.508-12.88,20.309-19.27
		c1.416-1.33,2.693-3.061,5.111-2.787c1.979,3.157-0.421,5.674-1.504,8.214c-27.687,64.958-55.45,129.883-83.205,194.812
		c-18.591,43.49-37.116,87.008-55.873,130.426c-2.432,5.628-2.797,10.045,0.628,15.728c25.973,43.097,44.506,89.328,56.908,138.056
		c0.569,2.236,1.462,4.39,2.174,6.491c3.143,0.166,4.154-2.279,5.621-3.94c59.794-67.695,119.555-135.419,179.327-203.133
		c41.466-46.976,82.952-93.934,124.412-140.915c58.661-66.473,117.292-132.971,175.961-199.437
		c47.421-53.722,94.894-107.396,142.314-161.119c37.715-42.728,75.384-85.497,113.078-128.244c1.322-1.499,2.67-2.977,4.039-4.434
		c2.049-2.182,4.496-3.121,7.094-1.235c2.56,1.858,2.414,4.614,1.342,7.24c-0.879,2.152-2.053,4.186-3.124,6.258
		c-94.194,182.345-188.387,364.691-282.591,547.031c-41.138,79.626-82.303,159.237-123.45,238.859
		c-71.281,137.931-142.559,275.862-213.822,413.802c-1.651,3.197-3.107,6.494-5.078,10.635c10.079,2.197,19.382,4.094,28.621,6.263
		c31.615,7.422,61.676,19.182,90.634,33.66c6.685,3.342,11.039,2.792,16.797-1.594c92-70.059,184.154-139.917,276.276-209.816
		c35.84-27.194,71.688-54.376,107.531-81.565c1.062-0.805,2.094-1.653,3.175-2.432c2.36-1.7,4.976-2.375,7.364-0.424
		c2.958,2.418,1.979,5.228,0.235,8.015c-8.483,13.56-16.901,27.16-25.374,40.726c-76.252,122.099-152.516,244.19-228.757,366.296
		c-4.967,7.956-5.469,6.238,0.613,14.554c44.536,60.891,71.675,128.96,82.899,203.382c3.577,23.713,5.399,47.656,4.294,71.934
		c3.599,0.031,4.513-2.84,5.931-4.677c74.023-95.846,132.994-200.174,176.628-313.181c28.027-72.586,48.971-147.164,62.979-223.655
		c6.836-37.327,11.884-74.927,15.139-112.784c3.571-41.531,5.789-83.097,5.191-124.766c-0.663-46.312-3.655-92.469-9.133-138.507
		c-13.3-111.785-41.419-219.652-84.095-323.769c-1.939-4.731-2.93-8.844-0.183-14.1c25.772-49.311,51.195-98.805,76.735-148.238
		c0.604-1.168,1.39-2.242,2.363-3.795c3.677,1.962,4.515,5.695,6.059,8.735c45.708,90.022,81.284,183.886,106.506,281.652
		c14.233,55.171,24.833,111.029,32.431,167.517c10.378,77.157,13.4,154.65,11.1,232.339c-1.3,43.929-5.239,87.715-10.934,131.355
		c-9.02,69.125-22.972,137.17-42.13,204.184c-34.173,119.536-83.586,232.395-148.178,338.599
		c-50.573,83.154-109.249,160.128-176.088,230.917c-101.073,107.046-216.293,195.57-345.824,265.547
		c-106.446,57.505-218.692,99.538-336.618,126.326c-50.016,11.362-100.598,19.446-151.622,25.055
		c-61.072,6.714-122.303,8.713-183.62,6.996c-43.601-1.22-87.032-5.316-130.348-10.905
		c-87.819-11.332-173.522-31.442-257.219-60.168c-58.042-19.921-114.903-42.819-169.075-71.761
		c-50.846-27.166-100.959-55.729-149.509-86.837c-38.196-24.473-73.924-52.441-108.729-81.515
		c-44.558-37.221-86.686-77.022-126.207-119.592c-77.019-82.962-142.953-173.923-197.779-272.954
		c-42.558-76.873-77.503-157.07-104.757-240.589c-22.76-69.746-39.995-140.839-51.31-213.361
		c-6.522-41.801-11.213-83.768-14.202-125.984c-3.088-43.602-4.094-87.232-2.934-130.867c1.266-47.609,4.933-95.071,10.933-142.379
		c12.235-96.474,34.285-190.588,66.313-282.367c52.313-149.904,128.173-286.805,227.476-410.684
		c94.426-117.795,205.174-217.494,332.492-298.636c134.486-85.71,279.588-145.782,435.56-179.471
		c26.693-5.766,53.576-10.387,80.476-14.974c10.802-1.842,11.865-0.914,9.988,9.653c-5.412,30.475-10.976,60.922-16.475,91.382
		c-2.424,13.426-4.885,26.846-7.235,40.286c-1.506,8.614-1.433,8.609-9.496,10.176C12.727-757.883-159.901-678.409-313.253-557.252
		c-136.349,107.724-244.76,238.823-326.115,392.327c-58.293,109.989-98.642,226.3-121.976,348.497
		c-7.994,41.864-13.536,84.094-17.144,126.609c-3.159,37.223-4.935,74.497-4.692,111.792c0.308,47.298,3.209,94.481,8.79,141.529
		c18.449,155.529,63.976,302.539,137.508,440.825c30.566,57.482,65.549,112.181,104.845,164.102
		C-530.502,1170.457-529.541,1173.183-525.965,1174.052z M434.033,1651.418c40.493,0.426,87.651-2.54,134.678-8.192
		c44.658-5.368,88.842-13.232,132.643-23.437c6.046-1.408,9.965-4.108,13.181-9.338c13.61-22.136,27.559-44.063,41.395-66.06
		c89.943-142.993,179.89-285.984,269.827-428.98c5.676-9.025,11.291-18.089,16.91-27.149c1.634-2.634,3.075-5.529,0.51-8.211
		c-2.587-2.705-5.516-1.16-8.258,0.17c-6.593,3.199-13.215,6.339-19.781,9.592c-104.776,51.906-209.54,103.839-314.341,155.696
		c-3.989,1.974-8.372,6.247-12.796,2.524c-4.517-3.801-0.663-8.834,0.545-13.019c38.204-132.403,76.542-264.768,114.851-397.141
		c4.534-15.668,8.957-31.369,13.579-47.011c0.956-3.235,1.149-6.062-2.186-7.711c-2.789-1.379-5.131-0.08-6.987,2.211
		c-0.839,1.035-1.757,2.005-2.636,3.008c-32.09,36.573-64.201,73.128-96.266,109.723c-46.778,53.387-93.524,106.803-140.277,160.212
		c-2.184,2.495-4.103,5.654-8.154,4.326c-3.395-1.113-3.695-4.367-4.367-7.282c-2.843-12.323-5.682-24.648-8.563-36.962
		c-25.095-107.26-50.244-214.507-75.29-321.778c-36.245-155.234-72.417-310.484-108.634-465.724
		c-0.605-2.592-1.179-5.227-2.157-7.687c-0.888-2.234-2.555-4.041-5.309-3.688c-2.181,0.28-3.472,1.788-4.035,3.884
		c-0.519,1.93-1.108,3.85-1.475,5.81c-2.143,11.449-4.209,22.912-6.34,34.363c-11.746,63.139-23.485,126.279-35.261,189.412
		c-10.19,54.631-20.452,109.248-30.637,163.88c-11.832,63.462-23.628,126.93-35.415,190.4
		c-8.385,45.151-16.701,90.314-25.103,135.461c-3.105,16.685-6.226,33.369-9.627,49.994c-1.352,6.609-4.154,7.697-9.814,4.314
		c-3.423-2.047-6.597-4.514-9.862-6.821c-75.932-53.638-151.86-107.281-227.801-160.907c-2.169-1.531-4.367-3.08-6.734-4.255
		c-1.867-0.927-3.969-0.652-5.543,0.907c-1.555,1.539-1.961,3.407-0.945,5.472c1.029,2.091,1.967,4.229,3.04,6.297
		c6.903,13.307,13.852,26.59,20.75,39.9c85.072,164.16,170.149,328.318,255.14,492.52c1.849,3.573,6.17,7.521,2.236,11.702
		c-3.878,4.12-8.114,0.381-11.832-1.388c-24.363-11.592-48.667-23.309-72.978-35.01C34.957,1293-73.986,1240.535-182.974,1188.162
		c-3.652-1.755-7.863-6.047-11.754-2.076c-4.466,4.558,0.398,8.586,2.826,12.243c86.797,130.757,173.68,261.456,260.401,392.263
		c3.378,5.095,7.44,7.966,13.158,9.68C194.356,1634.049,309.391,1651.953,434.033,1651.418z M542.508-949.028
		c5.973,44.533,12.006,89.059,17.857,133.608c0.576,4.387,2.342,6.398,6.745,6.943c11.556,1.431,23.07,3.201,34.604,4.817
		c62.45,8.754,123.633,23.06,183.759,41.979c124.065,39.039,238.576,97.097,343.843,173.361
		c80.812,58.547,153.302,126.124,217.614,202.446c6.871,8.154,13.636,16.398,20.37,24.665c2.396,2.942,4.647,3.489,7.206,0.296
		c0.832-1.039,1.777-1.986,2.659-2.986c27.996-31.744,55.983-63.496,83.99-95.231c6.229-7.058,6.855-6.133,0.563-13.709
		c-55.324-66.606-116.413-127.441-183.241-182.46c-85.812-70.649-178.856-130.009-279.299-177.706
		c-61.186-29.055-124.219-53.259-189.097-72.749c-59.718-17.94-120.414-31.461-182.012-40.932
		c-26.978-4.148-54.116-7.147-81.287-9.805c-3.702-0.362-4.871,1.104-4.602,3.618C542.334-951.02,542.375-950.018,542.508-949.028z"
		/>
	<path fill="#818181" d="M867.547-23.926c-0.185,0.2-0.37,0.399-0.555,0.599c-0.169-0.214-0.476-0.434-0.468-0.64
		c0.008-0.207,0.332-0.401,0.517-0.601C867.209-24.353,867.378-24.139,867.547-23.926z"/>
</g>
</svg>
