<?xml version="1.0" encoding="utf-8"?>
<!-- Generator: Adobe Illustrator 25.0.0, SVG Export Plug-In . SVG Version: 6.00 Build 0)  -->
<svg version="1.1" id="Capa_1" xmlns="http://www.w3.org/2000/svg" xmlns:xlink="http://www.w3.org/1999/xlink" x="0px" y="0px"
	 viewBox="0 0 595.276 841.89" enable-background="new 0 0 595.276 841.89" xml:space="preserve">
<path d="M1635.631,1419.45c-1.606,3.441-0.809,7.141-0.811,10.717c-0.054,80.01-0.356,160.023,0.172,240.03
	c0.136,20.627-14.367,43.806-40.247,49.035c-31.409,6.346-60.192-15.498-61.809-47.488c-0.151-2.993-0.043-6-0.043-9
	c-0.001-95.012-0.101-190.025,0.18-285.037c0.023-7.969-2.442-12.427-9.222-16.684c-54.24-34.059-102.611-75.243-145.569-122.684
	c-86.051-95.031-158.321-199.966-223.028-310.397c-100.905-172.208-200.399-345.229-299.542-518.453
	c-14.873-25.987-22.323-53.833-21.562-84.043c1.562-62.044,48.756-108.65,110.871-109.247c20.127-0.193,39.916,1.073,59.143,7.509
	c26.686,8.932,48.55,24.914,66.296,46.41c59.621,72.22,118.923,144.704,178.531,216.935c21.632,26.213,42.981,52.665,66.123,77.624
	c13.452,14.508,29.043,20.532,48.435,16.319c5.847-1.27,11.743-2.377,17.505-3.961c18.559-5.1,27.954-16.726,29.205-35.795
	c0.065-0.997,0.063-1.999,0.081-2.999c0.837-46.987,1.269-93.986,2.624-140.958c1.278-44.319,1.23-88.65,2.197-132.965
	c1.934-88.66,0.612-177.341,2.04-265.996c1.616-100.333,0.543-200.679,1.991-301.004c1.511-104.668,0.936-209.341,1.927-314.007
	c0.303-31.992,0.961-63.985,1.88-95.965c0.516-17.959,1.097-35.98,3.057-53.818c3.786-34.47,22.186-60.201,50.873-78.589
	c51.859-33.243,121.663-24.458,162.209,18.92c19.76,21.14,29.146,46.227,29.084,75.369c-0.1,46.992-2.203,93.956-1.218,140.964
	c2.271,108.323,0.567,216.68,2.228,325.004c1.303,85,0.582,170.007,1.975,254.997c0.47,28.661,0.951,57.317,0.953,85.98
	c0,6.635,1.26,12.918,5.631,17.691c12.021,13.125,25.219,24.69,43.154,29.305c35.91,9.241,74.186-22.819,73.796-56.614
	c-0.474-40.998-0.305-82.016,0.409-123.011c1.858-106.664,0.551-213.347,2.093-320.005c1.46-101.001,0.471-202.014,2.077-303.003
	c1.007-63.334,0.528-126.665,1.342-189.993c0.146-11.325-0.405-22.659-0.305-33.986c0.317-35.969,16.262-64.09,44.478-85.324
	c54.428-40.959,138.072-31.002,178.524,24.911c13.948,19.279,20.137,40.751,19.57,64.71c-0.986,41.645-0.518,83.304,0.807,124.955
	c0.71,22.319,0.462,44.667,0.709,67.001c0.777,70.327,0.919,140.669,2.564,210.976c1.661,70.996,0.905,142,2.153,212.986
	c1.939,110.331,0.856,220.675,1.963,331.007c0.12,11.992,0.806,23.978,1.007,35.971c0.136,8.114,3.071,14.627,8.893,20.401
	c25.995,25.786,61.833,27.306,92.629,4.453c10.305-7.647,14.782-16.541,14.758-29.442c-0.125-67.007-0.299-134.027,0.844-201.02
	c1.438-84.332,0.47-168.677,1.992-252.996c1.432-79.331,0.589-158.674,2.044-237.993c0.648-35.325,0.403-70.666,1.666-105.974
	c0.82-22.95,1.607-45.933,3.554-68.803c2.184-25.642,14.027-47.118,32.484-64.678c49.941-47.51,133.882-45.44,180.41,4.386
	c19.968,21.383,30.123,46.599,29.034,76.277c-0.672,18.311-0.235,36.665-0.166,55c0.243,64.341-0.02,128.689,0.946,193.02
	c1.602,106.667,0.418,213.347,2.05,320.005c0.724,47.329,0.409,94.669,1.648,141.982c1.64,62.632,3.423,125.257,4.138,187.91
	c0.102,8.936,0.645,17.963,3.269,26.686c3.153,10.482,9.634,18.091,19.279,23.115c27.271,14.202,58.536,7.699,79.566-9.6
	c6.906-5.681,11.353-12.741,12.006-22.163c0.461-6.646,1.01-13.272,1.104-19.939c0.919-65.324,1.342-130.66,3.01-195.965
	c0.902-35.326,0.558-70.664,1.767-105.967c1.437-41.985,0.845-83.997,2.135-125.966c1.638-53.323,1.215-106.653,2.026-159.973
	c0.215-14.115-1.104-28.439,2.303-42.505c9.943-41.055,35.772-68.187,74.78-81.868c45.724-16.036,89.009-9.583,126.85,21.484
	c28.241,23.186,42.083,53.475,38.564,90.735c-0.461,4.887,0.502,9.891,0.533,14.843c0.318,51.005-0.014,102.022,0.984,153.013
	c1.845,94.33,0.522,188.678,2.013,283c1.286,81.338,1.664,162.677,0.527,243.999c-1.379,98.668-0.475,197.346-1.981,296.002
	c-1.477,96.672-0.329,193.341-1.062,290.007c-0.972,128.227-31.052,249.195-91.646,362.387
	c-12.286,22.951-26.232,44.895-41.46,65.975c-4.186,5.795-5.719,11.466-5.713,18.433c0.133,162.021,0.104,324.042,0.096,486.063
	c0,4.99-0.37,9.938-0.867,14.926c-1.901,19.066-19.259,39.81-45.635,41.883c-25.273,1.986-47.068-12.735-53.812-35.636
	c-1.548-5.256-1.405-10.537-1.406-15.851c-0.019-126.016-0.014-252.033-0.015-378.049c0-3.878,0-7.755,0-11.272
	c-3.442-1.187-4.636,0.843-6.077,1.994c-78.659,62.791-168.479,101.3-266.277,122.418c-40.369,8.717-81.122,14.98-122.281,18.474
	c-10.677,0.906-10.726,0.733-10.727,11.883c-0.009,115.682-0.002,231.364-0.009,347.045c-0.001,15.335,0.116,30.673-0.113,46.005
	c-0.544,36.337-32.007,67.882-68.334,69.406c-18.139,0.761-35.229-1.62-50.524-12.069c-21.631-14.777-33.083-35.126-33.092-61.494
	c-0.042-127.017-0.02-254.033-0.02-381.049c0-2.334,0.027-4.668-0.006-7.001c-0.12-8.605-0.132-8.515-8.769-8.959
	c-11.635-0.598-23.256-1.46-34.894-1.993c-6.594-0.302-6.636-0.109-6.884,6.443c-0.101,2.663-0.023,5.333-0.023,8
	c-0.001,86.344,0.016,172.689-0.014,259.034c-0.008,21.615-11.511,38.989-30.934,47.029c-19.725,8.165-42.348,3.599-57.102-11.679
	c-9.474-9.809-13.907-21.543-13.864-35.28c0.155-49.006,0.055-98.012,0.053-147.019c-0.001-42.339,0.011-84.677-0.009-127.016
	c-0.005-10.293-0.086-10.056-10.261-11.484c-65.051-9.127-129.343-21.488-190.905-45.337c-2.471-0.957-5.029-1.706-7.583-2.421
	C1637.073,1418.852,1636.367,1419.27,1635.631,1419.45z M2030.553,518.424c-9.772-0.623-23.725,0.885-37.549,2.759
	c-45.323,6.143-88.03,20.845-128.435,41.938c-84.253,43.984-154.069,105.584-214.816,178.006c-6.302,7.514-6.607,6.016-0.099,13.878
	c40.13,48.479,85.36,91.617,136.04,128.913c47.254,34.773,98.032,62.862,154.586,79.728c46.638,13.909,94.046,17.757,142.156,10.539
	c41.159-6.175,80.145-19.59,117.151-38.417c86.596-44.057,158.155-106.586,220.174-180.669c6.054-7.232,6.67-6.075-0.478-14.715
	c-27.679-33.456-58.106-64.235-90.951-92.584c-45.877-39.597-95.412-73.647-151.276-97.822
	C2131.683,530.342,2084.564,518.451,2030.553,518.424z M1342.161-674.326c-25.489,12.36-50.569,25.503-75.216,39.473
	c-134.605,76.288-253.278,172.189-355.23,288.662C818.745-239.98,744.759-121.919,690.452,8.436
	C636.171,138.73,605.047,274.44,597.185,415.25c-2.84,50.871-2.477,101.922,0.861,152.895c2.416,36.899,6.525,73.548,12.062,110.092
	c8.794,58.036,21.943,115.073,39.113,171.154c38.332,125.197,94.956,241.585,169.236,349.398
	c70.815,102.784,154.658,193.603,250.965,272.903c95.479,78.618,199.807,143.03,312.628,193.691
	c24.008,10.781,48.307,20.861,72.899,30.226c6.241,2.377,6.762,1.871,7.083-4.765c0.064-1.33,0.013-2.667,0.013-4
	c0-42.673-0.208-85.347,0.193-128.017c0.072-7.64-2.682-11.078-9.393-13.925c-32.525-13.801-64.139-29.528-95.164-46.434
	c-91.481-49.851-175.448-110.157-251.526-181.35c-42.164-39.457-81.385-81.67-117.412-126.842
	c-76.237-95.589-136.183-200.407-179.1-314.952C769.978,769.46,747.313,659.972,741.06,547.23
	c-2.434-43.889-2.126-87.919,0.845-131.898c2.178-32.24,5.511-64.296,10.244-96.248c9.144-61.733,23.633-122.195,43.212-181.404
	c34.862-105.423,84.288-203.602,147.875-294.622c75.502-108.074,166.698-200.833,272.777-279.011
	c40.284-29.689,82.234-56.827,125.911-81.254c4.874-2.726,7.601-5.53,7.273-11.538c-0.379-6.956,0.556-13.973,0.596-20.965
	c0.228-40.005,0.368-80.01,0.5-120.016c0.007-2.256,0.571-4.618-0.767-6.805C1346.597-677.414,1344.457-675.44,1342.161-674.326z
	 M2868.351-442.623c0.032,46.671,0.458,93.341,0.533,140.012c0.009,5.663,1.43,9.968,5.453,14.224
	c21.529,22.773,41.986,46.498,61.5,71.028c79.932,100.48,142.049,210.896,184.932,332.005
	c24.514,69.23,41.971,140.178,52.416,212.921c5.78,40.256,9.489,80.679,10.885,121.247c1.421,41.284,0.418,82.578-2.975,123.829
	c-3.359,40.84-8.565,81.363-16.201,121.614c-26.768,141.114-79.297,272.004-156.189,393.147
	c-73.406,115.651-164.599,215.225-272.516,299.494c-5.196,4.057-7.487,8.206-7.447,14.992c0.298,50.67,0.137,101.343,0.232,152.014
	c0.005,2.726-1.318,5.943,1.804,8.482c2.569-1.565,5.151-3.031,7.627-4.66c73.742-48.502,142.007-103.814,204.989-165.614
	c40.488-39.728,78.212-81.975,113.243-126.606c70.967-90.414,129.224-188.36,173.935-294.284
	c39.145-92.736,66.769-188.76,82.629-288.225c7.769-48.718,13.158-97.68,14.708-146.909c1.782-56.601,1.13-113.217-4.873-169.689
	c-3.625-34.102-8.013-68.046-14.083-101.791c-21.854-121.486-61.232-237.021-117.455-346.865
	c-77.187-150.802-180.645-280.984-307.866-392.523c-4.94-4.331-10.08-8.434-17.02-14.223
	C2867.025-471.837,2868.341-457.259,2868.351-442.623z M2227.798,1764.005c85.186-16.132,168.213-39.816,249.098-71.056
	c5.314-2.052,7.754-4.477,7.714-10.662c-0.288-44.966-0.143-89.934-0.195-134.902c-0.003-2.136,0.844-4.66-1.448-6.164
	c-2.74-0.623-4.704,0.941-6.76,1.856c-78.696,35.02-160.269,61.18-244.386,79.533c-9.093,1.984-9.125,2.027-9.129,11.747
	c-0.017,40.304-0.025,80.609,0.031,120.913c0.004,2.902-0.808,5.994,1.343,8.952
	C2225.214,1764.162,2226.536,1764.244,2227.798,1764.005z M1774.794,1643.941c0.027-4.295-0.995-6.549-5.87-7.228
	c-18.092-2.521-36.064-5.809-53.963-9.501c-7.784-1.606-8.419-0.941-8.44,7.291c-0.066,25.962,0.136,51.926-0.086,77.886
	c-0.133,15.602,1.388,31.296-1.777,46.777c-1.112,5.44,1.685,6.897,6.389,7.591c20.041,2.957,40.065,6.037,60.052,9.33
	c5.079,0.837,5.887-1.416,5.18-5.459c-2.893-16.53-1.027-33.201-1.507-49.801c-0.173-5.986-0.028-11.982-0.031-17.973
	C1774.74,1683.217,1774.67,1663.578,1774.794,1643.941z M2492.108-707.889c0.09,45.669,0.212,91.338,0.338,137.006
	c0.005,1.665,0.006,3.341,0.193,4.991c0.158,1.394,0.941,2.602,2.469,2.566c0.883-0.021,2.091-0.495,2.556-1.174
	c1.122-1.635,1.926-3.494,2.8-5.291c6.145-12.632,13.851-24.295,21.971-35.716c18.519-26.047,40.557-47.724,71.709-58.184
	c1.349-0.453,2.247-1.276,2.069-3.704c-33.157-16.674-67.203-32.419-103.462-46.776
	C2492.431-711.148,2492.104-709.518,2492.108-707.889z M2135.279,854.187c53.553-44.806,65.803-123.656,26.609-181.378
	c-33.954-50.005-82.439-71.579-142.547-66.512c-39.599,3.338-72.664,20.365-99.231,49.787
	c-39.378,43.612-46.867,107.908-17.682,158.789c29.056,50.656,74.589,73.791,121.242,76
	C2072.263,890.941,2106.01,878.676,2135.279,854.187z"/>
</svg>
