<svg xmlns="http://www.w3.org/2000/svg" viewBox="0 0 64.63 64.36"><defs><style>.cls-1{fill:#414042;}</style></defs><title>Asset 3</title><g id="Layer_2" data-name="Layer 2"><g id="Layer_1-2" data-name="Layer 1"><path class="cls-1" d="M24.06,24.19c0,.11-.33.21-.72.21h-.73l.29-.48.29-.47.43.27c.24.15.43.36.43.47M22.2,25.48l-.31-.31-.31-.31.31-.31.31-.31v1.24Zm0-2.25a.23.23,0,0,1-.23.23A.23.23,0,1,1,22,23a.23.23,0,0,1,.23.23m-1.34,4.43h-1v1.4l-.58.06a6.46,6.46,0,0,1-1.16,0L17.54,29v1.2l-.44-.7-.44-.69.44-.44.45-.45.55.55.55.55.79-1.2.79-1.2.31.51Zm-.52-2.56a.23.23,0,1,1-.23-.23.24.24,0,0,1,.23.23M19.41,25a2.46,2.46,0,0,1-.71.78l-.71.59-.26-.26-.26-.26,1-.52c.54-.29,1-.43,1-.33m-2.8,1.19c0,.23-.34.55-.77.71l-.77.29.59-.71a2.54,2.54,0,0,1,.77-.71c.1,0,.18.19.18.42m-.93,3.55a.23.23,0,1,1,.23.23.23.23,0,0,1-.23-.23m1.81,1.16.25-.41a2.64,2.64,0,0,1,1.42-.64c.65-.12,1.17-.15,1.17-.07a2.65,2.65,0,0,1-.9.63,4,4,0,0,1-1.43.48Zm-8.1.39H7.06l.58-.24.58-.24.58.24Zm18.08-7.87c-3.05-4.67-9-14.2-9-14.2C11.59,14.16,6.1,20.5,5.79,32c5.73,0,11,0,16.78,0a13.58,13.58,0,0,1,0-1.39l-.34-.12-.65-.23.25.41.25.41-1.24.06-1.24.06.58-.21.58-.21V29.62l.7-.27.7-.27V28l-.7.58-.7.58v-.5a1.05,1.05,0,0,1,.47-.79l.47-.29L21.47,27c-.15-.3.06-.14.47.37l.74.92-.24.64-.25.64.28.45.15.24a9.07,9.07,0,0,1,.72-2.88l0-.53h.31c.13-.23.27-.44.41-.65a2.4,2.4,0,0,1-.95-.74l-.64-.78,1,.56a5.22,5.22,0,0,1,.85.55c.13-.17.27-.34.42-.5a.23.23,0,1,1,.24-.24,9,9,0,0,1,2.47-1.64"/><path class="cls-1" d="M3.18,28.67c-1.81,18.72,11.6,31.15,26.15,32.5A29.15,29.15,0,0,0,61.46,34.64a29.53,29.53,0,0,0-14.2-28c-5.16-3-11.09-4.4-19.05-3.36C15.11,5,4.53,14.73,3.18,28.67m25-28.4c19.76-2.38,34.5,11.2,36.24,28C67.11,54,39.85,72.44,17.38,60.8a31.23,31.23,0,0,1-17.19-25A31.92,31.92,0,0,1,28.21.27"/><path class="cls-1" d="M39.91,19.86l.47-.39-.23-.37a1.71,1.71,0,0,1-.13-.31L39.31,20l.13.21Zm18,11.72-.47-.18c-.26-.1-.48-.31-.48-.47s.21-.37.48-.47l.47-.18v1.31Zm-2.06-.47a.18.18,0,1,1-.18-.19.19.19,0,0,1,.18.19m-.74-2.45c0,.18-.24.42-.54.54l-.54.21.2-.54c.11-.3.35-.54.54-.54a.33.33,0,0,1,.33.33m-.92,0-.82-.21a2.74,2.74,0,0,1-1.25-.72L52,27.58l.43-.24a5.22,5.22,0,0,1,.9.6Zm-2.37.78-.23-.37-.23-.37.75.12a2.34,2.34,0,0,1,1,.31l.2.2-.92.42-.91.42-.22-.36L51,29.44h.83ZM51.05,15a.17.17,0,0,1-.17.17.17.17,0,1,1,0-.33.17.17,0,0,1,.17.17m2.22,15.32a.19.19,0,1,1,.19.19.19.19,0,0,1-.19-.19m-3-15.56-.43-.16c-.24-.09-.43-.28-.43-.43s.19-.34.43-.43l.43-.17V14.8Zm-.69.41a.17.17,0,1,1,.17-.17.17.17,0,0,1-.17.17M49,17.89a1.48,1.48,0,0,1,.74.12l-.13.24-.12.09-.27.16-.48-.31-.48-.31Zm-.36-2.07-.44-.17c-.24-.1-.45-.22-.45-.27s.2-.17.45-.27l.44-.17v.87Zm-.22-1.44a.17.17,0,1,1-.17-.17.17.17,0,0,1,.17.17m-.22-3.17h-.89L47.5,11l.22-.22.22.22Zm-.74.67a.3.3,0,0,1,.3.3c0,.16-.22.38-.48.48l-.48.18.18-.48c.1-.27.32-.48.48-.48m-.54.3L46.15,12A2.47,2.47,0,0,1,45,11.34l-.12-.14.39-.22a4.65,4.65,0,0,1,.81.54Zm-2.13.7-.21-.33-.21-.33.68.1a2.1,2.1,0,0,1,.85.28l.18.18-.82.38-.82.37-.2-.32-.2-.32h.75Zm-.82,2.38a1.47,1.47,0,0,1,.44.49c0,.07-.2.13-.44.13H43.5v-1Zm-.65,4.42.2.2-.64,0-.64,0,.44-.18.44-.17Zm-.24-4a.17.17,0,1,1-.17-.17.17.17,0,0,1,.17.17m0-1c0,.08-.17.25-.39.39l-.39.24.24-.38c.13-.21.3-.38.38-.38a.15.15,0,0,1,.15.15m-.89,2.52h-.89l.22-.22.22-.22.22.22Zm-.95,2a.17.17,0,0,1,.17.17.17.17,0,0,1-.33,0,.17.17,0,0,1,.17-.17m-.17,1,.3.19.3.19.17-.42.17-.42,0,.36a.84.84,0,0,1-.19.58.76.76,0,0,1-.21.14l-.38.06a.35.35,0,0,1-.19-.33Zm2.67-1.46a.17.17,0,0,1,.17-.17.17.17,0,1,1,0,.33.17.17,0,0,1-.17-.17m.5-.5a.17.17,0,1,1,.17-.17.17.17,0,0,1-.17.17M44,19.58l.37-.7h.72l-.18.7-.18.7,1-.2c.54-.11,1-.12,1,0s-.15.16-.33.16h-.32l.19.58.19.58L46.17,21l-.28-.33-1-.11a3.9,3.9,0,0,1-1.11-.22c-.06-.06.05-.43.26-.81m2.57-3,.22-.22.22-.22V17l-.22-.22Zm-1.78-.44-.22-.22.22-.22.22-.22v.89Zm1.39-2.22a.17.17,0,1,1,.17-.17.17.17,0,0,1-.17.17m.65,4-.58.22-.58.22.2.63.2.63h-.18a3,3,0,0,1-.72-1l-.54-1,.51.19.51.2.11-.3.1-.31.49.31Zm.19.87-.33.2v-.33a.73.73,0,0,1,.33-.54l.33-.21v.33a.73.73,0,0,1-.33.54m0,1.33a.17.17,0,1,1,.17.17.17.17,0,0,1-.17-.17m1.44-.81L49,19l.16-.06-.64,1.18h0ZM58.71,30.43l-.25.15.21-.55C58,22.76,55.33,17.41,51.27,13.5a.75.75,0,0,1-.21.21l-.33.2.2-.52.07-.16a27.14,27.14,0,0,0-5.6-4l-4.84,8.59.05.94.06,1.11-.56.29-.56.29-.39-.14-.2.35,0,0h-.05l-1.52,2.71c3,2.65,3.71,4.39,4.25,8.6h3.64a.18.18,0,1,1,.19-.18.18.18,0,0,1-.18.18h3.84l.19-.31c.15-.24.34-.43.43-.43a.16.16,0,0,1,.17.16c0,.09-.19.28-.43.43l-.24.15h1.16v-.35l.43.35h4.51l.24-.11.49-.19V32h1a.18.18,0,0,1,0-.37.18.18,0,0,1,0,.37h1.48a.18.18,0,1,1,.19-.18.18.18,0,0,1-.18.18h.2c0-.55-.09-1.06-.14-1.59"/><path class="cls-1" d="M41.21,48.87a.92.92,0,0,1-.43.68l-.43.27.26-.68c.14-.37.34-.68.43-.68s.17.18.17.41m-.87,2.43a.22.22,0,0,1,.22-.22.22.22,0,1,1,0,.44.22.22,0,0,1-.22-.22M39.71,51l-.56-.21c-.31-.12-.56-.37-.56-.56s.25-.44.56-.56l.56-.22V51Zm-.91.54A.22.22,0,1,1,39,51.3a.22.22,0,0,1-.22.22M38,55a1.93,1.93,0,0,1,1,.15l-.17.32-.16.12-.35.22-.64-.4-.63-.4Zm-.47-2.71L37,52.09c-.32-.12-.58-.28-.58-.35s.26-.23.58-.35l.58-.22v1.14Zm-.29-1.88a.22.22,0,1,1-.22-.22.22.22,0,0,1,.22.22M37,46.28H35.82l.29-.29.29-.29.29.29Zm-1,.87a.39.39,0,0,1,.39.39c0,.22-.29.5-.63.63l-.63.24.24-.63c.13-.35.42-.63.63-.63m-.7.39-1-.24a3.23,3.23,0,0,1-1.47-.85l-.15-.18.5-.28a6.25,6.25,0,0,1,1.06.71Zm-2.44.18a2.75,2.75,0,0,1,1.12.37l.23.23-1.08.49-1.08.49-.26-.42-.26-.42h1L32.26,48,32,47.59Zm-1.42,3.86a2,2,0,0,1,.58.65c0,.09-.26.17-.58.17h-.58V51.1Zm-.85,5.79.26.26-.84,0-.84,0,.57-.23.57-.23Zm-.32-5.19a.22.22,0,0,1-.22.22.22.22,0,1,1,0-.44.22.22,0,0,1,.22.22m0-1.34c0,.1-.23.33-.5.5l-.5.31.31-.5c.17-.28.4-.5.5-.5a.19.19,0,0,1,.19.19m-1.16,3.3H28l.29-.29.29-.29.29.29Zm-1.24,2.62a.22.22,0,1,1-.22.22.22.22,0,0,1,.22-.22M27.67,53a.22.22,0,0,1-.22.22.22.22,0,0,1,0-.44.22.22,0,0,1,.22.22m-.44.89c0,.11-.17.2-.38.2a1.94,1.94,0,0,1-1-.72l-.6-.73,1,.52c.54.29,1,.61,1,.73M26.8,52.2c0,.11-.31.19-.68.19h-.68l.28-.45.27-.44.41.25c.22.14.4.34.4.44m-1.75,1.21-.29-.29-.29-.29.29-.29.29-.29v1.17Zm0-2.11a.22.22,0,0,1-.22.22.22.22,0,1,1,0-.44.22.22,0,0,1,.22.22m6.11,4.8a.22.22,0,1,1,.22.22.22.22,0,0,1-.22-.22m.44-.87a.22.22,0,1,1,.22.22.22.22,0,0,1-.22-.22m.73-2.84.29-.29.29-.29V53l-.29-.29Zm2.11-2.62a.22.22,0,1,1,.22-.22.22.22,0,0,1-.22.22m.8,3.78L35,53.27l.29-.29.29-.29v1.16Zm-2.85.89.67.26.67.26.14-.4.14-.4.64.4.64.4-.76.29-.76.29.26.82.26.82H34a3.87,3.87,0,0,1-.95-1.37Zm2.71,1.49a1,1,0,0,1,.44-.71L36,55v.44a1,1,0,0,1-.44.71l-.44.27Zm.44,1.91a.22.22,0,0,1,.44,0,.22.22,0,0,1-.44,0m1.89-1.06.68-.26.21-.08L37.48,58h-.05ZM23.31,53a.22.22,0,1,1-.22-.22.22.22,0,0,1,.22.22M22.44,53a2.29,2.29,0,0,1-.67.73l-.67.55L20.86,54l-.24-.25.91-.49c.5-.27.91-.4.91-.31m23.71,1.47-9-14.57c-2.11,2.18-7.87,1.77-10.09,0-2.91,4.94-5.73,10-8.59,14.94l0,0,.4-.48a2.4,2.4,0,0,1,.72-.67c.09,0,.16.18.16.39s-.32.51-.72.67l-.44.17a15.06,15.06,0,0,0,1.79,1l.23-.23.52.52.11.12.53.21.61-.94.74-1.13.29.48.3.48h-.92v1.31l-.4,0c.45.16.91.31,1.39.45L24.4,57l.65-.25v-1l-.65.54-.66.54V56.4a1,1,0,0,1,.44-.74l.44-.28-.26-.52c-.14-.28.06-.13.44.35l.69.86-.23.6-.23.6.2.33.73.16.19-.16.61-.51-.3-.49a3.11,3.11,0,0,1-.35-1.19l-.05-.7H27l.08,1.45.08,1.46-.5.26,1,.17v0l.09.06.84.1.09-.21.22-.55,0,.47a1.09,1.09,0,0,1,0,.32c.88.09,1.76.17,2.66.19a1,1,0,0,1-.31-.11c-.08-.08.07-.56.34-1.06l.49-.91H33l-.24.92-.24.92,1.28-.26c.7-.14,1.28-.16,1.28,0s-.19.21-.43.21h-.42l.1.3c4.65-.26,9.07-1.53,11.8-3.92"/><path class="cls-1" d="M38.15,32.25v.33a.72.72,0,0,1-.33.53l-.33.2V33a.72.72,0,0,1,.33-.54Zm-.33-.84-.22-.22L37.38,31l.22-.22.22-.22v.88Zm-.67.54.48.3-.58.22-.58.22.2.62.2.62H36.7a2.93,2.93,0,0,1-.72-1l-.54-1,.51.19.51.19.1-.3.1-.3Zm-1.31-1.2-.22-.22-.22-.22.22-.22.22-.22v.88Zm-.66,1.7a.16.16,0,1,1-.16-.17.17.17,0,0,1,.16.17m0-2.26c0,.07-.2.13-.44.13h-.44v-1l.44.36a1.46,1.46,0,0,1,.44.49m-1.08,3.88.2.2-.63,0-.63,0,.43-.17.43-.17Zm-.24-3.92A.17.17,0,1,1,33.7,30a.16.16,0,0,1,.16.17m0-1c0,.08-.17.25-.38.38l-.38.23.23-.38c.13-.21.3-.38.38-.38a.15.15,0,0,1,.15.14M33,31.63h-.88l.22-.22.22-.22.22.22Zm-.93,2a.17.17,0,1,1-.17.17.17.17,0,0,1,.17-.17m-.17-2.8a.17.17,0,0,1-.17.17.16.16,0,1,1,.17-.17m-.33.67c0,.08-.13.15-.29.15a1.47,1.47,0,0,1-.74-.55l-.45-.55.74.4c.41.22.74.46.74.55m-.33-1.31c0,.08-.23.15-.51.15H30.2l.21-.34.21-.33.31.19c.17.1.31.25.31.33m-1.32.92-.22-.22-.22-.22.22-.22.22-.22v.88Zm0-1.59a.16.16,0,0,1-.16.17.16.16,0,1,1,0-.33.16.16,0,0,1,.16.16m-.32,3.08-.2-.39c-.11-.21,0-.1.33.26l.52.65-.17.45-.17.45.2.32.2.32.46-.38.46-.38L31,33.49a2.33,2.33,0,0,1-.27-.9l0-.53h.7l.06,1.1.06,1.1-.55.28-.55.29L30,34.67l-.46-.16.18.29.18.29-.87,0-.87,0,.41-.15.41-.15V34l.5-.19.49-.19v-.76l-.49.41-.5.41v-.35a.75.75,0,0,1,.34-.56Zm-.63,0h-.7v1l-.41,0a4.51,4.51,0,0,1-.82,0l-.41-.05v.85l-.31-.49L26,33.45l.31-.32.32-.32.39.39.39.39.56-.85.56-.85.22.36ZM28.6,30.8a.16.16,0,1,1-.17-.16.17.17,0,0,1,.17.16m-.66-.05a1.73,1.73,0,0,1-.5.55l-.5.42-.18-.18-.18-.19.69-.37c.38-.2.69-.31.69-.23m-1.36,4.17.18-.29a1.87,1.87,0,0,1,1-.45c.46-.09.83-.11.83-.05a1.88,1.88,0,0,1-.64.45,2.86,2.86,0,0,1-1,.34Zm5.31-.37.3.19.3.19.17-.41.17-.41,0,.35a.84.84,0,0,1-.19.58.76.76,0,0,1-.2.14l-.38.06a.35.35,0,0,1-.19-.33Zm2.64-1.44a.16.16,0,1,1,.17.16.17.17,0,0,1-.17-.16m3.75-1A6.28,6.28,0,0,0,37,28.33a.17.17,0,0,1-.16-.16v0a6.71,6.71,0,0,0-.6-.64l-.22.1-.81.37-.2-.32-.2-.32h.74l-.2-.33-.2-.33h0a6.19,6.19,0,0,0-3.22-.91,6.32,6.32,0,0,0-6.27,5.63.44.44,0,0,1,.17-.11c.07,0,.12.13.12.29s-.15.29-.35.41c0,0,0,.08,0,.12a6.32,6.32,0,0,0,11.56,3.55l-.21-.25-.28-.33-1-.11a3.91,3.91,0,0,1-1.1-.22c-.06-.06.05-.42.26-.8l.37-.69h.71l-.18.7-.18.69,1-.19c.53-.11,1-.12,1,0s-.14.15-.32.15h-.32l.19.58.15.46a6.39,6.39,0,0,0,.64-1.19h0a.15.15,0,0,1,0-.1,6.29,6.29,0,0,0,.42-2.21"/></g></g></svg>