<svg xmlns="http://www.w3.org/2000/svg" viewBox="0 0 67.27 66.26"><defs><style>.cls-1{fill:#414042;}</style></defs><title>Asset 9</title><g id="Layer_2" data-name="Layer 2"><g id="Layer_1-2" data-name="Layer 1"><path class="cls-1" d="M19.11,62.7l-.32.09-.18,0-.37-.09L18.1,62,18,61.32l.63.65a1.78,1.78,0,0,1,.52.74m-1.8-2.15-.29.28a.88.88,0,0,1-.75.16l-.46-.12.29-.28a.88.88,0,0,1,.75-.16Zm-3-2.43a.2.2,0,1,1,.28,0,.2.2,0,0,1-.28,0m-.57.28a.2.2,0,0,1-.28,0,.2.2,0,0,1,0-.28.2.2,0,1,1,.28.29m-1.47-.19v.69l-.51-.58-.51-.58.52.23Zm-1.35-1.56a.2.2,0,0,1-.28,0,.2.2,0,1,1,.28,0m53.5-26.45C62.72,13.36,48-.21,28.21,2.16a31.92,31.92,0,0,0-28,35.49A31.19,31.19,0,0,0,5.72,52.59a2.79,2.79,0,0,1,1.09.49c.46.33.8.63.75.68a2.31,2.31,0,0,1-.93-.18L6.4,53.5c.28.37.56.75.86,1.11l.31-.3L8,53.95l.59.27.58.27.33-.32.33-.32L9,53.76l-.78-.09.31-.3a.91.91,0,0,1,.77-.18l.47.12.1-.3c-.19-.22-.38-.46-.56-.69l-.12.47-.3-.31-.29-.31-.43.42L7.74,53l-.38-.33A5.66,5.66,0,0,1,6.68,52l-.3-.41L6,51.92l-.38.36.17-.69L6,50.9H7v1.35L8.24,52,9,51.89a28.32,28.32,0,0,1-1.71-2.51,1.4,1.4,0,0,1-.6-.13L6,49l.79-.06H7A30,30,0,0,1,3.18,30.56c1.35-13.93,11.93-23.71,25-25.41,8-1,13.89.33,19.05,3.36a29.53,29.53,0,0,1,14.2,28A29.15,29.15,0,0,1,29.33,63.06,29.46,29.46,0,0,1,17.82,59.5l-.06.06v-.09c-.4-.22-.79-.47-1.19-.71l.15.67.14.68-.68-.32-.68-.32-.38.7-.38.7-.15-.16a3.56,3.56,0,0,1,.3-1.51l.43-1.27a29,29,0,0,1-3.83-3.19l-.67.72-.91,1L9.2,56.2,8.48,56l-.24-.54L8,54.87l-.1.4,0,.08q.89,1,1.85,1.92L10,57l.09.42,0,.18.21.18.35-.14.5-.21-.29.33a1,1,0,0,1-.32.23c.54.48,1.08,1,1.66,1.41A3.22,3.22,0,0,1,13,59.1l.92-.26.3.31.3.31-.77.43-.49.27a34.65,34.65,0,0,0,4.11,2.52C39.85,74.33,67.11,55.9,64.45,30.18M8.8,54.8l-.11.44-.11.44.73.08.73.08.13-.51a2.85,2.85,0,0,1,.56-1l.18-.2c-.3-.31-.59-.63-.88-1,0,.05,0,.09,0,.15l-.13,1-.54.23Zm7.43,4.1.34-.16c-.39-.24-.78-.5-1.16-.76l.2.47.26.61Z"/><path class="cls-1" d="M61.1,25.47l-.09.17-.08.06-.18.11-.33-.21-.33-.21h.51a1,1,0,0,1,.5.08M60.36,24l-.3-.11c-.17-.06-.3-.15-.3-.18s.14-.12.3-.18l.3-.12V24Zm-.83,2.88a.11.11,0,1,1-.23,0,.11.11,0,0,1,.23,0m0-1.27a.5.5,0,0,1-.23.37l-.23.14v-.22a.5.5,0,0,1,.23-.37l.23-.14Zm-.23-.8-.15-.15L59,24.48l.15-.15.15-.15v.6Zm-.46.37.33.21-.4.15-.4.15.14.43.14.43h-.12a2,2,0,0,1-.49-.71l-.37-.71.35.13.35.13.07-.21.07-.21Zm-1.34.91H58l-.12.48-.12.48.67-.13c.36-.07.66-.08.66,0s-.1.11-.22.11h-.22l.13.4.13.4-.19-.23-.19-.23-.68-.07a2.7,2.7,0,0,1-.75-.15s0-.29.18-.55Zm2.78.25.35-.13.11,0-.44.8h0ZM43.64,28.47a1,1,0,0,1-.22.66.86.86,0,0,1-.23.16l-.43.07a.4.4,0,0,1-.21-.37v-.4l.34.21.34.21.19-.47.19-.47Zm-.72-.78a.19.19,0,0,1-.38,0,.19.19,0,1,1,.38,0m-.75-2.63c0,.1-.15.17-.33.17a1.68,1.68,0,0,1-.85-.63L40.47,24l.85.45c.47.25.85.53.85.63m-1.88-.45L40,24.36l-.25-.25.25-.25.25-.25v1Zm-.37,1.71-.22-.45c-.12-.24,0-.11.38.3l.6.74-.2.52-.2.52.22.36.22.36.53-.44.53-.44-.26-.42a2.68,2.68,0,0,1-.3-1l0-.6H42L42,27l.07,1.26-.63.32-.63.32-.52-.19-.52-.19.2.33.2.33-1,0-1,0,.47-.17.47-.17V28l.57-.22.57-.22v-.87l-.57.47-.57.47v-.4a.85.85,0,0,1,.38-.64Zm-.72.05h-.8V27.5l-.47,0a5.28,5.28,0,0,1-.94,0l-.47-.06v1l-.36-.56-.35-.56.36-.36.36-.36L37,27l.45.45.64-1,.64-1,.26.41Zm-.42-2.07a.19.19,0,1,1-.19-.19.19.19,0,0,1,.19.19M38,24.24a2,2,0,0,1-.58.63l-.58.48-.21-.21-.21-.21.79-.42c.43-.23.79-.35.79-.26m-7,18.91-4.72.7a3.44,3.44,0,0,0-2.91-2.91l.7-4.72a8.22,8.22,0,0,1,6.93,6.93m-6.49-.44a2.33,2.33,0,1,1-3.29,0,2.32,2.32,0,0,1,3.29,0m-3.86-1-.23.21a3.46,3.46,0,0,0-.78,3.68l-4.45,1.7a8.22,8.22,0,0,1,1.87-8.75c.18-.18.36-.34.55-.5ZM14.39,56.26l.38.31a1.27,1.27,0,0,1,.38.42c0,.06-.17.11-.38.11h-.38v-.85Zm-.17,4.11.17.17-.55,0-.55,0,.38-.15.38-.15ZM14,57a.14.14,0,1,1-.14-.14A.14.14,0,0,1,14,57m0-.87c0,.07-.15.22-.33.33l-.33.2.2-.33c.11-.18.26-.33.33-.33a.13.13,0,0,1,.13.13m-.76,2.16h-.76l.19-.19.19-.19.19.19ZM12.44,60a.14.14,0,1,1-.14.14.14.14,0,0,1,.14-.14m-.14-2.43a.14.14,0,0,1-.14.14.14.14,0,1,1,.14-.14m-.29.58c0,.07-.11.13-.25.13a1.28,1.28,0,0,1-.64-.47l-.39-.48.64.34c.35.19.64.4.64.48M11.72,57c0,.07-.2.13-.45.13h-.45l.18-.29.18-.29.27.16c.15.09.27.22.27.29m-1.14.79-.19-.19-.19-.19.19-.19.19-.19v.76Zm0-1.38a.14.14,0,0,1-.14.14.14.14,0,1,1,0-.29.14.14,0,0,1,.14.14m-.28,2.68-.17-.34c-.09-.19,0-.08.29.23l.46.56-.15.39-.15.39.17.27.17.27.4-.33.4-.33-.2-.32a2,2,0,0,1-.23-.78l0-.46h.61l.05,1,0,1-.48.25L11,61l-.4-.14-.4-.14.15.25.15.25-.76,0-.76,0,.36-.13.36-.13v-.75l.43-.16.43-.16v-.66l-.43.36L9.72,60v-.3a.65.65,0,0,1,.29-.48Zm-.55,0H9.15V60l-.36,0a3.87,3.87,0,0,1-.71,0l-.36,0v.74l-.27-.43-.27-.43.27-.27.27-.27.34.34L8.4,60l.49-.74.48-.74.19.31Zm-.32-1.57a.14.14,0,0,1-.14.14.14.14,0,1,1,.14-.14m-.57,0a1.49,1.49,0,0,1-.44.48L8,58.33l-.16-.16L7.67,58l.6-.32c.33-.18.6-.27.6-.2m-1.72.73c0,.14-.21.34-.47.44l-.47.18.36-.43A1.57,1.57,0,0,1,7,58c.06,0,.11.12.11.26M6.58,60.4a.14.14,0,1,1,.14.14.14.14,0,0,1-.14-.14m1.11.71.15-.25a1.62,1.62,0,0,1,.87-.39c.4-.08.72-.1.72,0a1.65,1.65,0,0,1-.55.39,2.49,2.49,0,0,1-.88.29Zm4.61-.32.26.16.26.16.15-.36.14-.36,0,.31a.72.72,0,0,1-.17.5.66.66,0,0,1-.17.12l-.33.05a.3.3,0,0,1-.16-.28Zm.19,1.76q.38-.5.7-1l.26.08,1,.33-.09.4h-.09Zm2.1-3a.14.14,0,1,1,.14.14.14.14,0,0,1-.14-.14m.43-.43a.14.14,0,1,1,.14-.14.14.14,0,0,1-.14.14m-.16,1.17.32-.6h.62l-.16.6-.16.6.84-.17c.46-.09.84-.11.84,0s-.13.13-.28.13H16.6l.16.5.16.5-.24-.28-.24-.29-.86-.09a3.41,3.41,0,0,1-1-.19c-.05-.05,0-.37.22-.69m2.59-.74-.29.17v-.28a.63.63,0,0,1,.29-.46l.29-.18v.29a.63.63,0,0,1-.29.46m0,1.14a.14.14,0,0,1,.29,0,.14.14,0,1,1-.29,0M15.6,53.1l.33-.19a4,4,0,0,1,.69.46l.67.56-.64-.16a2.12,2.12,0,0,1-1-.56Zm-.26,4,.19-.19.19-.19v.76l-.19-.19Zm1.38-1.72a.14.14,0,1,1,.14-.14.14.14,0,0,1-.14.14m.53,2.48-.19-.19.19-.19.19-.19v.76Zm-1,1.31.17.54.17.54h-.15a2.53,2.53,0,0,1-.62-.9l-.46-.9.44.17.44.17.09-.26.09-.26.42.26.42.26-.5.19Zm-.81-4.65-.18-.29L15.12,54l.58.09a1.81,1.81,0,0,1,.73.24l.15.15-.71.32-.71.32L15,54.81l-.17-.28h.64Zm2.13-.19-.41.16.16-.41c.09-.23.27-.41.41-.41a.25.25,0,0,1,.25.25c0,.14-.19.33-.41.41M18,53.1h-.38l.19-.19.19-.19.19.19.19.19Zm.43,2.58a.14.14,0,1,1-.14.14.14.14,0,0,1,.14-.14m-.43,1s.17-.15.38-.23l.38-.15v.75l-.38-.15c-.21-.08-.38-.18-.38-.23m.43,2.15h.64a1.25,1.25,0,0,1,.63.1l-.11.21-.1.08-.23.14-.42-.26ZM18.68,60l.45-.17.14-.06-.55,1h0Zm1-3.6a.14.14,0,0,1-.14.14.14.14,0,0,1,0-.29.14.14,0,0,1,.14.14m.08-.35c-.2-.08-.37-.24-.37-.36s.16-.29.37-.37l.37-.14v1Zm.78.35a.14.14,0,0,1,.15-.14.14.14,0,0,1,0,.29.14.14,0,0,1-.15-.14m.29-1.15-.28.18.17-.44c.09-.24.22-.44.28-.44s.11.12.11.27a.61.61,0,0,1-.28.44M20,52l1.7-4.45a3.46,3.46,0,0,0,3.68-.78l.21-.23,3.66,3.05c-.16.19-.32.37-.5.55A8.22,8.22,0,0,1,20,52M36.47,29l.2-.33a2.14,2.14,0,0,1,1.15-.51c.52-.1.95-.12.95-.06a2.15,2.15,0,0,1-.73.51,3.29,3.29,0,0,1-1.16.39ZM4.63,59.57c0,.08-.13.06-.29,0s-.28-.24-.28-.32.13-.06.28,0,.29.24.29.32M67.21,22.28a.67.67,0,0,0-.62-.41H50a.67.67,0,0,0-.47.2l-5.18,5.18-3.52-3.52h-.26l.1-.16-.6-.6h0a.19.19,0,1,1,0-.38.18.18,0,0,1,.14.06l5-5a.67.67,0,0,0,.2-.47V.67A.67.67,0,0,0,44.26.19L27.33,17.12a.66.66,0,0,0-.2.47v7.23l-4.21,1.65a.66.66,0,0,0-.23.15L5.41,43.91A12.69,12.69,0,0,0,23.36,61.85L40.65,44.57a.66.66,0,0,0,.15-.23l1.65-4.21h7.22a.67.67,0,0,0,.47-.19L67.07,23a.67.67,0,0,0,.14-.73"/></g></g></svg>