<svg xmlns="http://www.w3.org/2000/svg" viewBox="0 0 64.63 64.36"><defs><style>.cls-1{fill:#414042;}.cls-2{fill:#231f20;}</style></defs><title>Asset 2</title><g id="Layer_2" data-name="Layer 2"><g id="Layer_1-2" data-name="Layer 1"><path class="cls-1" d="M29.92,39.83a.28.28,0,0,1,.28-.28.28.28,0,1,1,0,.56.28.28,0,0,1-.28-.28m.57-1.13a.28.28,0,1,1,.28.28.28.28,0,0,1-.28-.28m-.94,3.1-1.08,0-1.08,0,.74-.3.74-.29.34.34Zm-2.26-4.51H25.79l.38-.37.38-.38.38.38Zm-1.6,3.39a.28.28,0,1,1-.28.28.28.28,0,0,1,.28-.28m-.28-4.79a.28.28,0,1,1-.28-.28.28.28,0,0,1,.28.28M24.85,37c0,.14-.22.26-.5.26a2.52,2.52,0,0,1-1.27-.94l-.78-.94,1.27.68c.7.37,1.27.79,1.27.94m-.57-2.24c0,.14-.4.25-.88.25h-.88l.36-.58.36-.57.52.33c.29.18.52.44.52.57M22,36.35,21.65,36l-.38-.38.38-.38.38-.37v1.51Zm0-2.73a.28.28,0,0,1-.28.28.28.28,0,1,1,0-.56.28.28,0,0,1,.28.28m-.55,5.28-.33-.67c-.18-.37.07-.17.57.45l.9,1.11-.29.77-.3.77.33.54.33.54.79-.65.79-.65-.39-.63a4,4,0,0,1-.46-1.54l-.07-.9h1.21l.1,1.88.1,1.88-.95.49-.95.49-.78-.28-.78-.28.31.5.3.5-1.49.07-1.5.07.7-.26.7-.26V41.36l.85-.32.85-.33v-1.3l-.85.7-.85.7v-.6a1.28,1.28,0,0,1,.57-1ZM20.4,39H19.21v1.69l-.71.07a7.79,7.79,0,0,1-1.41,0l-.71-.09v1.46l-.54-.84-.53-.84.54-.54.54-.54.67.67.67.67,1-1.46,1-1.46.38.62Zm-.63-3.1a.28.28,0,1,1-.28-.28.28.28,0,0,1,.28.28m-1.13-.09a2.94,2.94,0,0,1-.86.95l-.86.71-.32-.32-.31-.32,1.17-.63c.65-.35,1.18-.52,1.18-.4m-.7-7.73-.38-.38.38-.38.38-.37v1.5Zm.68-5-1.39.63-.33-.54-.34-.54h1.26L17.47,22l-.35-.56,1.14.18a3.57,3.57,0,0,1,1.45.47l.3.3ZM20,24a.28.28,0,1,1,.28.28A.28.28,0,0,1,20,24m1.19-1.47.31-.82c.17-.45.54-.82.82-.82a.5.5,0,0,1,.5.5c0,.28-.37.65-.82.82Zm2.38-2.76h-1.5l.38-.37.38-.38.38.38Zm-2.16,1.63-1.25-.31a4.18,4.18,0,0,1-1.9-1.1l-.19-.23.65-.37a8,8,0,0,1,1.36.91Zm-5,5.21a2.5,2.5,0,0,1,.75.84c0,.12-.34.21-.75.21h-.75V26ZM15.26,37.23c0,.28-.42.66-.93.86l-.93.36.71-.86a3.1,3.1,0,0,1,.93-.86c.12,0,.21.23.21.5m-.32-9.82a.28.28,0,1,1-.28-.28.28.28,0,0,1,.28.28m0-1.73c0,.14-.29.43-.65.65l-.65.4.4-.65c.22-.36.52-.65.65-.65a.25.25,0,0,1,.25.25m-1.5,4.26H11.93l.38-.38.38-.38.38.38Zm-1.88-1.41a.28.28,0,1,1-.28-.28.28.28,0,0,1,.28.28M11,29.69c0,.14-.22.26-.5.26A2.52,2.52,0,0,1,9.22,29l-.78-.94,1.27.68c.7.37,1.27.79,1.27.94m3.14,11.84a.28.28,0,1,1,.28.28.28.28,0,0,1-.28-.28m2.19,1.41.31-.5a3.2,3.2,0,0,1,1.72-.77c.78-.15,1.42-.19,1.42-.09a3.21,3.21,0,0,1-1.09.77,4.89,4.89,0,0,1-1.73.58Zm9.09-.63.51.32.52.32.29-.71.28-.71,0,.61a1.42,1.42,0,0,1-.33,1,1.3,1.3,0,0,1-.35.24l-.65.1a.59.59,0,0,1-.32-.56Zm4.61.36c-.11-.1.09-.72.44-1.37l.63-1.18h1.22L32,41.3l-.31,1.19,1.39-.28-.3-2.1c-.12-.2-.24-.42-.36-.65l-.92-1.77.87.33.12,0-.14-1L18.3,29.9l1.52-5.19L28.49,23c.13-.23.25-.38.32-.38a.12.12,0,0,1,.07,0l1.95-7.18-20.89,2L5.64,34.71,19.82,49.53l14.31.13-.92-6.48L31.9,43A6.68,6.68,0,0,1,30,42.66"/><path class="cls-1" d="M46.81,36.69a.88.88,0,0,1-.4.65l-.4.24v-.4a.88.88,0,0,1,.4-.65l.4-.25Zm-.4-1.42L46.14,35l-.27-.27.27-.27.27-.26v1.07Zm-.81.66.59.37-.7.27-.7.27.24.75.24.75H45a3.54,3.54,0,0,1-.87-1.26l-.65-1.26.62.23.61.24.13-.36.13-.37Zm-2.36,1.61h.86l-.22.85-.22.84L44.84,39c.64-.13,1.17-.15,1.17,0s-.18.19-.39.19h-.39l.22.7.23.7-.34-.4-.34-.4-1.2-.13a4.72,4.72,0,0,1-1.33-.26c-.07-.07.07-.51.31-1Zm0-1a.2.2,0,1,1-.2-.2.2.2,0,0,1,.2.2m-.4.8a.2.2,0,1,1-.2-.2.2.2,0,0,1,.2.2m-.67,1.4-.77,0-.77,0,.52-.21.53-.21.24.24Zm-1.6-3.2H39.48l.27-.27L40,35l.27.27Zm-1.33,3.55.36.23.37.22.2-.5.2-.5,0,.43a1,1,0,0,1-.23.7.92.92,0,0,1-.24.17l-.46.07a.42.42,0,0,1-.23-.4Zm.87,3.24c0-.15.25-.12.56.07s.56.48.56.63-.25.13-.56-.07-.56-.48-.56-.63m6.33-3.4a.2.2,0,1,1,.2.2.2.2,0,0,1-.2-.2m3-7.52L34.38,36.86,36,49.65h9Z"/><path class="cls-1" d="M30.18,32.63l-.46-.16.14.23Zm5.88-2.45a.18.18,0,1,1-.18-.18.18.18,0,0,1,.18.18m-.36.74a.18.18,0,1,1-.18-.18.18.18,0,0,1,.18.18m-2.93.73a.18.18,0,1,1-.18-.18.18.18,0,0,1,.18.18m3.7-1.92-.11-.21.1,0L35.52,8.12l-9.37.76-.63,6L32,14.33,30.33,24.8l-2.82.44.4,5.43.11-.16.62-.95.25.4.25.4h-.78v1.1l-.39,0,0,.57c.4-.06.71-.08.71,0a2,2,0,0,1-.68.48l0,.5,1-.19v-.93l.55-.21.55-.21v-.85l-.55.46-.55.46v-.39a.83.83,0,0,1,.37-.62l.37-.23-.22-.43c-.12-.24,0-.11.37.29l.58.72-.19.5-.19.5.22.35.19.31.11,0,.43-.36.52-.42-.25-.41a2.61,2.61,0,0,1-.3-1l0-.59h.79L31.91,31,32,32.2l-.28.15,2.82-.54.13-.05,0,0,1.18-.22.24-.46h.43Z"/><path class="cls-1" d="M42.49,25.59a.28.28,0,0,1-.54-.15.28.28,0,1,1,.54.15m-.93,1.28-.46.41a1.08,1.08,0,0,1-.69.35c-.13,0-.13-.45,0-.91l.24-.85.46.5Zm-.47-8.65c0,.11-.28.14-.54.07S40,17.7,40,17.15l-.09-1,.63.92a3.08,3.08,0,0,1,.57,1.13m-1.21,1.6.39-.22.39-.22.28,1.3c.15.72.18,1.28.06,1.24a2.94,2.94,0,0,1-.67-1.09ZM40.59,23a.28.28,0,0,1-.19-.35.28.28,0,1,1,.19.35m-1.08,2,.47-.26.46-.26.26.47.26.46-.72-.21Zm4.86-14.88-7.47-1.8.57,22.79,5.76-1Z"/><path class="cls-1" d="M48.92,17a.15.15,0,1,1,0-.21.15.15,0,0,1,0,.21m-.39-.94-.59.49-.59.49.19-.37.19-.36.39-.13ZM47.17,19.7a.15.15,0,0,1-.22,0,.15.15,0,1,1,.22,0m-.39-.87-.31.26-.31.26,0-.29,0-.29.29,0Zm4.57-3-6.08-2.18L44.25,29l.06.93,5.13-.43Z"/><polygon class="cls-1" points="25.13 10.91 12.6 12.24 12.35 16.16 24.75 14.9 25.13 10.91"/><path class="cls-1" d="M3.18,28.67C1.37,47.38,14.78,59.81,29.33,61.17A29.15,29.15,0,0,0,61.46,34.64a29.53,29.53,0,0,0-14.2-28c-5.16-3-11.09-4.4-19.05-3.36C15.11,5,4.53,14.73,3.18,28.67m25-28.4c19.76-2.37,34.5,11.2,36.24,28C67.11,54,39.85,72.44,17.38,60.8a31.23,31.23,0,0,1-17.19-25A31.92,31.92,0,0,1,28.21.27"/><polygon class="cls-1" points="20.86 51.17 19.44 60.86 32.5 62.15 45.74 60.86 44.6 51.17 20.86 51.17"/><path class="cls-2" d="M40.08,42.69a.28.28,0,1,1-.28-.28.28.28,0,0,1,.28.28"/></g></g></svg>