<svg xmlns="http://www.w3.org/2000/svg" viewBox="0 0 64.63 64.36"><defs><style>.cls-1{fill:#414042;}</style></defs><title>Asset 8</title><g id="Layer_2" data-name="Layer 2"><g id="Layer_1-2" data-name="Layer 1"><path class="cls-1" d="M3.18,28.67C1.37,47.38,14.78,59.81,29.33,61.17A29.15,29.15,0,0,0,61.46,34.64a29.53,29.53,0,0,0-14.2-28c-5.16-3-11.09-4.4-19.05-3.36C15.11,5,4.53,14.73,3.18,28.67m25-28.4c19.76-2.37,34.5,11.2,36.24,28C67.11,54,39.85,72.44,17.38,60.8a31.23,31.23,0,0,1-17.19-25A31.92,31.92,0,0,1,28.21.27"/><path class="cls-1" d="M49.37,37.74c-1.92,1.85-7.4,1.43-9.32-.73-1.08-1.21-1.33-3-1.24-5.18,1.35-1.91,3.75-3.74,7.15-2.69,2.5.77,6.28,5.82,3.42,8.6M41.25,20.83a.18.18,0,1,1-.18.18.18.18,0,0,1,.18-.18M41.79,19a.77.77,0,0,1-.36.56l-.36.22.22-.56c.12-.31.28-.56.36-.56s.14.15.14.34m-1.24,1.75-.46-.18c-.26-.1-.47-.31-.47-.46s.21-.37.47-.46l.46-.18v1.29Zm-.75.44a.18.18,0,0,1,0-.36.18.18,0,1,1,0,.36m-.63,2.91a1.61,1.61,0,0,1,.8.13l-.14.26-.13.1-.29.18-.53-.33-.53-.33Zm-.39-2.25-.48-.18c-.27-.1-.48-.23-.48-.29s.22-.19.48-.29l.48-.19v.95Zm-.24-1.56a.18.18,0,1,1-.18-.18.18.18,0,0,1,.18.18m-.24-3.44h-1l.24-.24.24-.24.24.24Zm-.81.73a.32.32,0,0,1,.32.32c0,.18-.24.42-.53.53l-.52.2.2-.53c.11-.29.35-.52.53-.52m-.58.32-.81-.2A2.7,2.7,0,0,1,34.87,17l-.12-.15.42-.24a5.1,5.1,0,0,1,.88.59Zm-2.32.76-.22-.36-.22-.36.73.11a2.3,2.3,0,0,1,.93.3l.19.19-.9.41-.89.41L34,19l-.22-.35h.81Zm-.89,2.59a1.62,1.62,0,0,1,.48.54c0,.08-.22.14-.48.14h-.48V20.85ZM33,26.05l.22.22-.7,0-.69,0L32.3,26l.48-.19Zm-.26-4.31a.18.18,0,0,1-.18.18.18.18,0,1,1,0-.36.18.18,0,0,1,.18.18m0-1.11c0,.09-.19.28-.42.42l-.42.26.26-.42c.14-.23.33-.42.42-.42a.16.16,0,0,1,.16.16m-1,2.74h-1l.24-.24.24-.24.24.24Zm-1,2.18a.18.18,0,1,1-.18.18.18.18,0,0,1,.18-.18m-.18-3.08a.18.18,0,1,1-.36,0,.18.18,0,0,1,.36,0m-.36.74c0,.09-.14.17-.32.17a1.62,1.62,0,0,1-.82-.6l-.5-.6.82.43c.45.24.82.51.82.6m-.36-1.44c0,.09-.25.16-.56.16H28.7l.23-.37.23-.37.34.21c.18.11.34.28.34.37m-1.45,1-.24-.24-.24-.24.24-.24.24-.24v1Zm0-1.75a.18.18,0,0,1-.18.18.18.18,0,1,1,0-.36.18.18,0,0,1,.18.18M28,24.41,27.82,24c-.12-.24,0-.11.36.29l.58.71-.19.5-.19.5.21.35.21.35.51-.42.51-.42-.25-.41a2.59,2.59,0,0,1-.29-1l0-.58H30l.07,1.21.06,1.21-.61.31-.61.31-.5-.18-.5-.18.2.32.2.32-1,0-1,0,.45-.17.45-.17V26l.54-.21.54-.21v-.84l-.54.45-.54.45v-.39a.82.82,0,0,1,.37-.61Zm-.69.05h-.77v1.09l-.45,0a5,5,0,0,1-.9,0l-.45-.06v.94l-.34-.54-.34-.54.35-.35.35-.35.43.43.43.43.62-.94.61-.94.24.4Zm-.41-2a.18.18,0,1,1-.18-.18.18.18,0,0,1,.18.18m-.72-.06a1.91,1.91,0,0,1-.55.61l-.55.46-.2-.2-.2-.2.76-.4c.42-.22.76-.34.76-.25M24,23.33c0,.18-.27.43-.6.55l-.6.23.46-.55a2,2,0,0,1,.6-.55c.08,0,.14.15.14.32M25.12,27h-.4l.2-.32A2.06,2.06,0,0,1,26,26.18c.5-.1.91-.12.91-.06a2.06,2.06,0,0,1-.7.49,3.15,3.15,0,0,1-1.11.38m2.4,4.94c0,4.72-1.11,9.23-5.28,9.32-2.68.06-4.93-1.57-7.66-1.86.32-2.46-.48-5.09.1-6.94.48-1.51,3.09-2.2,4.76-2.38,3.2-.34,5.9,1,8.08,1.86m3.88-4.83a.82.82,0,0,1-.22.15l-.42.07a.38.38,0,0,1-.21-.36v-.38l.33.21.33.21.18-.46.18-.46,0,.39a.91.91,0,0,1-.21.63m-1.7,20c.15-3.24,1.4-5.36,2.59-7.56,2.39,1.79,4.74,3.61,4.56,8-2.15,1-5.61,1.58-7.15-.41m6.9-24.52.24-.24.24-.24v1l-.24-.24Zm-1.93-.48-.24-.24.24-.24.24-.24v1Zm-.46,3H35l-.2.77-.2.76,1.06-.21c.58-.12,1.06-.13,1.06,0s-.16.17-.35.17H36l.2.63.21.63-.31-.36-.31-.36-1.09-.12a4.25,4.25,0,0,1-1.21-.24c-.07-.07.06-.46.28-.88ZM33.82,25a.18.18,0,1,1-.18-.18.18.18,0,0,1,.18.18m0-.73a.18.18,0,1,1,.18.18.18.18,0,0,1-.18-.18m2.36-4.53a.18.18,0,1,1,.18-.18.18.18,0,0,1-.18.18m.7,4.31-.64.24-.63.24.21.68.22.68h-.2a3.21,3.21,0,0,1-.79-1.14l-.59-1.14.56.21.56.21.11-.33.11-.33.53.33Zm.2.95-.36.22v-.36a.8.8,0,0,1,.36-.59l.36-.22v.36a.8.8,0,0,1-.36.59m0,1.45a.18.18,0,1,1,.18.18.18.18,0,0,1-.18-.18m1.57-.88.56-.22.18-.07-.7,1.28h0Zm15.9,10.51a15.89,15.89,0,0,1,0-2.38c-.24-3-1.13-5.72-1.35-8.6-.31-4.09-.78-7.1-2.28-9.74a15.71,15.71,0,0,0-6.21-5.8C39.84,7,31.83,5.67,23.9,6.26c-6.17.45-9.89,4.61-12.22,9-.91,1.72-2.34,4.25-2.49,6.11a20.68,20.68,0,0,0,.31,3.31c.11,1.09.2,2.26.31,3.31a46.71,46.71,0,0,1,.72,6.52,37.9,37.9,0,0,1-1,5.18c-.33,1.74-.75,3.46-.93,5.39A93.29,93.29,0,0,1,25,56c.66.55,1.66,1.73,2.28,1.66,1-.12,1.22-2.07,1.66-2.49,1.51.94,2.5,2.4,4.25,3.11.94-.62,1-2.07,1-3.62,1.16.43,2.2,3.22,3.52,3,1-.17.87-2,1.14-3.21A7.45,7.45,0,0,1,41.71,56c.67.48,1.77,1.84,2.8,1.66.81-.14.57-.91.93-1.86.17-.44.54-.66.62-.93.42-1.35.44-3.24.83-4.87s.84-3.3,1.66-4.14a10.63,10.63,0,0,1,1.86-1.24c2.09-1.42,3.51-2.34,5.49-3.93.7-2.61-1-3.21-1.35-4.56"/></g></g></svg>