<svg xmlns="http://www.w3.org/2000/svg" viewBox="0 0 64.63 64.36"><defs><style>.cls-1{fill:#414042;}</style></defs><title>Asset 10</title><g id="Layer_2" data-name="Layer 2"><g id="Layer_1-2" data-name="Layer 1"><path class="cls-1" d="M17.79,12.35v.33l-.17-.17-.17-.17.17-.17.17-.17Zm-.51-.1c0,.05-.15.1-.33.1h-.34V11.6l.34.28a1.11,1.11,0,0,1,.33.37m-1,0a.13.13,0,1,1-.12-.13.13.13,0,0,1,.13.13m0-.77c0,.06-.13.19-.29.29l-.29.18.18-.29c.1-.16.23-.29.29-.29a.11.11,0,0,1,.11.11m-.67,1.9h-.67l.17-.17.17-.17.17.17Zm-.71,1.51a.13.13,0,1,1-.13.13.13.13,0,0,1,.13-.13m-.13-2.14a.13.13,0,1,1-.13-.13.13.13,0,0,1,.13.13m-.25.51c0,.06-.1.12-.22.12a1.12,1.12,0,0,1-.57-.42l-.35-.42.57.3c.31.17.57.35.57.42m-1,1.24-.13.35-.13.35.15.24.15.24.35-.29.35-.29-.18-.28a1.8,1.8,0,0,1-.2-.69l0-.4h.54l0,.84,0,.84-.42.22-.42.22-.35-.12-.35-.13.14.22.14.22-.67,0-.67,0,.31-.11.31-.12v-.66l.38-.14.38-.15V14.3l-.38.31-.38.31v-.27a.57.57,0,0,1,.26-.43l.26-.16-.15-.3c-.08-.16,0-.07.25.2Zm-1.27.8a1.42,1.42,0,0,1-.49.34,2.18,2.18,0,0,1-.77.26h-.28l.14-.22a1.43,1.43,0,0,1,.77-.34c.35-.07.63-.08.63,0m6-2.89c-1.54-1.73-3-1.48-4.33-.48L14,12c.13.08.23.19.23.26s-.18.11-.39.11h-.39l.14-.23c-.12.1-.24.22-.36.33v.49l-.17-.17L13,12.68c-.63.59-1.26,1.28-1.89,2l.22.22.43-.65.43-.65.17.28.17.28H12v.75l-.32,0a3.38,3.38,0,0,1-.63,0l-.15,0-.17.17v.46l-.17-.27-.42.43c-2.66,2.66-6.44,5.28-3.23,7.85a108.86,108.86,0,0,0,7.87-7.58.27.27,0,0,1,0-.07v-.27l.21.13c1.08-1.12,2.16-2.24,3.26-3.34"/><path class="cls-1" d="M46.64,12.78l.06.06v-.15h0l-.06.1M51.5,14.7l-.1.19L51.3,15l-.21.13-.37-.24-.37-.24h.58a1.15,1.15,0,0,1,.57.09M50.65,13l-.34-.13c-.19-.07-.34-.17-.34-.21s.15-.13.34-.21l.34-.13V13Zm-.08,2.65.4-.15.13,0-.5.91h0Zm-1.12-1.74-.17-.17-.17-.17.17-.17.17-.17v.69Zm-.52-2.53a.13.13,0,1,1-.13-.13.13.13,0,0,1,.13.13m-1,2-.17-.17-.17-.17.17-.17.17-.17v.69Zm6.49,2.35a35.25,35.25,0,0,0-3.93-3.82.12.12,0,0,1-.11.09.13.13,0,0,1-.13-.13.13.13,0,0,1,0-.09c-1.28-.84-2.51-1-3.42.61l.2.16a1.14,1.14,0,0,1,.34.38c0,.05-.15.1-.34.1h-.11c.5.46,1,.93,1.48,1.41l0-.13.08-.24.38.24.38.24-.45.17-.1,0,.43.41v-.05a.57.57,0,0,1,.26-.42l.26-.16v.26a.57.57,0,0,1-.26.42l-.13.08a113.16,113.16,0,0,0,8.44,8.18c3.26-2.51-1-5.33-3.38-7.75"/><path class="cls-1" d="M21.21,15.76C17.46,19.22,14,23,10.29,26.49c-1-.39-1.51-1.27-2.18-2,3.26-4,7.3-7.27,10.73-11.12a5.54,5.54,0,0,1,2.38,2.38"/><path class="cls-1" d="M46.81,16.28l-.27.52a1.48,1.48,0,0,1-.36.52h-.09l.1-.31.1-.31L46,16.58l-.29-.11.24-.15.24-.15.05.15.05.15.25-.1Zm-.7-1.86a.08.08,0,0,1-.17,0,.08.08,0,1,1,.17,0m-.28,1.41-.11.11-.11.11v-.44l.11.11Zm-.22.74a.36.36,0,0,1,.17.27V17l-.17-.1a.36.36,0,0,1-.16-.27v-.16Zm-.16,1a.08.08,0,0,1,.08-.08.08.08,0,0,1,0,.16.08.08,0,0,1-.08-.08m-.17-2.32s-.1.08-.22.13l-.22.08V15l.22.09c.12,0,.22.11.22.13m-.17-.5a.08.08,0,1,1-.16,0,.08.08,0,1,1,.16,0m-.66.33a.08.08,0,1,1-.08-.08.08.08,0,0,1,.08.08M56.77,24.3S54,21.72,54,21.72l-7.67-7.67-.21-.1.06-.06-.28-.28-.19,0,.13-.11-.18-.18-.16.17a.39.39,0,0,1,.18.21l.09.24-.24-.09a.41.41,0,0,1-.2-.17l-.87,1a.28.28,0,0,1-.14.16l-.84.91.85.82v0a.72.72,0,0,1,.36-.06H45l-.24.15-.24.15,0,0,1.42,1.37.07-.21.09-.29h-.16c-.09,0-.16,0-.16-.08s.22,0,.49,0l.49.1-.09-.35L46.57,17h.36l.18.35c.1.19.16.37.13.4a2,2,0,0,1-.55.11l-.49.05-.14.17-.09.11,8.63,8.32Z"/><path class="cls-1" d="M3.18,28.67C1.37,47.38,14.78,59.81,29.33,61.17A29.15,29.15,0,0,0,61.46,34.64a29.53,29.53,0,0,0-14.2-28c-5.16-3-11.09-4.4-19.05-3.36C15.11,5,4.53,14.73,3.18,28.67m25-28.4c19.76-2.37,34.5,11.2,36.24,28C67.11,54,39.85,72.44,17.38,60.8a31.23,31.23,0,0,1-17.19-25A31.92,31.92,0,0,1,28.21.27"/><path class="cls-1" d="M47,25A2.06,2.06,0,1,1,45,22.94,2.06,2.06,0,0,1,47,25M46,19.8a.14.14,0,0,1-.29,0,.14.14,0,0,1,.29,0m-.58,0c0,.08-.13.14-.28.14h-.28l.16.51.16.51-.24-.29-.24-.29-.86-.09a3.39,3.39,0,0,1-1-.19c-.05-.05,0-.37.22-.7l.32-.6H44l-.16.61L43.7,20l.85-.17c.47-.09.85-.11.85,0M35.11,41.64l.29.31-.36.15-.36.15v-.42c0-.23,0-.44.07-.46s.21.11.37.28M33.92,41l-.37.15-.37.15.11-.26.11-.26.26.11Zm-.1-4a.13.13,0,0,1-.07.17.74.74,0,0,1-.45-.19L33,36.84l.4.07c.22,0,.42.12.45.19m-.83.32a.15.15,0,0,1-.08.19.15.15,0,1,1-.11-.28.15.15,0,0,1,.2.08m.19,1.79.11-.26.26.11.26.11-.37.15-.37.15ZM32.91,38l.41-.16.41-.16-.15.49a1.33,1.33,0,0,1-.26.53c-.06,0-.17-.12-.25-.32Zm2.57,1.58a.15.15,0,0,1,.08-.19.15.15,0,1,1-.08.19m0,3.21a.15.15,0,1,1,.19.08.15.15,0,0,1-.19-.08m.3-1.24a.15.15,0,0,1-.19-.08.15.15,0,0,1,.08-.19.15.15,0,0,1,.11.28m.15,2.35a.15.15,0,1,1,.27-.11.15.15,0,1,1-.27.11m.61-.87-.49.2v-.41a.55.55,0,0,1,.21-.5c.12,0,.34,0,.5.21l.28.3Zm.41.3h.49c.27,0,.51,0,.54.1s-.07.16-.22.21a.63.63,0,0,1-.54-.1Zm.58-3.42a.27.27,0,0,1-.15.34.62.62,0,0,1-.56-.24l-.32-.34H37a.62.62,0,0,1,.56.24m-5.31-5.23-.06.32a.57.57,0,0,1-.18.37c-.07,0-.2-.14-.3-.38l-.17-.43.35.06Zm-.71-.4-.37.15-.37.15.11-.26.11-.26.26.11Zm-.53.82.31-.57-.08.76a1.68,1.68,0,0,1-.21.81c-.07,0-.17-.06-.22-.19a1.33,1.33,0,0,1,.21-.8m-.15,4.11a.15.15,0,0,1-.08.2.15.15,0,1,1,.08-.2m-.19-6a.15.15,0,1,1-.19-.08.15.15,0,0,1,.19.08m-.26-.37a1.54,1.54,0,0,1-.63-.23l-.52-.28.09-.22.09-.22.54.45c.3.25.49.47.43.5m-1.17-1.57c0,.06-.07.15-.2.2s-.41-.07-.6-.28l-.36-.38.56.18a1.63,1.63,0,0,1,.6.28m-1.38,1,.37.16L28,32.9l-.2.46.9.18.9.18L29.4,34l-.23.31L29.06,34l-.12-.29-.42.17-.41.17-.17-.33a4.16,4.16,0,0,1-.27-.69l-.1-.36-.36.14-.36.14.3-.43.31-.43Zm0-.5a.23.23,0,1,1-.3-.13.23.23,0,0,1,.3.13m-1.1,1.39a1.69,1.69,0,0,1,.72.69c.23.35.37.66.32.68a1.68,1.68,0,0,1-.59-.38,2.6,2.6,0,0,1-.63-.73l-.12-.31Zm0,1.31.27.29.26.29.36-.15.36-.15.33.35.33.35.32-.13.32-.13-.51-.28-.51-.27.29-.12a.67.67,0,0,1,.58.09l.29.21.26-.29c.14-.16.1,0-.11.37l-.37.66h-.87l-.2.27-.2.27.48.26.48.26.23-.32a2.13,2.13,0,0,1,.66-.53l.43-.21.12.3.12.29-.9.42-.9.42-.42-.37-.42-.37,0-.44,0-.44-.18.25-.18.25-.33-.72Zm2.37,2.89a.15.15,0,1,1,.28-.11.15.15,0,0,1-.28.11m.39,1.23.29.3-.1.23-.1.23-.19-.54-.19-.54Zm1.56-2,.26.11.26.11-.11.26-.11.26L31.22,37Zm.16,2.77a.15.15,0,1,1,.19.08.15.15,0,0,1-.19-.08m.46-3.24a.15.15,0,0,1-.19-.08.15.15,0,1,1,.19.08m-7.76-6.05a.94.94,0,0,1-.31.63c-.12,0-.17-.16-.12-.45a.93.93,0,0,1,.31-.62c.12,0,.17.15.12.45M21.37,25a2.06,2.06,0,1,1-2.06-2.06A2.06,2.06,0,0,1,21.37,25m.37,25.4a2.06,2.06,0,1,1-2.06-2.06,2.06,2.06,0,0,1,2.06,2.06m21.16,0A2.06,2.06,0,1,1,45,52.47a2.06,2.06,0,0,1-2.06-2.06M53.79,27.28c-2.63-2.56-5.58-5.38-8.34-8.14l-.89-.88-.05,0,.17.54.17.54H44.7a2.57,2.57,0,0,1-.63-.91l-.47-.91.39.15c-.68-.67-1.32-1.31-1.33-1.34L34.72,24.7c.61.65,1,1.47,2,1.79,1.75-.85,2.2-.44,3.77-.4a96.75,96.75,0,0,1-8.34,8.14c-2.43-2.86-6-5.64-7.95-8.34,1.59-1.19,5,.94,6-1.19.12,0-8.15-8.2-8.34-8.34.13.14-10.66,11.22-10.73,11.13s8.12,8,8.15,7.95c.65-.61,1.47-1.05,1.79-2a4.77,4.77,0,0,1-.2-3.77c1.37,1.3,2.55,2.35,4.17,4,.53.53,4,3.59,4,4.17a1.42,1.42,0,0,1-.23.26h.5l-.29.14a.76.76,0,0,1-.41.05c-.51.51-1.3,1.26-1.37,1.33-2.14,2.15-4,3.83-5.76,5.56-3.49-1.61-6,3.67-8.34,5.76.82,1.25,1.37.52,2.18.4A4.3,4.3,0,0,0,19,54.89c-.8,1-.75,1.31.2,2.18,2-2.43,7.31-4.34,5.56-8.54,2.63-2.33,4.92-5,7.55-7.35q3.9,3.65,7.55,7.55c-.64.15-.47,1.12-.79,1.59,1.68,2.69,4.19,4.55,6.36,6.75,1.28-.81.59-1.57.4-2.38,2.29-.1,3.19-1.57,3.58-3.58,1,.8,1.31.75,2.18-.2-2.06-1.7-5.14-7.77-8.34-5.76-.11,0-2.21-2.21-3.77-3.78-.27-.27-1.37-1.14-2.31-2l-.07.21,0-.31c-.22-.21-.43-.41-.62-.6a.65.65,0,0,1,0,.22l-.09.21-.58-.56L35.17,38l.2-.27.2-.27.13.31.12.31.06-.08a.78.78,0,0,1-.16-.38c0-.26-.08.1,2.18-2,2.29-2.28,6.23-6.22,6.36-6.16,1.21,2.14-1.1,5.39,1.39,6.16,2.6-2.9,5.55-5.45,8.15-8.34"/></g></g></svg>