<svg xmlns="http://www.w3.org/2000/svg" viewBox="0 0 61.29 61.29"><defs><style>.cls-1{fill:#414042;}.cls-2{fill:none;stroke:#414042;stroke-width:3.71px;}</style></defs><title>Asset 6</title><g id="Layer_2" data-name="Layer 2"><g id="Layer_1-2" data-name="Layer 1"><path class="cls-1" d="M53.75,32.14a.17.17,0,0,0,.06.1.13.13,0,0,0-.06-.1m-.1,2.72V34.8h0Zm-.17-2.42v-.08h0Zm-.1-.86a.13.13,0,0,0,.1.07ZM53,31.45a.22.22,0,0,0,.1.08Zm-.27-.1,0,.1h.08l.1-.1Zm-.24.65v.27l.24,0Zm-.07-.2.07.14a.2.2,0,0,0-.07-.14m-.06-.47a.18.18,0,0,0,.13.06Zm-.08-.41a.12.12,0,0,0,.08.06.09.09,0,0,0-.08-.06m-.23-2L52,29.1a.1.1,0,0,0,.1.06l.1-.23Zm-.38.58h.08v-.06h0Zm-.17-.58a.16.16,0,0,0,.1.1.16.16,0,0,0-.1-.1m0-.24a.2.2,0,0,0,.14.14.23.23,0,0,0-.14-.14m0-.47a.28.28,0,0,0,.14.14.23.23,0,0,0-.14-.14m-.06,1.09a.16.16,0,0,0,.1.08.16.16,0,0,0-.1-.08m-.2.34-.17.45-.08.35.14-.08a.53.53,0,0,0,.24-.27,1.35,1.35,0,0,0-.14-.45M50.88,29v-.06h0Zm0-1.53-.08.14,0,.06.1-.06Zm-.24.51a.52.52,0,0,0,.24.14.76.76,0,0,0-.24-.14m-.07,1.33s.06,0,.07-.06Zm0,.45a.82.82,0,0,0,.2.27.29.29,0,0,0-.2-.27m-.17.55a.26.26,0,0,0,.17.1.3.3,0,0,0-.17-.1M50.33,27l0,.14.13,0a.2.2,0,0,0-.1-.1m-.13,2.6a.3.3,0,0,0,.07.18.27.27,0,0,0-.07-.18M50,27.4a.17.17,0,0,0,.14.06Zm-.24,2.25,0,.14,0-.14Zm0-3.35a.19.19,0,0,0,.1.14.23.23,0,0,0-.1-.14m0,.31a.7.7,0,0,0,.21.31.7.7,0,0,0-.21-.31m-.1,1s0,.06.06.06a.12.12,0,0,0-.06-.06m-.1-1a.13.13,0,0,0,.1.06l-.1-.06m-.1-.45a.63.63,0,0,0,.1.28.63.63,0,0,0-.1-.28m-.14,1.16,0,.17.1,0a.34.34,0,0,0-.1-.21Zm-.55-1.8a.36.36,0,0,0,.14.1.24.24,0,0,0-.14-.1m0,3.4a.46.46,0,0,0,.2.1.78.78,0,0,0-.2-.1m-.1.35h.08v-.06h0Zm-.06-3.54a.12.12,0,0,0,.06.06s0-.06-.06-.06m.31.1-.06.23-.34,0-.06.27.17,0,.49-.08a1.6,1.6,0,0,0-.18-.43m-.58,2.69a.44.44,0,0,0,.2.24.23.23,0,0,0-.2-.24m.17-1.8-.17.06V27l.1,0a1,1,0,0,0,.21-.35Zm-.24.78,0,.45v-.45Zm-.2-1.36-.06.13.14,0a.23.23,0,0,0-.08-.17m-.23.17v-.06h0Zm-.08,2a.24.24,0,0,0,.1.13.19.19,0,0,0-.1-.13m-.31-1.1.14.49V28l.14,0-.08-.9Zm0-1.29a.27.27,0,0,0,.14.17.23.23,0,0,0-.14-.17m-.13,2.6a.2.2,0,0,0,.1.1.15.15,0,0,0-.1-.1m-.1-1.23,0,.13.06,0v-.1ZM47,26.64a.36.36,0,0,0,.14.21.26.26,0,0,0-.14-.21m-.1,1.57a.23.23,0,0,0,.08.1.12.12,0,0,0-.08-.1m0-.55a.73.73,0,0,0,.27.21,1,1,0,0,0-.27-.21m0-2.19-.08.1,0,.31a.47.47,0,0,0,.24.18A.15.15,0,0,0,47,26l.06-.28a.22.22,0,0,0-.17-.21m-.1,2a.16.16,0,0,0,.07.1.16.16,0,0,0-.07-.1M47,24.84a.92.92,0,0,0-.2.23l0,.18,0,.06.06.06a.37.37,0,0,0,.18-.17v-.37Zm-.55-.41a.29.29,0,0,0,.1.06.13.13,0,0,0-.1-.06m-.13,2.83v.07l.06,0ZM46.07,25a.23.23,0,0,0,.1.17.27.27,0,0,0-.1-.17m-.35,1.06c0,.12,0,.26-.06.41l.2-.08.13-.23Zm-.1-.1v-.08h0Zm-.51-2.35a.81.81,0,0,0,.06.2l.28,0a.39.39,0,0,0-.35-.17m-.65,8h.41l.1.35a1.17,1.17,0,0,1-.51-.35m0-11a1.64,1.64,0,0,0,.08.37.61.61,0,0,0,.23.18,1.23,1.23,0,0,0-.06-.38.5.5,0,0,0-.24-.17m1.3,6a1.47,1.47,0,0,1-.31.51,4,4,0,0,1-.45.35l-.47.31a1.63,1.63,0,0,0-.14.37l.24,0a2,2,0,0,0,.47-.31,1,1,0,0,1,.45-.35.69.69,0,0,0,.33-.35l0-.1,0-.27V26.6ZM44.33,50a.26.26,0,0,0,.23.27,1.84,1.84,0,0,0,.38-.1V50a.46.46,0,0,0-.24.1Zm0-28.63,0,.41a.63.63,0,0,0,.1.33v-.68a.09.09,0,0,0-.08-.07m-.13,12.38,0,.17.17,0a.23.23,0,0,0-.13-.14m0,15.74v-.07h0Zm0-25.84v.21a.31.31,0,0,0,.1-.17Zm0-3.31.14.1a.36.36,0,0,0-.14-.1m0,3.93a.31.31,0,0,0,.17.1.31.31,0,0,0-.17-.1m-.08.82.08.1a.16.16,0,0,0-.08-.1m0-1.91a.28.28,0,0,0,.24.27.73.73,0,0,0-.24-.27m-.1,2.25v-.06h0ZM44,49.82l-.14.41.17.06a1.64,1.64,0,0,0,.1-.45Zm-.18.64a.23.23,0,0,0,.14.14.23.23,0,0,0-.14-.14m.28-20.16a1.43,1.43,0,0,0-.28.21l.1.33a.78.78,0,0,1,.24.21l.27-.1a1,1,0,0,0,.2-.27l-.1,0-.37.1v-.06l.1-.14a.62.62,0,0,0-.17-.23m-.21-.38a.51.51,0,0,0-.14.2l.24,0,.23-.06a.78.78,0,0,0-.33-.18m0-3.07a2.51,2.51,0,0,0-.14.47.76.76,0,0,0,.27.28l.1-.14L44,27.26l0-.41Zm-.14,2.32,0,.31.1,0,.08,0,0-.23Zm0-7-.1.31.2,0,.1-.27Zm-.17,3.89a.27.27,0,0,0,.27.2.28.28,0,0,0-.27-.2m-.08,7.74a.38.38,0,0,0,.1.18.28.28,0,0,0-.1-.18m0-3.1a.38.38,0,0,0,.1.17.24.24,0,0,0-.1-.17m0-13,.07.47a.47.47,0,0,0,.2.2l0-.35-.08-.1a.75.75,0,0,0-.23-.23m0,7.78.06.17.14-.06Zm0,10.44a.16.16,0,0,0,.14.1.36.36,0,0,0-.14-.1m.24-19.34-.17.13a1,1,0,0,0,.1.35l-.18.2.08.27a4.28,4.28,0,0,0,.31-.41,1.56,1.56,0,0,0-.14-.54m-.24,10.58,0,.31h.13l0-.31Zm.08-2.12-.1.18v.1l.1,0,.1-.17a.17.17,0,0,0-.1-.08m0-8.63-.1.14.23,0a.28.28,0,0,0-.13-.18m-.14,5.81,0,.17,0-.13Zm0,15a.25.25,0,0,0,.14.1.35.35,0,0,0-.14-.1m0-13.85,0,.79a2.81,2.81,0,0,0,.1.51,4.43,4.43,0,0,0,.1-.72l0-.38a.65.65,0,0,0-.14-.2m-.14,10.68a.36.36,0,0,0,.18.18.37.37,0,0,0-.18-.18m0-6.45a.24.24,0,0,0,.1.14.19.19,0,0,0-.1-.14m.14-12.79-.14.33.18.72a.88.88,0,0,0,.17.31.68.68,0,0,0,.06-.31l-.17-.74a.5.5,0,0,0-.1-.31m-.17,5.86a.27.27,0,0,0,.13.18l-.1.31a.5.5,0,0,0,.31.35.38.38,0,0,0,.1-.18l-.13-.27a.66.66,0,0,0-.31-.38m0-.82a.2.2,0,0,0,.06.14.2.2,0,0,0-.06-.14m0,5.57a.24.24,0,0,0,.1.18.24.24,0,0,0-.1-.18m0,6.26a.31.31,0,0,0-.06.21l.17,0,.1-.14ZM43.1,20.12a.19.19,0,0,0,.06.14.19.19,0,0,0-.06-.14m0,13.15,0,.23.14,0,.06,0a.4.4,0,0,0-.17-.23m0,17,0,.31.1,0,0-.23ZM43,50a.17.17,0,0,0,.14.06Zm0-25.43,0,.1,0-.1Zm0-.64v.31l.1,0a.43.43,0,0,0-.1-.27m0-4.44,0,.23.2,0,.08-.21ZM43,36.1a.36.36,0,0,0,.13.17A.35.35,0,0,0,43,36.1M43,32a.27.27,0,0,0,.27.23A.55.55,0,0,0,43,32m-.08,1.74-.06.27.2,0,0-.28ZM42.86,20.5a.79.79,0,0,0,.1.37l0-.37Zm0-1.54a2,2,0,0,0,.17.33.43.43,0,0,0,.2-.06l.08-.24Zm0-.89,0,.79.13,0,0-.47a1.1,1.1,0,0,0-.2-.28m-.1-.68a.18.18,0,0,0,.1.14.19.19,0,0,0-.1-.14m0,32.25-.08.38v.17a.42.42,0,0,0,.18-.06l.13-.31a.41.41,0,0,0-.23-.18m-.08-12a.23.23,0,0,0,.14.14.24.24,0,0,0-.14-.14m0-15.29v.06h0l.14,0Zm0-8.37v.08l.08,0Zm0,7.41.08.28-.08.1,0,.23.13,0a3.4,3.4,0,0,1,.1-.35.44.44,0,0,0-.2-.24m-.06-7.16a.68.68,0,0,0,.16.35l0-.24,0-.07Zm0,18.6c0,.12.07.19.2.2l0-.2Zm.2-18.05a.55.55,0,0,0-.2.17l.2.06L43,15a.41.41,0,0,0-.18-.21m-.23,2.07,0,.18,0,.06.17,0a.42.42,0,0,0-.17-.2m0-.41a.28.28,0,0,0,.1.18.28.28,0,0,0-.1-.18m0,19.93a.82.82,0,0,0,.49.28,2.65,2.65,0,0,0-.49-.28m0-8.86,0,.1,0,.23.18,0,.06-.31Zm0-5.05a.59.59,0,0,0,.13.31,1.21,1.21,0,0,0-.13-.31m0-3a.13.13,0,0,0,.1.06.13.13,0,0,0-.1-.06m0,30.21a.17.17,0,0,0,.14.1.24.24,0,0,0-.14-.1m0-18.44a.24.24,0,0,0,.21.24.44.44,0,0,0-.21-.24m0-13.51a.2.2,0,0,0,.14.13.3.3,0,0,0-.14-.13m1,12.05A2.49,2.49,0,0,0,43,30l-.41.24a.74.74,0,0,0-.17.17h.17l0,0,.41-.18.43.18.2.13v-.17l-.06,0a.61.61,0,0,1-.17-.33.44.44,0,0,0,.17-.21Zm-1-11.37,0,.2.06.06,0,0,0-.21Zm0-1.13,0,.31.14,0a.53.53,0,0,0-.17-.27m0-1.43,0,.37.1.08.06,0,0-.35Zm0,4.13-.06.31a.42.42,0,0,0,.2.13,2.39,2.39,0,0,0,.06-.43Zm-.1.51a.12.12,0,0,0,.07.06s0,0-.07-.06m0-3.56,0,.14.14,0a.2.2,0,0,0-.1-.1m0-2a1.32,1.32,0,0,0-.08.41l0,.34a.32.32,0,0,0,.14,0l.06-.43a.78.78,0,0,0-.17-.35m0,35.12-.06.18h.17a.49.49,0,0,0-.1-.18m.17-29.45-.27.35a.28.28,0,0,0,.24.23l.31-.57Zm-.33,4.16a.2.2,0,0,0,.13.1l.08-.1Zm0-10.38a.37.37,0,0,0,.13.24v-.24Zm0-.41,0,.18.18,0a.35.35,0,0,0-.18-.21Zm0,24.72a.46.46,0,0,0-.1.17.24.24,0,0,0,.18.08.93.93,0,0,0,.06-.24Zm.08-2.56a.41.41,0,0,0-.18.23l.24.1.14,0a.34.34,0,0,0-.21-.31M42,23.06a.13.13,0,0,0,.1.06.16.16,0,0,0-.1-.06m0-7.2A.19.19,0,0,0,42,16a.19.19,0,0,0-.1-.14m.1,6a.46.46,0,0,0-.14.1l.18.06v-.13ZM42,18l.06.17H41.9Zm-.1-.61,0,.1v-.1Zm.06-1.27.06.38-.13.44,0,.28.18.06.07-.1,0-.31.14-.2,0-.41a.74.74,0,0,0-.27-.14m-.06,8.81-.08.17a.31.31,0,0,0,.2-.17Zm0-2.43a.57.57,0,0,0-.06.28H42a2.38,2.38,0,0,0,0-.28Zm.17-5a1.79,1.79,0,0,0-.23.51.71.71,0,0,0,.33.41,2,2,0,0,0,.1-.47.72.72,0,0,1-.21-.45m-.33,4.62a.19.19,0,0,0,.06.13l0-.13Zm0-.41a.26.26,0,0,0,.06.17.25.25,0,0,0-.06-.17m0-6.22a.62.62,0,0,0,.06.21l0-.21Zm0,23.9a.12.12,0,0,0,.08.06.09.09,0,0,0-.08-.06m0-18.84v.55a.55.55,0,0,0,.14.27l0-.51a.63.63,0,0,0-.18-.31m0-6.63,0,.1a.35.35,0,0,0,.18-.13h-.14Zm0,12.29a.35.35,0,0,0,.14.1Zm0,9.66a.31.31,0,0,0,.28.27.32.32,0,0,0-.28-.27m0-16.45,0,.27.14-.06,0-.21Zm0-1.06.08.2,0-.2Zm.08,21.1-.1.21a.11.11,0,0,0,.06.06l.1-.06a.65.65,0,0,0-.06-.21m-.08-20.44,0,.17,0,.06.14,0a.26.26,0,0,0-.14-.2m0,.84-.06.28a1.88,1.88,0,0,0,.34.1l0-.24,0-.06a1.12,1.12,0,0,0-.28-.08m-.06,7.86V27.7h0ZM41.33,39a.23.23,0,0,0,.14.14.2.2,0,0,0-.14-.14m0-26.87a.41.41,0,0,0,.08.18.34.34,0,0,0-.08-.18m0,4.61,0,.14.06.58.17-.06.08-.1L41.49,17a.62.62,0,0,0-.2-.28m-.06,23.12a.28.28,0,0,0,.1.17.23.23,0,0,0-.1-.17m0-19.84h.08V20h0Zm5.26,28.71.51,0,.1,0a1.4,1.4,0,0,1,.1.47,1.77,1.77,0,0,1-.27.37l-.45.21-.51.14-.61,0L45,50l.06.21.31.06a1.56,1.56,0,0,1-.41.1,3.31,3.31,0,0,0-.41.24l-.47.17-.59.06-.33-.1,0,.14a1.49,1.49,0,0,1-.55.14l-.06-.59a.47.47,0,0,0-.2-.21v.86a1.86,1.86,0,0,0-.41.1l-.51,0a.12.12,0,0,1-.07-.08l-.1-.51a.8.8,0,0,0-.1-.27.46.46,0,0,0,.1-.17l0-.35,0-.24.21-.37,0-.17.38.06,2.52.06.47-.17L46,48.9a1.54,1.54,0,0,0,.45-.18M43,25.79l-.31.38-.1.17a.85.85,0,0,1-.23-.21l-.08.21a.46.46,0,0,1-.31.31,3.26,3.26,0,0,1-.47-.2l-.37,0a.27.27,0,0,0,.06.18l.47.21.31.06.21-.06.41-.28a1.61,1.61,0,0,1,.38-.17l-.18.1a1.58,1.58,0,0,0,.1.27,4.88,4.88,0,0,0-.27.41l0,.14a.81.81,0,0,0,.27-.17,2,2,0,0,0,.24-.45l0-.27.06-.28a1.12,1.12,0,0,0,.08-.27l-.28,0m-1.87-6.31v.23a.45.45,0,0,0,.1-.17.16.16,0,0,0-.1-.06m0,5.08-.06.24.1,0,0-.2a.11.11,0,0,0-.08-.08m0-11.71s0,0-.06-.06a.12.12,0,0,0,.06.06M41.47,18a.58.58,0,0,1-.28.2l-.1.08a.34.34,0,0,0,.1.13.47.47,0,0,0,.24-.17l.1-.17a.11.11,0,0,0-.06-.08m-.41,9.49a.23.23,0,0,0,.13.17.35.35,0,0,0-.13-.17m0-.58,0,.27.06.1.17,0a.9.9,0,0,0,.08-.27.84.84,0,0,0-.28-.07m0-7.75a.27.27,0,0,0,.17.17.18.18,0,0,0-.17-.17m0,4.48a.57.57,0,0,0,.2.17v-.17Zm.06-5.05-.06.13a.6.6,0,0,0,.2.24l0-.34ZM41,40.37a.88.88,0,0,0,.28.13.84.84,0,0,0-.28-.13m0-.65a.67.67,0,0,0,.1.17.23.23,0,0,0-.1-.17m0-25.8a.5.5,0,0,0,.07.17.25.25,0,0,0-.07-.17m0-1.53.1.1v-.14l0,0Zm.07-.45a.12.12,0,0,0-.07-.06l.07.06m-.1,25.23a.26.26,0,0,0,.06.17l.08-.17Zm-.06.31.06.1a.12.12,0,0,0-.06-.1m0-26.46v.45l.14,0a1.11,1.11,0,0,0-.14-.41M41,28l0,.21-.24-.08a.29.29,0,0,0,.1.2.4.4,0,0,0,.31-.31Zm-.27-1.31v-.06h0Zm-.06-16.27a.27.27,0,0,0,.1.21.29.29,0,0,0-.1-.21m0,9.86a.29.29,0,0,0,.17.13.24.24,0,0,0-.17-.13m.51,4.91a.82.82,0,0,1-.2.37l-.31.24-.1.24.14,0,.33-.2.28-.27.33.1a.48.48,0,0,0-.13-.28ZM40.47,28a.1.1,0,0,0,.1.06.2.2,0,0,0-.1-.06m0-.88V27h0Zm-.17-3.86a.19.19,0,0,0,.06.14.2.2,0,0,0-.06-.14M40.47,41a1.66,1.66,0,0,1-.27.35l-.06.06,0,.21.18,0a1.41,1.41,0,0,0,.33-.27.38.38,0,0,0-.21-.31m-.58-13.83a1.38,1.38,0,0,0-.1.38.71.71,0,0,0,.24-.08.5.5,0,0,0,.13-.23,1.16,1.16,0,0,0-.27-.08m-.14-.74-.1.21a.25.25,0,0,0,.1-.21m-.17-2.08.06.1a.16.16,0,0,0-.06-.1m0,3.79,0,.24.24-.08a.68.68,0,0,0-.28-.17m-.23-.37,0,.27.2-.06,0-.2Zm-.1,22s0,0,.06.06a.08.08,0,0,0-.06-.06m0-.41s0,0,.06.07a.08.08,0,0,0-.06-.07m0-26.6s0,.06.06.08a.12.12,0,0,0-.06-.08m0,3.11a.25.25,0,0,0-.07.14l0,.06a.29.29,0,0,0,.13-.14.13.13,0,0,0-.1-.06m-.17,24.92a.26.26,0,0,0,.06.17.26.26,0,0,0-.06-.17m0-.72,0,.1v-.1Zm-.24-21.91.1.1a.15.15,0,0,0-.1-.1m-.21,21.88,0,.24v.1l.1,0,0-.24Zm0-29.67,0,.18,0-.14Zm0,.63a.2.2,0,0,0,.1.1.15.15,0,0,0-.1-.1m-.14,29.41v.08l.08,0Zm0-29.73v.18a.29.29,0,0,0,.14-.14Zm-.13-1.09s0,.06.06.06a.12.12,0,0,0-.06-.06m0,1.43a.69.69,0,0,0,.13.28l-.1.23-.07.45s0,.06.07.06a1.55,1.55,0,0,0,.24-.54.67.67,0,0,0-.27-.49m-.08,6.22v.21l.18,0a.47.47,0,0,0-.18-.17m0-.79,0,.1.1,0,0-.1Zm-.14,21.91,0,.14,0-.14Zm0-23.21a.26.26,0,0,0,.08.14.26.26,0,0,0-.08-.14m-.17,18.23.14.06-.14.06Zm0-15.88a.27.27,0,0,0,.21.24.25.25,0,0,0-.21-.24m.14,1.06-.2.06,0,.2.28.07.1-.07a.91.91,0,0,0,.23-.24Zm-.28-1.94a.53.53,0,0,0,.21.23.22.22,0,0,0-.21-.23m0,21.88-.06.14h.17a.31.31,0,0,0-.1-.14M37.58,29.2a.27.27,0,0,0,.17.17.26.26,0,0,0-.17-.17m0-2.15a.31.31,0,0,0,.07.14Zm0,15.7a2.3,2.3,0,0,0,0,.28l.08.06,0-.27a.08.08,0,0,0-.06-.08m1.09,5.74-.54.31-.49.37a1.63,1.63,0,0,0-.17.27l.2,0a.12.12,0,0,0,.06-.07,2.35,2.35,0,0,1,.49-.38l.2-.1,0,.55a.56.56,0,0,0,.28.47v-.58l0-.24,0-.47,0-.1a.13.13,0,0,0-.1-.07m-1.46,1.87a1,1,0,0,0,.13.41v-.41Zm-.1-.54a.43.43,0,0,0,.23.33,1.9,1.9,0,0,0-.23-.33m0-.61a.16.16,0,0,0,.06.1.13.13,0,0,0-.06-.1m0-7.2,0,.23.1,0a.6.6,0,0,0-.06-.27m0-.39v.24a.3.3,0,0,0,.1-.17.16.16,0,0,0-.1-.08m0,1.57-.08.1,0,.31h.17a1.91,1.91,0,0,0-.13-.41M37,42.54c0,.15.1.25.28.28a.35.35,0,0,0-.28-.28m0-12.93a.36.36,0,0,0,.13.24.73.73,0,0,0-.13-.24m0-.2a.13.13,0,0,0,.1.06.21.21,0,0,0-.1-.06m-.06-1.78a.09.09,0,0,0,.1.08.23.23,0,0,0-.1-.08m-.1,2.23a.27.27,0,0,0,.13.17.34.34,0,0,0-.13-.17M36.68,43l0,.1V43Zm-.07,4.81,0,.21.18,0a.58.58,0,0,0-.14-.18m0-6a.19.19,0,0,0,.1.06.13.13,0,0,0-.1-.06m0,.68-.08.17h.22a.33.33,0,0,0-.14-.17m0,6.93a.78.78,0,0,0-.13.23l.17.08a.78.78,0,0,0,.1-.28ZM36.54,42l0,.14,0,0,.22,0a.51.51,0,0,0-.22-.14M36,30.26a.28.28,0,0,0,.18.14.17.17,0,0,0-.18-.14M35.9,49.17a.36.36,0,0,0,.31.31,1.31,1.31,0,0,0-.31-.31m-.1-19.46a.24.24,0,0,0,.13.14.19.19,0,0,0-.13-.14m-.1-1.33,0,.14,0,.06h.21a.48.48,0,0,0-.21-.21m-.14,18.78a.35.35,0,0,0,.14.1.25.25,0,0,0-.14-.1m-.07-16.22a.28.28,0,0,0,.13.18.44.44,0,0,0-.13-.18m-.08,13.44a.32.32,0,0,0,.1.18.2.2,0,0,0-.1-.18m0-15.59v.14l.13-.08Zm-.14-1a.25.25,0,0,0,.24.24.27.27,0,0,0-.24-.24m-.1,14.28a.12.12,0,0,0,.06.06s0-.06-.06-.06m0,5.18a.31.31,0,0,0,.1.14.16.16,0,0,0-.1-.14m0-4.91a.71.71,0,0,0,.1.31.55.55,0,0,0-.1-.31m0-11.6a.39.39,0,0,0,.17.17.27.27,0,0,0-.17-.17m-.24-11.85a.36.36,0,0,0,.24.17,1.43,1.43,0,0,0-.24-.17m0,24.41,0,.23.16-.1a.59.59,0,0,0-.21-.13m-.1-14.71a.2.2,0,0,0,.14.13.24.24,0,0,0-.14-.13m0,20.14a.16.16,0,0,0,.07.1.16.16,0,0,0-.07-.1m0-29.46a.17.17,0,0,0,.13.08l0-.08Zm0,30.22v.06l.06,0Zm0-21.38-.1.14.21.14a.36.36,0,0,0,.1-.14Zm-.06.89a.69.69,0,0,0-.1.33l.23,0a.66.66,0,0,0,.1-.27Zm-.1-1.64a.32.32,0,0,0,.17.17.39.39,0,0,0-.17-.17m-.14-9.6a.13.13,0,0,0,.1.06.19.19,0,0,0-.1-.06m0,.41a2.29,2.29,0,0,0,.14.35,1.13,1.13,0,0,0,.35.1,1.46,1.46,0,0,0-.18-.31Zm-.06,9.86c0,.11.07.18.2.21a.39.39,0,0,0-.2-.21m9.39.92h.61l.47.1.14.49,0,.43h-.13a.58.58,0,0,0-.1.24l.21,0a2.33,2.33,0,0,1,.1.51l0,.37,0,.14a.47.47,0,0,1-.2.1.46.46,0,0,0-.21-.1,2.53,2.53,0,0,1-.49.06l-.41-.17-.31-.31-.33,0v.21l1.87,1.1,0,1.15-.45,1.94-.58,1.53-.49-.13a.1.1,0,0,0-.06.1l.47.13-.13.45-.31.61L43.1,38l-.24,0,.1.21.14.18a.59.59,0,0,1-.1.2,1.5,1.5,0,0,1-.24-.32,1.11,1.11,0,0,0-.1.42l.21.1L42,40a1.2,1.2,0,0,1-.37.24.62.62,0,0,0-.08.24,1.05,1.05,0,0,1-.37.23l-.51-.1-.1-.07-.31.07a.4.4,0,0,0,.31.2l.58,0,.08.17-.2.14-1.27,1.16-.72.44-.35.28-.13-.41-.18-.08,0,.31a1.5,1.5,0,0,1-.18.45.39.39,0,0,1-.27-.35l-.06-.23a.4.4,0,0,0-.14.13l0,.28,0,.1v.13a3.74,3.74,0,0,1-.24.34l-.68.51-.86.35-.51.1a.75.75,0,0,1-.31-.2l-.88-1.54a2.26,2.26,0,0,1-.14-.45,3,3,0,0,1,.37-.24l1.23-.54.38-.24a2.57,2.57,0,0,1,.47-.14.38.38,0,0,1,.28-.1l.23.1,0-.17A.31.31,0,0,1,37,41a.91.91,0,0,1,.28-.17l.37,1.43a.41.41,0,0,0,.24.17L37.7,40.8v-.33l.41-.45,1.06-.75.82-.92.24-.37.27-.24a.94.94,0,0,1,.1-.31l.24-.37.41,0a.32.32,0,0,0,.21-.31l-.1,0-.24,0,0-.17a2.75,2.75,0,0,1,.18-.45l.88-2.69a.33.33,0,0,1,.21-.31.47.47,0,0,0,.1-.21l-.17-.08,0-1.19.1-.51a1.28,1.28,0,0,1,.27-.31,1.78,1.78,0,0,1,.31-.31.15.15,0,0,0-.1-.1.75.75,0,0,1-.2.14l-.37,0v-.82a4.46,4.46,0,0,0-.14-.45V29h.28a.24.24,0,0,1,.23.21h-.21a.52.52,0,0,0-.13.23l.13,0a3,3,0,0,1,.41-.2.39.39,0,0,0,.28-.24Zm-9.53,1.1.14.41-.1.33.06.1a1.16,1.16,0,0,1,.2-.2l0,.18.17.44h.24l0-.31-.23-.37-.28-.31,0-.06,0-.21Zm.1-2.47a.5.5,0,0,0-.27.31h.14a1.32,1.32,0,0,0,.27-.23.31.31,0,0,0-.14-.08m-.27-9.93A1,1,0,0,0,34,18l.18,0a.64.64,0,0,0-.24-.31m0,26.66a.13.13,0,0,0,.08.06.11.11,0,0,0-.08-.06m0,2.42v-.06h0Zm0-1.88a.11.11,0,0,0,.06.08s0-.06-.06-.08m0-26.17a.08.08,0,0,0,.06.06s0,0-.06-.06m0,9.72-.07.1a1.19,1.19,0,0,0,.1.21l.1,0,.31,0,.06-.13h-.23Zm-.13,19.39a.19.19,0,0,0,.1.14.33.33,0,0,0-.1-.14m-.14.65v.07l.06,0Zm-.17.58,0,.34h.14l0-.34Zm.07-30.86a.34.34,0,0,0-.1.14l.17,0,0-.1Zm-.37,9a.16.16,0,0,0,.1.1.29.29,0,0,0-.1-.1m.13-8a.9.9,0,0,0-.13.24l.27.1a.81.81,0,0,0-.14-.35M33,45.38l0,.13a.31.31,0,0,0,.13-.13Zm0-26.83a.4.4,0,0,0,.17.23.41.41,0,0,0-.17-.23m-.06,27.67a.11.11,0,0,0,.06.08.12.12,0,0,0-.06-.08m0-27.26a.21.21,0,0,0-.08.17A.5.5,0,0,0,33,19Zm-.08-1.41a.12.12,0,0,0,.08.08.11.11,0,0,0-.08-.08m-.06,10.78.1.14a.22.22,0,0,0-.1-.14m0-10.13a.39.39,0,0,0,.21.14.33.33,0,0,0-.21-.14m0-.35a.24.24,0,0,0,.1.14.19.19,0,0,0-.1-.14m0,28.77,0,.14h.1a.18.18,0,0,0-.08-.14m0-11.3,0,.18h.1a.27.27,0,0,0-.08-.18M32.55,47.7a.33.33,0,0,0,.1.24.33.33,0,0,0-.1-.24m0-.54a1.28,1.28,0,0,0,.1.41.91.91,0,0,0-.1-.41m0-1a.3.3,0,0,0,.1.17.28.28,0,0,0-.1-.17m0,1.94-.1,0,0,.21.06,0,.14-.1Zm-.13-2.19a.43.43,0,0,0,.1.24.45.45,0,0,0-.1-.24m0-27.24,0,.1h.1a.15.15,0,0,0-.08-.1m0,29.83,0,.45h.1l0-.45Zm-.08-29.39,0,.14,0,.06.18,0c0-.09-.07-.15-.18-.17M32.28,45a.37.37,0,0,0,.37.23.49.49,0,0,0-.37-.23m0-.38a.23.23,0,0,0,.06.14.2.2,0,0,0-.06-.14m0-1.87.06.1a.13.13,0,0,0-.06-.1m-.17,2.87-.08.23a.23.23,0,0,0,.14,0l0-.24ZM32,43.44l.08.51.1,0v-.47Zm0-.51,0,.13h.1a.19.19,0,0,0-.06-.13M32,44.39v-.06h0Zm-.07-2.11a.35.35,0,0,0,.27.31.34.34,0,0,0-.27-.31m0-5.32A.13.13,0,0,0,32,37a.13.13,0,0,0-.1-.06M37.47,7.73h.43l.51.21,2.74,2.39,1.5,1.91.16.41.31.24.18.37a3.07,3.07,0,0,1,.17.41l.51,1.2a1.75,1.75,0,0,0,.14.44l.21.38h-.28l0,.21-.1.23.1-.06.31-.1,0,.17a.71.71,0,0,1-.31.14l0,.51a1.94,1.94,0,0,0,.07.47.23.23,0,0,0,.24.24l.07-.45a1.23,1.23,0,0,1,0-.27.38.38,0,0,1,.17.1l.14.45,0,.2a.37.37,0,0,0-.21-.08l-.14.41-.06.51a2.64,2.64,0,0,0,.14.41l0,.14,0,.86,0,.06.1.45a.42.42,0,0,0,.2.13l.08-.13a1.62,1.62,0,0,0-.14-.41l-.07-.14,0-.35a2.8,2.8,0,0,0-.1-.47,2.3,2.3,0,0,0-.06-.41,4.08,4.08,0,0,1,.06-.51,1,1,0,0,1,.28-.06l0,.78a3.64,3.64,0,0,1,0,.55v2.19a.43.43,0,0,0-.27.1l.27.23-.14.41v.59a.9.9,0,0,0,.24.31,2.6,2.6,0,0,1,.41.17l.82.31.35.24.1.47a1.1,1.1,0,0,0,.1.45.22.22,0,0,0,.21-.21,1.43,1.43,0,0,1-.1-.41.66.66,0,0,1,.27-.1.53.53,0,0,0,.07.17l.41.14,2,1.39a1.41,1.41,0,0,1,.21.37l.34.21a2.7,2.7,0,0,1,.33.24l.55.58.31.24a1.53,1.53,0,0,0,.24.35l1,1.29.16.37a.62.62,0,0,1,.14.28l-.14.07.31.24.49.65.92,2.48.1.45,0,.41.1,0L55,35.44v1.13l-.1.48a1.17,1.17,0,0,1-.35.17l-.61-.51,0-.47-.1-.45-.49-1.27-.41-.72-.06-.31.14-.07.17-.17h-.2l-.27.06-.1-.14-.18-.41-.82-.84-.47-.69L51,31.18l.1-.14s0,0-.08-.06l-.06.14a1,1,0,0,1-.24-.18,2.41,2.41,0,0,1,.14-.37l-.24-.06-.07.13a1,1,0,0,1-.37-.1l-.31-.27-1.75-1.1a1.15,1.15,0,0,1-.2-.2l.14,0,0-.18,0,0a.39.39,0,0,0-.16.1,2.11,2.11,0,0,1-.35-.2l-.41.13-.78-.31-.49-.1-.23-.1v.18l-.92-.08-.38-.17-.37,0-.14,0h-1l-.38-.2-.27.31-.24.06,0-.2-.24.14a.48.48,0,0,1-.24-.35l-.21.35a.47.47,0,0,1-.33.24l-.92.2-.79.33-.47.1-.17-.1,0,.24-.33.24-.41.17-.69.41-.58.59-.41.17a2.2,2.2,0,0,1-.2.35,1.78,1.78,0,0,0-.31.27l-.51.61a.69.69,0,0,1-.35.17l-.37-.2-.55-.58-.17-1-.31-.84a2.19,2.19,0,0,0-.28-.28l-.27-.31a1.31,1.31,0,0,0-.27-.27l-.38-.2a1.38,1.38,0,0,1-.23-.35V27.7a2,2,0,0,1,.07-.49l1.88-.41.84-.31.38-.2a2.31,2.31,0,0,0,.33-.21,2.08,2.08,0,0,0,.38-.21l.33-.2a1.86,1.86,0,0,0,.18-.41l1-.68L39,22.82l1.09-1.7L40.81,19,41,18l.21,0L41,17.87V15.14h.14l.31,0,.06.1.17.08.1-.21-.31-.24a2.66,2.66,0,0,0,.14-.31l-.51,0,.1.23-.14.1a.69.69,0,0,1-.17-.41l-.61-2.21-.37-.75a2.62,2.62,0,0,0-.24-.31l-.1-.1.1-.27-.35-.24-.23-.31a2.3,2.3,0,0,0-.28-.31l-.51-.65L38.11,9l-.33-.2a1.64,1.64,0,0,1-.28-.31l0-.08,0-.17.59-.06,0-.18a1.61,1.61,0,0,0-.45-.1l-.06,0-.17,0ZM31.81,44.12s0,.06.07.07a.11.11,0,0,0-.07-.07m0-.45a.13.13,0,0,0,.07.1.16.16,0,0,0-.07-.1m0-4.2a.12.12,0,0,0,.07.1.16.16,0,0,0-.07-.1m0-2.93v.17a.51.51,0,0,0,.17-.17Zm0-1,.07.1a.13.13,0,0,0-.07-.1m0-.41v.1l.1-.08Zm0,.72-.1.47.1,0,.08-.45a.11.11,0,0,0-.08-.06m-.21,5.12.1.06a.13.13,0,0,0-.1-.06m-.2-6a.09.09,0,0,0,.08.06.12.12,0,0,0-.08-.06m0,13.44a.29.29,0,0,1,.13.18.52.52,0,0,1-.13-.18m-.08-4.26a.31.31,0,0,0,.18.1.32.32,0,0,0-.18-.1m0-3,.13.1a.2.2,0,0,0-.13-.1m0-2.72s0,0,.06.06a.11.11,0,0,0-.06-.06m0,9.52a.11.11,0,0,0,.06.08s0-.06-.06-.08m.06-.23s0-.06-.06-.08a.16.16,0,0,0,.06.08m0-2.64,0,.17h.1A.39.39,0,0,0,31.3,45m0-7a.08.08,0,0,0,.06.06s0,0-.06-.06m-.14,4.3a1.33,1.33,0,0,0,0,.28l.1,0,0,0a.47.47,0,0,0-.1-.28m0-25.25a.2.2,0,0,0,.13.1.2.2,0,0,0-.13-.1M31,44.67v.21a.31.31,0,0,0,.1-.18ZM31.26,36a1.55,1.55,0,0,1-.24.31l-.06.17.24,0a.59.59,0,0,1,.23-.28L31.5,36Zm-.06-.65a1.65,1.65,0,0,0-.21.28l0,.21a.3.3,0,0,0,.1-.1.38.38,0,0,1,.27-.2l.08-.14ZM31,17.7a.15.15,0,0,0,.1.1.15.15,0,0,0-.1-.1m0,19.28a.22.22,0,0,0,.24.21l0-.21Zm-.1,4.27a.55.55,0,0,0,.1.27l0-.23Zm0-1.06v.24l.14-.06a.32.32,0,0,0-.14-.18m0,3.52v.37l.13,0,0,0v-.33Zm-.1,1.37a.13.13,0,0,0,.1.06.17.17,0,0,0-.1-.06m0-2.25a.26.26,0,0,0,.06.17l0-.17Zm.1-3a.39.39,0,0,0-.1.18l.2,0a.45.45,0,0,0,.1-.17Zm-.1-21.84a.13.13,0,0,0,.1.06.16.16,0,0,0-.1-.06m0,23.78a.23.23,0,0,0,.14.14.24.24,0,0,0-.14-.14m0-2.35a.31.31,0,0,0,.17.1Zm0-3.24v.17a.38.38,0,0,0,.14-.14Zm0,6.18-.08.27a.25.25,0,0,0,.14.06l0-.27a.17.17,0,0,0-.1-.07m0-.31,0,.17.18,0,0,0a.39.39,0,0,0-.17-.17m-.1,2.32a.16.16,0,0,0,.06.1.17.17,0,0,0-.06-.1m0,2.7a.23.23,0,0,0,.1.17.24.24,0,0,0-.1-.17m0-8.57,0,.18,0,0,.06-.17ZM30.48,38s0,.06.06.06L30.48,38m0-20.4-.07.21.17.06a.43.43,0,0,0-.1-.27m-.1,25.91a.11.11,0,0,0,.08.06.09.09,0,0,0-.08-.06m0,.27a.16.16,0,0,0,.1.1Zm0-8.53s0,.06.06.07a.12.12,0,0,0-.06-.07m0-16.25a.1.1,0,0,0,.1.06Zm0-1.78.13.1.08-.1Zm0,24.78a.39.39,0,0,0,.1.18.24.24,0,0,0-.1-.18m0,2.46v.28l.18,0a.39.39,0,0,0-.18-.24m.08-7.41-.08.18h.14a.31.31,0,0,0-.06-.18m-.1-.84v-.08h0Zm0,.37-.08.17.1,0v-.17Zm-.1,7.68a.14.14,0,0,0,.13.1.26.26,0,0,0-.13-.1m0-26,0,.27.06,0,.14,0,0-.21Zm.1,17.37-.17.06a.36.36,0,0,0,.2.31.4.4,0,0,0,.14-.31Zm-.21-.69,0,.1v-.1Zm0,4.89a.41.41,0,0,0,.2.14Zm.17,3.31L30,43.2a.27.27,0,0,0,.1.17.3.3,0,0,0,.1-.23m-.17-25.06,0,.1.06,0,0-.14ZM29.89,47.6a.31.31,0,0,0,.18.1.32.32,0,0,0-.18-.1m-.07-8.08a.41.41,0,0,0,.31.14v-.14Zm-.14,5.57v.43a2.05,2.05,0,0,1-.06.38l0,.17.08.14a1.27,1.27,0,0,1,.13.31l0,.82a.31.31,0,0,0,.17.1l0-.14.27-.17.18-.18a.12.12,0,0,0-.08-.06l-.21.06-.21.12-.2-2Zm-.1-3.89.08.06,0-.14Zm-.06,3.24,0,.37.21-.06a.34.34,0,0,0-.24-.31m0-9.56,0,.17.24,0Zm-.2,2,.1.1a.15.15,0,0,0-.1-.1m-.08,5.08a.22.22,0,0,0,.14.08l0-.08Zm-.06,3.28a.11.11,0,0,0,.06.08.17.17,0,0,0-.06-.08m0-8.7a.39.39,0,0,0,.06.21v-.17Zm0-19.36a.19.19,0,0,0,.06.14.2.2,0,0,0-.06-.14m0,23.94,0,.37,0,.1.2,0,.06-.23a.93.93,0,0,0-.27-.2M29,40.5v.35l.13,0,0-.2,0-.07ZM29,40a.19.19,0,0,0,.1.1A.16.16,0,0,0,29,40m0-2.29v-.08h0Zm0-2.33h.06v-.07h0ZM29,44a.59.59,0,0,0,.24.13A.6.6,0,0,0,29,44m0-6.25a.12.12,0,0,0,.08.1.15.15,0,0,0-.08-.1m0-3.44s0,0,.06.06a.11.11,0,0,0-.06-.06m.47,8.6-.31.14-.2.27v.18l.17-.08a1.25,1.25,0,0,1,.28,0l.06.06a.89.89,0,0,0,.27.14,1.06,1.06,0,0,1-.1-.28l-.06-.1.1-.2Zm-.45-4a1.13,1.13,0,0,0-.06.38v.23l.14-.1.1-.37.06-.14Zm-.1,3.58v.2l.31,0a.68.68,0,0,0-.31-.18m-.1,1.23v.2a.31.31,0,0,0,.1-.17Zm.14-26.44-.14.31.18,0a1.56,1.56,0,0,0,.1-.31Zm-.17,29.59a.16.16,0,0,0,.06.13.18.18,0,0,0-.06-.13m0-2.15A.67.67,0,0,0,29,45a.36.36,0,0,0-.23-.31m0-6.28a.14.14,0,0,0,.13.1Zm0-.41v.17l.1-.14Zm0,2a.17.17,0,0,0,.14.06Zm.06,5.83-.17,0a.54.54,0,0,0,.1.2l.14,0V45.9Zm-.17-8.26a.31.31,0,0,0,.24.1.88.88,0,0,0-.24-.1m0-2.21v.24a.39.39,0,0,0,.1-.18.2.2,0,0,0-.1-.06m0,6.83a.17.17,0,0,0,.14.13.19.19,0,0,0-.14-.13m0-1.13a.13.13,0,0,0,.08.06.09.09,0,0,0-.08-.06m.08-.55-.08.31.14,0,.1-.2Zm-.08-3.25a.32.32,0,0,0,.18.1.31.31,0,0,0-.18-.1m0-19.73a.15.15,0,0,0,.1.08Zm0,18.91-.07.18.1.1.06-.2a.17.17,0,0,0-.1-.08m-.14,5,.08.17a.33.33,0,0,0-.08-.17M29,34.56l.13.31-.31-.06-.27,0h-.1v0l-.1.17a.11.11,0,0,0,.06.06l.82,0,.08-.24a1.36,1.36,0,0,0-.31-.21m-.59,10.52a2.12,2.12,0,0,0-.1.37l.14.06.06-.06a1.55,1.55,0,0,0,.14-.37ZM28.39,28l0,.13h.08V28Zm-.06,12.28s0,.06.06.08a.12.12,0,0,0-.06-.08m.23,4a1.3,1.3,0,0,0-.31.31h.14a.5.5,0,0,0,.31-.31Zm-.31-1.88a.26.26,0,0,0,.08.14.26.26,0,0,0-.08-.14m0-6.73a.25.25,0,0,0,.1.18.24.24,0,0,0-.1-.18m-.1.51a.11.11,0,0,0,.08.08.17.17,0,0,0-.08-.08m0-9.25a.16.16,0,0,0,.1.08.23.23,0,0,0-.1-.08m.43,20.83-.37.27-.1.24.24-.06.41-.21.1-.21Zm-.47-2.66a.17.17,0,0,0,.14.06Zm0-1.27a.46.46,0,0,0,.31.41.51.51,0,0,0-.31-.41m0-2.21a.18.18,0,0,0,.1.13.15.15,0,0,0-.1-.13m0,.13a.45.45,0,0,0,.14.28.86.86,0,0,0-.14-.28m-.2,4.34.08.47.1,0,0,0a3.16,3.16,0,0,0-.2-.47m-.33-1.74a1,1,0,0,0,.13.31l.14-.06a.74.74,0,0,0-.27-.24M27.33,44a.31.31,0,0,0,.1.14.19.19,0,0,0-.1-.14m-.1.68-.06.28h.27a1.44,1.44,0,0,0,.38.23,1.42,1.42,0,0,0-.14-.37Zm-.1,1.74v.24a.31.31,0,0,0,.1-.17ZM27,45.1l0,.1v-.1Zm.33-17a.51.51,0,0,1-.31.14l-.06.14.17.06.38-.1v-.24ZM27,27.32a.39.39,0,0,0,.35.28.66.66,0,0,0-.35-.28m-.1.45,0,.24H27l0-.24Zm-.14,21.36,0,.31v.1h0a.43.43,0,0,0,.2.18,1.11,1.11,0,0,0,.08-.28v-.1h0a.53.53,0,0,0-.24-.21m0-22-.1.1a.13.13,0,0,0,.1-.1m-.13,1.64a.74.74,0,0,0-.14.31.38.38,0,0,0,.21.06l.14-.06,0-.31Zm.51,1a1.06,1.06,0,0,0-.24.41l-.27.31-.18.45a.38.38,0,0,0,.21.1l.1-.1.14-.49a.54.54,0,0,0,.24.14,2,2,0,0,0-.14-.45.82.82,0,0,0,.14-.37m-.69-1.47v.2a.51.51,0,0,0,.14-.2Zm.08-.41-.08.24.18,0a.57.57,0,0,0,.1-.2Zm-.14,19.6a.16.16,0,0,0,.14.1.25.25,0,0,0-.14-.1m.14-2.57-.14.31.1.35a1.83,1.83,0,0,1,.14.58,1.17,1.17,0,0,1-.24.55l.35.41a.35.35,0,0,1,.1.14.22.22,0,0,0-.14.1l0,.31a2.77,2.77,0,0,0,.17.61,1.71,1.71,0,0,1-.21.55.72.72,0,0,0,.1.2.67.67,0,0,0,.24-.24l0-.27s0,0,.06-.08l-.06-1,.1-.08a.37.37,0,0,0,.14.14.28.28,0,0,1,.13-.24,1.65,1.65,0,0,0,.41-.1.33.33,0,0,0-.1-.21l-.72.1a4.65,4.65,0,0,1-.06-.78l-.17-.69v-.37l-.08-.24Zm-.18-2.52-.06.27.2.08,0-.31Zm-.1,4.46a.13.13,0,0,0,.08.1.15.15,0,0,0-.08-.1m-.13,2.74a.21.21,0,0,0,.17.17.32.32,0,0,0-.17-.17m0-1.91,0,.1,0-.1Zm0-17.21a.27.27,0,0,0,.18.17.48.48,0,0,0-.18-.17m-.2-3,0,.23,0,.08.14,0,.06-.24Zm0,22.12,0,.2h.1v-.18Zm0-21.17,0,.14.1,0,0-.14Zm.06,18.5-.14.32.18,0a.92.92,0,0,0,.17-.28Zm-.17-16.31a.19.19,0,0,0,.1.14.24.24,0,0,0-.1-.14m0,17.45,0,.1v-.1Zm0-4.37,0,.24.17,0c0-.11-.08-.18-.21-.21m-.17,2.35,0,.17,0-.13Zm0-1.88.1.08a.16.16,0,0,0-.1-.08m0-16.11,0,.21h.17a.31.31,0,0,0-.14-.21m-.06,1.33a.3.3,0,0,0,.06.14l0-.14Zm0,18.43a.26.26,0,0,0,.08.14.26.26,0,0,0-.08-.14m.1-.58-.31.21a.31.31,0,0,0,.14.13l.31-.33Zm.08-5.33,0,.49a.74.74,0,0,1-.24.31.7.7,0,0,0-.13.27.88.88,0,0,0,.23-.1l.08.1a.74.74,0,0,0,.13.35l0-1a1.35,1.35,0,0,0-.06-.41m-.45-12a.42.42,0,0,0,.21.18.52.52,0,0,0-.21-.18m-.1,19.83V50l.21-.07a.53.53,0,0,0-.21-.18m.1-6.38-.1.49.14,0,.13-.45Zm-.2-.37.17.06L25,43Zm-.06,5.73,0,.18.28,0a.44.44,0,0,0-.31-.14m-.24-5.9.14.1a.25.25,0,0,0-.14-.1m-.08-1.27a.41.41,0,0,0,.28.14.62.62,0,0,0-.28-.14m0-12v.17l.1-.13Zm-.08,18.23.14.1.06-.1Zm0-4.64a1.44,1.44,0,0,0,.1.33.39.39,0,0,0,.32.14l0-.41Zm0-15.81a.11.11,0,0,0,.08.08.11.11,0,0,0-.08-.08m.14,22.46-.2.06a1.23,1.23,0,0,0,.31.28.46.46,0,0,0,.14-.31Zm-.2-1.39v.33l.06.35a.7.7,0,0,0,.2.45l0-.31-.06-.35a.88.88,0,0,0-.24-.47m-.06-.31a.14.14,0,0,0,.13.06Zm0-19,0,.1.1-.1Zm.06.24a.39.39,0,0,0-.1.2.24.24,0,0,0,.1-.2m-.14,18v.27l.14,0a.54.54,0,0,0-.14-.24m-.1-4a4.22,4.22,0,0,0,.1.55l.1-.08.08-.47Zm-.2-14.2a.24.24,0,0,0,.1.14.19.19,0,0,0-.1-.14m0,12.77,0,.31h.13a.55.55,0,0,0-.1-.31m-.31,6.69.1.06a.13.13,0,0,0-.1-.06m0-19.66a.27.27,0,0,0,.14.14.23.23,0,0,0-.14-.14m0,21.1,0,.17.35,0a.58.58,0,0,0-.37-.14m.17-8.37a.63.63,0,0,0-.17.24h.1l.13,0v-.17ZM23.3,26.37l-.06.21a.69.69,0,0,0,.17-.1.13.13,0,0,0-.1-.1M23.17,48.7a.32.32,0,0,0,.13.23.27.27,0,0,0-.13-.23m0-21.44,0,.21.1,0,0,0a.25.25,0,0,0-.1-.21m0,22.73-.06.24.13,0a.29.29,0,0,0,.1-.2Zm.14-6.79h.17l-.1.24a.75.75,0,0,1-.27.17l-.18,0a.67.67,0,0,1,.1-.17,1.06,1.06,0,0,0,.28-.2M22.89,27a.22.22,0,0,0,.14.14.23.23,0,0,0-.14-.14m.1,1.27c-.13,0-.2.06-.21.17a1.2,1.2,0,0,0,.35.18c.1,0,.17-.08.21-.2a1.36,1.36,0,0,0-.35-.14m-.23,14.24a.12.12,0,0,0,.06.06s0-.06-.06-.06m0,7.13-.06.59.06.88.58-.35a.91.91,0,0,0-.1-.41l0,.14,0,0-.37,0,.14-.82Zm-.2-1.09a.1.1,0,0,0,.1.06.13.13,0,0,0-.1-.06m-.17.51-.1.34v.27l.21-.06.2-.35a1,1,0,0,0-.31-.2m-.1,1.47v-.08h0Zm-.34-.38,0,.2.1,0Zm0-24.68,0,.18.1.06a.55.55,0,0,0-.06-.24m-.17,23.79v.06l.06,0Zm0-21.81,0,.24.18,0,0,0,0-.2Zm-.27.41V28l.17,0,.06,0a.22.22,0,0,0-.23-.17m0-18.36-.06.33,0,.1.17-.06.1-.21a.82.82,0,0,0-.24-.17M30,16.92l.41.06,2.19.06.72.18.14.06-.1.17v.21a.21.21,0,0,0,.1-.1l.06-.1.24.08a.44.44,0,0,1,.1-.28l3,1.1.55.33.31.14,1.84,1.29,0,.41-.31.63-.37.54-.14.31-.47.41a1.11,1.11,0,0,1-.31-.1L37.33,22l-.47-.41-2-1.16-.1-.1.17-.1a.47.47,0,0,0-.17-.24.73.73,0,0,1-.21-.27l.06-.08,0-.06a.16.16,0,0,0-.1.06l-.08.35a1.17,1.17,0,0,0,.21.27l-.17.1-.37-.06L33.45,20l-2.74-.41-2.86.31-.33.1a1.43,1.43,0,0,0-.34.1l-.68.21L24.91,21l-1.1.72-.47.41-.27.18-.24.21-.2.1-.1-.08-.17-.27a1,1,0,0,0-.18-.27L22,21.67l-.51-.86-.14-.31a.63.63,0,0,1-.06-.28l.21-.23.23-.21L24,18.42l.31-.14.24-.2a1.18,1.18,0,0,0,.31-.13L28.46,17l.82-.08.65.08Zm-8.8,9.66-.06.41a.4.4,0,0,0,.2.31.24.24,0,0,0,.13-.1l-.06-.28a2.5,2.5,0,0,0-.21-.33m0,23.72-.14.41.1.06.17.21,0-.21-.06,0-.08-.28.24.1a.39.39,0,0,0-.27-.27M21.5,8.86l0,.27-.31.1-.14.08.06.17.14-.06.41,0V9ZM21,49.64l.08.18.23,0a.44.44,0,0,0-.31-.14m-.1-.44.1.31a.88.88,0,0,0,.31-.08v-.23a.12.12,0,0,0-.1.06Zm0-24.65a.32.32,0,0,0,.14.24.39.39,0,0,0-.14-.24m0-.41,0,.21a.45.45,0,0,0,.17-.21Zm-.17,25.39v.24a.4.4,0,0,0,.17-.06.17.17,0,0,0-.17-.18m0-22.9-.06.14.13-.08s0,0-.06-.06m-.14,1a.23.23,0,0,0,.14.1Zm0,13.18-.08.21,0,.1.14.08a3.21,3.21,0,0,0-.1-.38M20.72,10a.65.65,0,0,0-.18.17.27.27,0,0,0,.18-.17m.13,40.31-.33.17a.23.23,0,0,0,.1.14.34.34,0,0,0,.23-.31m-.51.55a.28.28,0,0,0,.1.07.13.13,0,0,0-.1-.07m0-1a.68.68,0,0,0,.28.1Zm0-12.7s0,0,.08.06a.12.12,0,0,0-.08-.06m0-11.6v.31l.21,0a.26.26,0,0,0-.21-.27m0-.35v-.06h0Zm.28-14.78a1,1,0,0,0-.31.14.58.58,0,0,0,.31-.14m-.38,26.48a.15.15,0,0,0,.1.1s0-.08-.1-.1m0-12.73,0,.1.06.08,0-.14Zm-.08,3.58a.9.9,0,0,0,.08.28l.17,0,.14-.06Zm0,11.68-.06.1,0,.06.14,0a.19.19,0,0,0-.1-.14m-.1-19.56,0,.1,0-.1Zm0,31.1a.12.12,0,0,0,.08.06.09.09,0,0,0-.08-.06m.14-.55a.71.71,0,0,0-.14.17.13.13,0,0,0,.1.1,2.26,2.26,0,0,0,.18-.27Zm-.1-23.24,0,.14,0,.06a.77.77,0,0,0,.14-.2ZM20,24.22a.17.17,0,0,0,.07.1.13.13,0,0,0-.07-.1m.33,24.84c-.22,0-.34.1-.37.27a.71.71,0,0,0,.37-.27m-.13-9-.24,0a.19.19,0,0,0,.06.13A.27.27,0,0,0,20.2,40M20,26.64l-.06.24.1,0,0,0,.06-.24ZM20,25.11a.13.13,0,0,0,.1.06.13.13,0,0,0-.1-.06M20,39.51a.37.37,0,0,0-.13.17.29.29,0,0,0,.13-.17m-.2-14.88a.13.13,0,0,0,.08.06l0,0Zm0-11.3v.23H20a.42.42,0,0,0-.14-.23m0,25.32a.16.16,0,0,0,.13.1Zm-.08-26a1.69,1.69,0,0,0,.21.38l0-.1a2.37,2.37,0,0,1,0-.28Zm0,5.87v.14l.1-.1Zm0,7.16a.11.11,0,0,0,.06.08s0-.06-.06-.08m0-7.47a.19.19,0,0,0,.1.14.19.19,0,0,0-.1-.14m.17-7.78-.2.17a.36.36,0,0,0,.14.2l.21,0,0,.47a1.52,1.52,0,0,1,.14.55l-.24.21v.17l.08,0,.41-.31a.12.12,0,0,0,.06-.08l-.1-.47a1.94,1.94,0,0,1-.14-.61.34.34,0,0,0-.31-.37M19.59,39.1a2.05,2.05,0,0,0,.06.37l.1,0a.86.86,0,0,0-.17-.35m-.08-18.5v.24a.39.39,0,0,0,.1-.18.13.13,0,0,0-.1-.06m.18-1.78a2.35,2.35,0,0,1-.08.45l-.1.1.08.21,0,.27.06.1,0,.45a1,1,0,0,0,.14-.35l0-.45,0-.43a1.45,1.45,0,0,0-.1-.35M19.49,26l.06.1.1-.1Zm0-4.47,0,.47.13,0a1,1,0,0,0-.1-.45m.08,14.06-.18.24.2.06a.54.54,0,0,0,.14-.27ZM20,26l-.38.24a.85.85,0,0,0-.23.21h.13L20,26.3l.14-.21A.2.2,0,0,0,20,26m-.55-14.06-.06.1.06.21.17,0,.08-.08-.08-.2Zm-.1,6.18,0,.17,0-.13Zm0-.47v.06l.06,0Zm0-.72a.2.2,0,0,0,.1.1.16.16,0,0,0-.1-.1m0-4.61a.12.12,0,0,0,.06.06s0-.06-.06-.06M19.24,26a.12.12,0,0,0-.06-.08.16.16,0,0,0,.06.08m-.06-.72a.43.43,0,0,0,.06.21v-.18Zm0-5.77a1.49,1.49,0,0,0,.06.31.74.74,0,0,0-.06-.31m0-.51,0,.31.13,0,.08-.17,0-.08Zm0-2.94a.16.16,0,0,0,.1.08Zm0-1.5a.13.13,0,0,0,.1.06Zm0-.31v.17a.44.44,0,0,0,.13-.13Zm0-.58,0,.1h.06v-.1Zm0-.49a.88.88,0,0,0-.1.24l.27.2a1.2,1.2,0,0,0,.06-.41ZM19,20.57a.79.79,0,0,0,.17.28.52.52,0,0,0-.17-.28m0,17.78-.06.24.1.06.06,0,.06-.24Zm-.1-16.17a.16.16,0,0,0,.06.1.13.13,0,0,0-.06-.1m-.06,2.11a.16.16,0,0,0,.06.1.17.17,0,0,0-.06-.1m0-1.57A.65.65,0,0,0,19,23a.55.55,0,0,0-.1-.31m0-10.89a.19.19,0,0,0,.13.1.2.2,0,0,0-.13-.1m.06,24a1.09,1.09,0,0,0-.1.27l.06,0,.21,0a.51.51,0,0,0,.14-.2Zm0-10.14-.06.31a.17.17,0,0,0,.1.08l0-.28a.15.15,0,0,0-.08-.1m-.13,23.55a.21.21,0,0,1,.1.1l-.14,0Zm0-24.06,0,.31.18,0,.06-.21Zm.14-12.45-.18.17.24.06a.36.36,0,0,0,.1-.23Zm-.2,18.22a.33.33,0,0,0,.1.24l.06-.24Zm0-16.82a.12.12,0,0,0,.06.06l-.06-.06m0,9a.23.23,0,0,0,.1.17.28.28,0,0,0-.1-.17m0-10.62a.19.19,0,0,0,.1.1.2.2,0,0,0-.1-.1m0,37.68s0,.06.06.08a.17.17,0,0,0-.06-.08m0-23a1.51,1.51,0,0,0,.06.33l.14,0,0-.31ZM18.43,25a.19.19,0,0,0,.1.13.18.18,0,0,0-.1-.13m0,12.24a.2.2,0,0,0,.14.14.28.28,0,0,0-.14-.14m0-4.81,0,.18,0,.06.17,0,0-.2Zm0-9.07-.08.31h.31v0a.43.43,0,0,0,.08-.2,1.15,1.15,0,0,0-.31-.06m.17,12.65a.46.46,0,0,0-.31.31.55.55,0,0,0,.31-.31m-.06-23.92a.55.55,0,0,0-.24.24.11.11,0,0,0,.06.06l0,0,.27-.08a1.17,1.17,0,0,0,.34-.17Zm-.28,14.34q0,.2.1.43l.18,0a.5.5,0,0,0-.28-.41m0,23.82,0,.1.1.06a.34.34,0,0,0-.08-.17m0-28.94-.1.51.1.47.08-.51a1.55,1.55,0,0,0-.08-.47M18.16,50l0,.1V50Zm0-16.52a1.56,1.56,0,0,0,.06.31l.17,0a.28.28,0,0,0-.23-.27m0-18.6v.06l.13,0Zm0-1.71a.17.17,0,0,0,.06.1.16.16,0,0,0-.06-.1m0,22.63-.06.14.14-.08a.12.12,0,0,0-.08-.06m0,13.62-.08.23.14,0,.06-.06,0-.18Zm-.08-17.68L18,32l.21,0,0-.21Zm-.1-7v.18l.31-.08Zm0-10.54,0,.1h.08v-.1ZM18,13a.23.23,0,0,0,.1.08Zm.08,20a.42.42,0,0,0-.14.21l.17.06a.57.57,0,0,0,.1-.24Zm-.14-5.57a.13.13,0,0,0,.1.06.12.12,0,0,0-.1-.06m0,4a.71.71,0,0,0,.28.2.27.27,0,0,0-.28-.2m0,2.42V34a.58.58,0,0,0,.21-.14Zm0-7.31a.2.2,0,0,0,.06.14.3.3,0,0,0-.06-.14m.13-.41-.13.35.37-.1.17-.08a.18.18,0,0,0-.06-.13l-.1,0Zm-.1-.17v-.08h0Zm.41-13.18.08.37,0,.14-.06.06a.91.91,0,0,0-.41.1,3,3,0,0,0,.58.14.61.61,0,0,1-.2.31l0,.17a1.26,1.26,0,0,0,.37-.13l.2-.1-.14-.24a1.77,1.77,0,0,1-.13-.61l.1-.14Zm-.61,22.86a.19.19,0,0,0,.14.14.23.23,0,0,0-.14-.14m0-8.76a.44.44,0,0,0,.14.27.4.4,0,0,0-.14-.27m0,23.78.06.1a.17.17,0,0,0-.06-.1m0-21.2.21.39a1.11,1.11,0,0,0-.27.34,2.52,2.52,0,0,1,.45-.18l.27-.13.14.1a2,2,0,0,0,.41.13l-.35-.27a1.78,1.78,0,0,1-.37-.27Zm-.06-14.16a.31.31,0,0,0,.06.18.27.27,0,0,0-.06-.18m.06,18.17-.1.17a.2.2,0,0,0,.1-.17m-.06-3.07,0,.13.14,0a.15.15,0,0,0-.1-.1m-.17-7,.21.18.41,0a3.6,3.6,0,0,0-.61-.14m0-4.09,0,.17,0-.13Zm0,6.45a.27.27,0,0,0,.17.1.26.26,0,0,0-.17-.1m-.06,3.07,0,.31.17,0,0-.24Zm0-3.91,0,.17h.08v0Zm0-6.93a.79.79,0,0,0,.1.35l.08-.31Zm0-3.62,0,.18a.37.37,0,0,0,.1-.18Zm-.1,12.15.08.37-.08.1,0,.21,0,.08.18-.08a1.41,1.41,0,0,0,.1-.37,1.17,1.17,0,0,0-.28-.31m0-.82s0,0,.06.06l-.06-.06m0-1,0,.1v-.1ZM17,29.61v.21l.37,0,.1,0v-.17Zm0-14.06a.12.12,0,0,0,.08.06.12.12,0,0,0-.08-.06m0,17.92a.16.16,0,0,0,.1.1.15.15,0,0,0-.1-.1m0-9.08a.31.31,0,0,0,.17.1l0-.1Zm-.14-1a.24.24,0,0,0,.14.1.25.25,0,0,0-.14-.1m0,26.08a.69.69,0,0,0,.31.23.62.62,0,0,0-.31-.23m-.1-32.12a.32.32,0,0,0,.08.17.34.34,0,0,0-.08-.17M17,30l-.08.23,0,.1-.24,0-.17,0,0,.18.23.2a.66.66,0,0,0,.24-.1,1.94,1.94,0,0,0,.24-.2l.06-.24-.06-.06Zm-.51,19.59,0,.31.24,0a.78.78,0,0,0-.21-.35m-.14-.17h.06v-.08h0Zm.31-18.17a.75.75,0,0,1-.34.35.38.38,0,0,1,.34-.35m1-2.6a.87.87,0,0,1,.47.18l.06.2.28,0,.37.17H19a.4.4,0,0,0-.18-.23.43.43,0,0,1-.17-.21l.24,0a.39.39,0,0,1,.27.35l-.14.47v.86l-.31-.06-.37-.14.24.31.31.27.1.51v1.06l0,.1-.21.41.24,0,.41,1.74.72,1.68,0,.24h-.37l0,.2.24.06.41,0,.07.1.18.45L21.84,39l.31.31a2.91,2.91,0,0,1,.33.27l.28.31a1.71,1.71,0,0,0,.31.31l.23.35,1.45.86c.08.11.15.24.23.37a2.55,2.55,0,0,0,.1.45l.08.2.06-.24,0-.41h.17l.41.21a3.59,3.59,0,0,1,.34.24l.54.06.08.37-.08.1-.17.21-.1-.13a1.31,1.31,0,0,0-.31.27l.24.06-.1.21a2.28,2.28,0,0,1-.18.45l-.27.34-.21.37a1.75,1.75,0,0,1-.41.14l-.61-.31.1-.21a.58.58,0,0,0-.24-.1l-.06.17a2.66,2.66,0,0,1-.49-.14l-.37-.2a1.07,1.07,0,0,1-.17-.31l.13,0a.51.51,0,0,0,.14-.31,1.86,1.86,0,0,1,.27-.35l.38-.24.37-.13.08-.31-.18,0-1.23.59a1.79,1.79,0,0,1-.31.31l-.37.06-.14,0-.37-.2-.65-.58a2.31,2.31,0,0,0-.21-.41L21,41.62a2.28,2.28,0,0,0-.33-.27l-.61-.58a.48.48,0,0,1-.1-.2l.31,0a1.66,1.66,0,0,0,.41-.17c0-.07-.05-.1-.1-.1l-.21.1-.59,0-.2-.1a.82.82,0,0,1,.1-.24,1.44,1.44,0,0,0-.41-.13l-.23-.38a2.61,2.61,0,0,0-.31-.31l-.21-.41a.89.89,0,0,1-.1-.37,1.42,1.42,0,0,0,.1-.41l-.24.21-.21,0a.54.54,0,0,1,.1-.24.48.48,0,0,0,.14-.17.12.12,0,0,0-.08-.1l-.37.07-.06-.1-.14-.47a.42.42,0,0,0,.17-.14l-.17,0-.17-.1v-.24h0l.06,0,.45-.14a.11.11,0,0,0-.1-.06l-.31.06a.46.46,0,0,1-.31-.31l-1-3.85,0-.31.13-.14.35-.27.82-.38L18,31a1.72,1.72,0,0,0,.31-.27l-.1-.14a.67.67,0,0,0-.28.06l-.31.31-.47.14-.41-.1-.34.14,0-.1,0-.59a1,1,0,0,1,.14-.47l.2-.06a.23.23,0,0,0-.14-.18,2.85,2.85,0,0,1-.06-.47,2.64,2.64,0,0,1,.17-.45ZM15.7,49.38a.24.24,0,0,0,.17.1Zm-.24-25.76a.16.16,0,0,0,.06.1.13.13,0,0,0-.06-.1m.14.17-.18.24.2,0,.18-.14a.52.52,0,0,0-.21-.06m-.38,0,0,.1,0-.1ZM15,49.54a.38.38,0,0,0,.07.2v-.17Zm0-.37a.25.25,0,0,0,.07.17l0-.13Zm0-22.69a1,1,0,0,0,.14.31L15,27a.49.49,0,0,0,.18.17.36.36,0,0,1,.21-.17,1.67,1.67,0,0,1,.33.13l.51.41.2.24.24.06.1,0a.8.8,0,0,0-.06-.31l-.28-.18a1,1,0,0,1-.23-.23l-.86-.51Zm0-2.53a.58.58,0,0,0-.1.24l.14.14,0-.28a.16.16,0,0,0-.07-.1m-.14-.27a.12.12,0,0,0,.08.06.12.12,0,0,0-.08-.06m-.13,25.91v-.06h0Zm0-24.17a.12.12,0,0,0,.06.06s0,0-.06-.06m.34,2a1.7,1.7,0,0,0-.38.2l.14.07a.38.38,0,0,0,.24-.27M14.54,26l-.06.23.17.08.37,0,.1,0A.57.57,0,0,0,15,26Zm-.14,1.36,0,.14.13-.06Zm-.17,21.89a.34.34,0,0,0,.1.13.15.15,0,0,0-.1-.13M14.7,24.8a1.57,1.57,0,0,1-.37.14.31.31,0,0,0-.1.17l.1.06a.83.83,0,0,0,.37-.1.64.64,0,0,1,.08-.2s0,0-.08-.06m-.54,2.29a.16.16,0,0,0,.06.1.13.13,0,0,0-.06-.1m0-1.1-.1.08a.5.5,0,0,0,.08.2.12.12,0,0,0,.06-.08V26Zm-.33.14a.16.16,0,0,0,.06.1.17.17,0,0,0-.06-.1m.1-1.57-.1.34.13,0,.1-.31Zm-.14,3.31v-.06h0Zm-.14.51a.15.15,0,0,0,.08.1.39.39,0,0,0,.17-.1Zm0-4a.15.15,0,0,0,.08.1.15.15,0,0,0-.08-.1m14.81,9.42a1.13,1.13,0,0,1,.35.2l.72.28.88.13.86-.17L32,34a1,1,0,0,1,.41-.08l.37.14.31.2a1.92,1.92,0,0,1,.24.27l-.51,2-.14.37-.14,2.26,0,.1,0,1,.31,1.23.13.37a.45.45,0,0,1-.13.24l0,.37.1.18.1-.14a.84.84,0,0,1,.18.27l.31.76,1,1.53.27.24.41.61.55.47.31.21.45.55.68.35.59.43.2.31a.67.67,0,0,0,.23-.1l.1.08.69.33.82.2a2.3,2.3,0,0,0,.41.1l.41.1a2.37,2.37,0,0,0,.37.14.72.72,0,0,1,.1.34l-.2.31.06.17L41,50l-.06.1.06.65,0,.1a1.51,1.51,0,0,0,.07.33,1,1,0,0,1-.35.14l-3.38-.2a2.52,2.52,0,0,1-.37-.14l-.38-.13-1.6-.41L33.85,50a1.78,1.78,0,0,1-.31-.17l-.72-.31-.31-.21a1.13,1.13,0,0,0-.28-.24.35.35,0,0,1-.21-.31l-.13-.88a1.63,1.63,0,0,0-.2-.31.91.91,0,0,0-.18.31.66.66,0,0,1-.13.37l0,.24-.16-.06a1.11,1.11,0,0,1-.24-.28l.1-.31a.62.62,0,0,0-.27-.21,1.43,1.43,0,0,1-.31.21.64.64,0,0,0-.31.14l-2.43,1.68-1.7.82-1.19.33a1.42,1.42,0,0,0-.42.1l-1.7.34a1.79,1.79,0,0,1-.45-.06l-.33.13-1.51,0a3.11,3.11,0,0,1-.44-.06l-.1-.08-.31,0-.38-.14a1,1,0,0,1-.37.14,2.52,2.52,0,0,1-.37-.14,2.08,2.08,0,0,0-.18-.33l-.06-.14a.23.23,0,0,0-.17.1l.17.35a1.44,1.44,0,0,1-.35-.1,1.78,1.78,0,0,1-.41-.14.35.35,0,0,0-.17-.14l-.06.1-.34,0-.1,0a2.07,2.07,0,0,1-.35-.21l-.13-.2a.23.23,0,0,1,.06-.1.82.82,0,0,0,.24-.1h-.28L16.28,50l0-.31-.08-.1a.24.24,0,0,0-.23.24l0,.47a1,1,0,0,1-.27.06,2.33,2.33,0,0,0-.31-.2l-.1.1L15,50.19l-1-.55-.31-.23a.87.87,0,0,1-.17-.34.38.38,0,0,1,.21-.24l.37-.13.79.23h.41v0l0,0a.74.74,0,0,0,.08.24l.43-.06a3.39,3.39,0,0,0,.14.37.94.94,0,0,1,.27-.24l.28,0,.1.1a1.74,1.74,0,0,0,.37.13l.45-.07.33-.14.35,0,.1,0a1.3,1.3,0,0,1,.2.35l0,.17.21-.06a2,2,0,0,0,.06.34,1.67,1.67,0,0,1-.14.31l.08.1H19l0-.08.18,0-.08.27-.21.14-.1-.08a.66.66,0,0,0-.17.14l.06.1a.15.15,0,0,0,.08.1L19,51l.17-.37.18.35a.67.67,0,0,0,.23-.1.78.78,0,0,0,.18-.35.38.38,0,0,1-.31-.2.33.33,0,0,1-.24-.27l-.06-.45-.1-.21.13-.06a.46.46,0,0,1,.18.17l.1.41-.14.17.1.1a.72.72,0,0,0,.35.1l.41-.1.1-.17-.14,0a.67.67,0,0,1-.41.14l-.2,0,.1-.17,0-.27,0-.18-.14-.27h.14l.76-.27.82-.18a1.23,1.23,0,0,0,.31-.2,1.88,1.88,0,0,0,.37-.13,1.91,1.91,0,0,0,.34-.18l.37-.13.31-.08a.46.46,0,0,0,0,.14l0,.06,0,.1.2,0A.74.74,0,0,0,23.3,48a.17.17,0,0,0-.1-.08L23,48a1.18,1.18,0,0,1,.27-.28L25,46.37l.24-.24.31-.2.65-.88.27-.24a1.08,1.08,0,0,0,.21-.31l.14-.37.17-.31a.91.91,0,0,1,.27-.24.79.79,0,0,1,.18-.31.31.31,0,0,1,.23.28.82.82,0,0,0,.24.17.87.87,0,0,0-.1-.34l-.24-.27,0-.47a.68.68,0,0,0,.23-.1.33.33,0,0,1,.1-.24l.1-.1-.06-.24a.85.85,0,0,1-.06-.27l.06-.1.35-1.19.1-.9.2-.23a.53.53,0,0,1-.24-.14l-.06-2a1.42,1.42,0,0,1-.1-.41l-.28-1.27-.13-.37-.18-.31-.06-.27.72-.51Zm-14.81-7-.06.34a.24.24,0,0,0,.14.13l.07-.33,0-.14Zm-.17-.37a.12.12,0,0,0,.06.06s0-.06-.06-.06M13.31,25v.06l.06,0ZM13.07,27a.09.09,0,0,0,.08.06.12.12,0,0,0-.08-.06m0,.2,0,.17.06,0Zm-.1-.68v.06l.08,0Zm-.27-1.1a.19.19,0,0,0,.07.14l0-.14Zm0,.45a.12.12,0,0,0,.08.06.12.12,0,0,0-.08-.06m-.2-.65-.06.18.06,0,.1,0a.25.25,0,0,0-.1-.18m-.1.35-.06.51.14,0a2.94,2.94,0,0,0,.06-.47Zm-.41,1a.12.12,0,0,0,.06.06s0-.06-.06-.06m-.06.47a.3.3,0,0,0,.13.24.4.4,0,0,0-.13-.24m-.1-1.13,0,.24a.17.17,0,0,0,.1.06l0-.17,0-.08s0,0-.07-.06m-.2,1.5a.17.17,0,0,0,.1.08.16.16,0,0,0-.1-.08m-.1,2.08a.19.19,0,0,0,.06.14.31.31,0,0,0-.06-.14m0-3.34-.08.17a.34.34,0,0,0,.08-.17m-.08.27,0,.31.1,0a.84.84,0,0,0,.06-.27Zm-.37,3,0,.18.08-.1v-.08Zm0-1.77a.24.24,0,0,0,.18.1Zm-.17-.82A.66.66,0,0,0,11,27a.27.27,0,0,0-.14-.17m0,3.24-.1.14a.16.16,0,0,0,.1-.14m-.1-3.42a.16.16,0,0,0,.14.08Zm-.2,2.86,0,.28.17-.1.1-.18Zm-.1-1.74a.71.71,0,0,0,.21.14.5.5,0,0,0-.21-.14m0,1a.09.09,0,0,0,.07.06l-.07-.06m-.08-1.43a.31.31,0,0,0,.1.14.19.19,0,0,0-.1-.14M10,29.37a2.35,2.35,0,0,1-.1.55l.38.24a1.62,1.62,0,0,0-.1-.37,2.52,2.52,0,0,0-.18-.42M9.83,29l-.1,0,.06.13.1-.13Zm-.18-.35a.19.19,0,0,0,.14.1Zm0-.23a.19.19,0,0,0,.14.1.2.2,0,0,0-.14-.1m-.17.74a.11.11,0,0,0,.06.08s0-.06-.06-.08m-.24,1.75a.12.12,0,0,0,.08.06.09.09,0,0,0-.08-.06m-.17-2.23a.51.51,0,0,0,.21.24.25.25,0,0,0-.21-.24m-.17,2a.12.12,0,0,0,.06.06.11.11,0,0,0-.06-.06m0-.24.1,0-.14,0Zm-.1,1.1a.18.18,0,0,0,.06.13Zm0-.49a.34.34,0,0,0,.17.08Zm-.1.75-.14.2h.14a.3.3,0,0,0,.1-.17Zm-.27-.72a.34.34,0,0,0,.17.14Zm-.59,1.13s0-.06-.06-.07l.06.07m-.23,2.31a.13.13,0,0,0,.07.1.16.16,0,0,0-.07-.1M7.44,31.9a.16.16,0,0,0,.06.1.17.17,0,0,0-.06-.1M7.07,35V35H7Zm-.21.82.1.08a.16.16,0,0,0-.1-.08M22.93,7.73a1.11,1.11,0,0,1,.41.14l.1.41-.65.37-.57.14a.76.76,0,0,0,.06.2l.49,0a1.85,1.85,0,0,1-.1.24l-.69.85a1.23,1.23,0,0,0-.23.28l-.08.21-.2,0-.1-.21-.1.1a1.38,1.38,0,0,1-.31.21l-.13.06a.39.39,0,0,0,.06.21l.55-.13v.1l-.51.78-.31.72a.38.38,0,0,1-.18.1l0-.2-.08.28.08.1-.18.84-.21.31a.13.13,0,0,0,.08.1l-.08.2a2.41,2.41,0,0,0-.1.41l-.17,1.88-.06.37.1.41,0,.49.17.84L20,19l.21.31.2.82.14.33a2.25,2.25,0,0,1,.13.42l.31.72,1.78,2.32L24.12,25l1.27.78,1.47.55a1.6,1.6,0,0,0,.37.13l.38.14,1.33.21h.31l.06.14,0,.47,0,.47a.91.91,0,0,1-.24.31l-.58.45-.24.24-.41.65-.27.72-.1.92a1.76,1.76,0,0,1-.21.33l-.31.2-.34.14-.31.06-.1-.06a1.59,1.59,0,0,0-.21-.31L25.56,31l-.31-.2a.78.78,0,0,0-.2-.24l-1.16-.88-1-.55a.7.7,0,0,1-.13-.31.81.81,0,0,0-.24.06l-.37-.14-.76-.27L21,28.34l-.45-.06a2.6,2.6,0,0,1-.37-.14L20,27.83l-.08-.2a.29.29,0,0,0-.1.1.62.62,0,0,1-.27.24.3.3,0,0,0-.21-.1.16.16,0,0,1-.06.1l-.2-.1a1.37,1.37,0,0,0-.31-.21.87.87,0,0,1-.35.17l-.47,0-.89-.06-.37.13-2.49.59-1,.44-1.92,1.16a.92.92,0,0,0-.27.24l-.18.14-.1-.1a.74.74,0,0,0-.2-.14.17.17,0,0,0-.1.06l.18.35-.24.14-.1-.08-.1.14.1.06-.24.28a1.41,1.41,0,0,0-.23.27l-.9,1.16L8.66,33a.59.59,0,0,1-.27.1L8.29,33l-.14,0,.14.17.13,0-.85,2a2.49,2.49,0,0,0-.1.41l-.08.43a.76.76,0,0,1-.17.35L7,36.75a1.39,1.39,0,0,1-.31.21,1.16,1.16,0,0,1-.31-.18l0-2a1,1,0,0,1,.14-.37l0-.49a1.59,1.59,0,0,0,.14-.37L7,31.9l.27-.75.21-.31.14-.37.2-.31A1.41,1.41,0,0,0,8,29.82l.31-.21.1-.14-.13-.1A1.62,1.62,0,0,1,8.42,29l.18-.35.72-.82a2.58,2.58,0,0,0,.23-.27l.2-.31A2.34,2.34,0,0,1,10,27l1-1,.14-.17.1.1,0-.21.31-.2.24-.24.34-.17,1.19-.88.34-.18.35,0,.23-.27.31-.2,1.13-.41L16,23a1.38,1.38,0,0,0,.08-.37l-.1-.41-.2-1.84v-1l.54-3,.55-1.5a2.87,2.87,0,0,1,.17-.37l.69-1.33a2.18,2.18,0,0,1,.2-.35l.78-1.23.14-.14,0,.24a.46.46,0,0,0,.1-.2l-.1-.08a1.21,1.21,0,0,1,.21-.31l.45-.61,1.29-1.23L21.15,9l.51-.54Z"/><circle class="cls-2" cx="30.64" cy="30.64" r="28.79"/></g></g></svg>