<svg xmlns="http://www.w3.org/2000/svg" viewBox="0 0 64.63 64.62"><defs><style>.cls-1{fill:#414042;}</style></defs><title>Asset 5</title><g id="Layer_2" data-name="Layer 2"><g id="Layer_1-2" data-name="Layer 1"><path class="cls-1" d="M3.18,28.79C1.37,47.51,14.78,59.94,29.33,61.3A29.15,29.15,0,0,0,61.46,34.77a29.53,29.53,0,0,0-14.2-28c-5.16-3-11.09-4.4-19.05-3.36-13.1,1.7-23.68,11.47-25,25.41M28.21.4C48-2,62.72,11.6,64.45,28.42c2.65,25.71-24.61,44.14-47.08,32.5a31.23,31.23,0,0,1-17.19-25A31.92,31.92,0,0,1,28.21.4"/><path class="cls-1" d="M50.43,38.46l.23-.37c.13-.2.29-.37.37-.37a.14.14,0,0,1,.14.14c0,.08-.17.24-.37.37ZM51,39a.16.16,0,1,1,.16-.16A.16.16,0,0,1,51,39m-.64,3.78.42-.17.42-.17.19.19.19.19-.61,0Zm-.05-2.5h-.85l.21-.21.21-.21.21.21Zm-.61-21.11a.16.16,0,0,1,0,.32.16.16,0,1,1,0-.32m.48-1.61a.68.68,0,0,1-.32.5l-.32.19.19-.5c.1-.27.25-.49.32-.49s.13.13.13.3m-.77,24.64a.16.16,0,1,1-.16.16.16.16,0,0,1,.16-.16m-.16-2.71a.16.16,0,1,1-.16-.16.16.16,0,0,1,.16.16M49.09,19.1l-.41-.16c-.23-.09-.41-.27-.41-.41s.18-.32.41-.41l.41-.16V19.1Zm-.66.39a.16.16,0,1,1,.16-.16.16.16,0,0,1-.16.16M47.87,22a1.4,1.4,0,0,1,.71.11l-.12.23-.12.09-.26.16-.46-.29-.46-.29Zm-.35-2-.43-.16c-.23-.09-.42-.2-.42-.25s.19-.16.42-.25l.43-.16v.83Zm-.21-1.37a.16.16,0,1,1-.16-.16.16.16,0,0,1,.16.16m-.21-3h-.85l.21-.21.21-.21.21.21Zm-.71.64a.28.28,0,0,1,.28.28c0,.16-.21.37-.46.46l-.46.18.18-.46c.1-.25.31-.46.46-.46m-.51.28-.71-.18a2.35,2.35,0,0,1-1.08-.62L44,15.65l.37-.21a4.5,4.5,0,0,1,.77.52Zm-2,.67-.2-.32-.2-.32.65.1a2,2,0,0,1,.82.27l.17.17-.79.36-.79.36-.19-.31-.19-.31h.71Zm-.78,2.28a1.41,1.41,0,0,1,.43.47c0,.07-.19.12-.43.12h-.42v-.95Zm3.3,4.58A.16.16,0,1,1,46.2,24a.16.16,0,0,1,.16.16M46,22.2l.32-.2v.32a.7.7,0,0,1-.32.52l-.32.2v-.32A.7.7,0,0,1,46,22.2m-.42-1.44.21-.21.21-.21v.85L45.83,21Zm-1.7-.43-.21-.21.21-.21.21-.21v.85Zm1.33-2.13a.16.16,0,1,1,.16-.16.16.16,0,0,1-.16.16M45.86,22l-.56.21-.56.21.19.6.19.6H45a2.83,2.83,0,0,1-.69-1l-.52-1,.49.19.49.19.1-.29.1-.29.47.29Zm0,17.63a.16.16,0,1,1,.16-.16.16.16,0,0,1-.16.16M42.36,21.13c.32.28.63.59.94.93h0a.16.16,0,0,1,.16.16s0,0,0,.05c.21.24.43.48.64.75h.1l0,.1c.25.33.5.68.74,1,.45-.08.81-.09.81,0s-.14.15-.31.15H45.1l.14.43a15.27,15.27,0,0,1,2.09,6.68,14.17,14.17,0,0,1-3.12,10.11l.31.31.38.38.54-.83.54-.82.21.35.22.35h-.68v1l-.4,0a4.33,4.33,0,0,1-.8,0l-.4-.05V43l-.3-.48-.21-.33-.23.28-.21.21h0a.16.16,0,0,1-.15.16A14.69,14.69,0,0,1,35.68,47v.35l-.41-.16a.73.73,0,0,1-.1-.07,15.26,15.26,0,0,1-3.68.22,14.69,14.69,0,0,1-3.42-.63l-.45.83h0v-.88l.15-.06c-.48-.16-1-.35-1.43-.56a.61.61,0,0,1-.11.11l-.32.2V46a.55.55,0,0,1,.06-.17l-.57-.29-.47.18.19.6.19.6h-.17a2.83,2.83,0,0,1-.69-1l-.52-1,.49.19.49.19h0a16,16,0,0,1-2.64-1.89h0a.16.16,0,0,1-.16-.16v0c-.13-.12-.25-.26-.38-.39l0,0,0,0a14.82,14.82,0,0,1-3.13-16.65l-.52,0,.42-.17.21-.09a14.59,14.59,0,0,1,2-3.17l-.14-.14-.21-.21.21-.21.21-.21v.69A15.26,15.26,0,0,1,30.87,17.4a15,15,0,0,1,11.5,3.73M42.21,20a.16.16,0,1,1-.16-.16.16.16,0,0,1,.16.16m0-1c0,.08-.17.24-.37.37l-.37.23.23-.37c.13-.2.29-.37.37-.37a.14.14,0,0,1,.14.14M23.7,17.92h-.85l.21-.21.21-.21.21.21Zm-.71.64a.28.28,0,0,1,.28.28c0,.16-.21.37-.46.46l-.46.18.18-.46c.1-.25.3-.46.46-.46m-.51.28-.71-.18A2.36,2.36,0,0,1,20.7,18l-.11-.13L21,17.7a4.5,4.5,0,0,1,.77.52Zm-.64,1.31a.16.16,0,1,1-.16.16.16.16,0,0,1,.16-.16m-1.4-.64-.2-.32-.2-.32.65.1a2,2,0,0,1,.82.27l.17.17-.79.36-.79.36-.19-.31-.19-.31h.71Zm-.78,2.28a1.42,1.42,0,0,1,.43.47c0,.07-.19.12-.43.12h-.42v-.95Zm-.85.44a.16.16,0,1,1-.16-.16.16.16,0,0,1,.16.16m0-1c0,.08-.17.24-.37.37l-.37.23.23-.37c.13-.2.29-.37.37-.37a.14.14,0,0,1,.14.14M18,23.66h-.85l.21-.21.21-.21.21.21Zm-.9,1.92a.16.16,0,1,1-.16.16.16.16,0,0,1,.16-.16m-.16-2.71a.16.16,0,1,1-.16-.16.16.16,0,0,1,.16.16m-.32.65c0,.08-.13.15-.28.15a1.42,1.42,0,0,1-.72-.53l-.44-.53.72.38c.39.21.72.45.72.53m-.32-1.27c0,.08-.22.14-.5.14h-.5l.2-.33.2-.32.3.18c.16.1.3.25.3.32M15,23.13l-.21-.21-.21-.21.21-.21.21-.21v.85Zm0-1.54a.16.16,0,0,1-.16.16.16.16,0,1,1,0-.32.16.16,0,0,1,.16.16m-.31,3-.19-.38c-.1-.21,0-.09.32.25l.51.63-.17.44L15,26l.19.31.19.31.45-.37.45-.37L16,25.47a2.27,2.27,0,0,1-.26-.87l0-.51h.68l.06,1.06.06,1.06-.54.28-.54.28L15,26.61l-.44-.16.17.28.17.28-.85,0-.85,0,.4-.15.4-.15V26l.48-.18L15,25.6v-.74l-.48.4-.48.4v-.34a.72.72,0,0,1,.32-.54Zm-.61,0h-.68v1l-.4,0a4.42,4.42,0,0,1-.8,0l-.4-.05v.83l-.3-.48-.3-.48.3-.31.31-.31.38.38.38.38.54-.83.54-.82.22.35Zm-.36-1.76a.16.16,0,1,1-.16-.16.16.16,0,0,1,.16.16m-2,4,.17-.28a1.81,1.81,0,0,1,1-.44c.44-.08.8-.11.8,0a1.82,1.82,0,0,1-.62.43,2.79,2.79,0,0,1-1,.33Zm4.38,17.53-.49.4-.18-.18-.18-.18.67-.36c.37-.19.67-.3.67-.22a1.67,1.67,0,0,1-.49.53m.94-17.23a.34.34,0,0,1-.18-.32V26.5l.29.18.29.18.16-.4.16-.4,0,.34a.81.81,0,0,1-.19.56.77.77,0,0,1-.2.13l-.37.06m.18,16.75a.16.16,0,1,1-.16-.16.16.16,0,0,1,.16.16m-2.52,2.56.3-.31.31-.31.38.38.38.38.54-.82.54-.83.21.35.22.35h-.68v1l-.4,0a4.42,4.42,0,0,1-.8,0l-.4-.05v.82l-.3-.48Zm.57,1.43.17-.28a1.83,1.83,0,0,1,1-.43c.44-.08.8-.11.8,0a1.82,1.82,0,0,1-.62.44,2.78,2.78,0,0,1-1,.33Zm3.07-5.11a.16.16,0,1,1,0-.32.16.16,0,0,1,0,.32m.16.53v.85L18.32,44l-.21-.21.21-.21Zm-1.75,4.81.4-.15.4-.15V47l.48-.18.48-.18V45.9l-.48.4-.48.4v-.34a.72.72,0,0,1,.32-.54l.33-.2L18,45.23c-.1-.21,0-.09.32.25l.51.63-.17.44-.17.44.19.31.19.31.45-.37.45-.37-.22-.36a2.27,2.27,0,0,1-.26-.87l0-.51H20L20,46.19l.06,1.06-.54.28L19,47.8l-.44-.16-.44-.16.17.28.17.28-.85,0Zm3.35-4.23a.16.16,0,1,1,.16.16.16.16,0,0,1-.16-.16m-.82-.48h-.5l.2-.33.2-.32.3.18c.16.1.29.25.29.32s-.22.14-.49.14m.82,1.13c0,.08-.13.15-.28.15a1.43,1.43,0,0,1-.72-.53l-.44-.53.72.38c.4.21.72.45.72.53m0,5.74.4-.49a1.75,1.75,0,0,1,.52-.49c.07,0,.12.13.12.29s-.24.38-.52.49ZM21,48.13l-.37.06a.34.34,0,0,1-.18-.32v-.34l.29.18.29.18.16-.4.16-.4,0,.34a.8.8,0,0,1-.19.56.72.72,0,0,1-.2.13m-.23-1.36a.16.16,0,0,1-.32,0,.16.16,0,1,1,.32,0m.32-2.07h-.43l.21-.21.21-.21.21.21.21.21Zm.48,2.5L22,47l.42-.17.19.19.19.19-.61,0Zm.15,2.17.67-.36c.37-.19.67-.3.67-.22a1.67,1.67,0,0,1-.49.54l-.49.4-.18-.18Zm1.61-3.24a.16.16,0,1,1-.16-.16.16.16,0,0,1,.16.16m0-.64a.16.16,0,1,1,.16.16.16.16,0,0,1-.16-.16m-.26,2.24c-.06-.06.05-.41.25-.77l.36-.67h.69l-.18.67-.18.67.66-.13a.15.15,0,0,1,.14-.1.16.16,0,0,1,.11.05h0c.51-.1.94-.12.94,0s-.14.15-.31.15h-.31l.16.51,0,0,.2-.32.3.18c.16.1.3.25.3.32s-.22.14-.5.14h-.23l.1.32-.27-.32h-.1l0-.07L25.08,48l-1-.1a3.73,3.73,0,0,1-1.06-.21m.31,1.11a.16.16,0,1,1,.16.16.16.16,0,0,1-.16-.16m1.17-.16.21-.21.21-.21v.85l-.21-.21Zm1.82-1.11a.16.16,0,1,1,.16-.16.16.16,0,0,1-.16.16m-1.23,1,.72.38c.4.21.72.45.72.53s-.13.15-.28.15a1.43,1.43,0,0,1-.72-.53Zm1.44.26a.16.16,0,1,1,.16.16.16.16,0,0,1-.16-.16m.32,2.87a.16.16,0,1,1,.32,0,.16.16,0,0,1-.32,0m.64-2.08h-.43l.21-.21.21-.21.21.21.21.21Zm-.64,2.83.29.18.29.18.16-.4.16-.4,0,.34a.81.81,0,0,1-.19.56.77.77,0,0,1-.2.13l-.37.06a.34.34,0,0,1-.18-.32Zm1.55-4.88-.37.23.23-.37c.13-.2.29-.37.37-.37a.14.14,0,0,1,.14.14c0,.08-.17.24-.37.37m.37.61a.16.16,0,1,1-.16-.16.16.16,0,0,1,.16.16M28,52.14l.42-.17.42-.17L29,52l.19.19-.61,0Zm1.44-1.07a.16.16,0,1,1,.16.16.16.16,0,0,1-.16-.16m.21-2.71h-.42v-.95l.42.35a1.42,1.42,0,0,1,.43.47c0,.07-.19.12-.43.12m.43,2.07a.16.16,0,1,1-.16-.16.16.16,0,0,1,.16.16m-.33,1.46.36-.67h.69l-.18.67-.18.67.94-.19c.51-.1.94-.12.94,0s-.14.15-.31.15h-.31l.18.56.18.56-.27-.32L31.51,53l-1-.1a3.76,3.76,0,0,1-1.06-.21c-.06-.06.05-.41.25-.77M32.2,49l.21-.21.21-.21v.85l-.21-.21Zm-1.7-.42-.21-.21.21-.21.21-.21v.85Zm.32,1.48.49.19.1-.29.1-.29L32,50l.47.29-.56.21-.56.21.19.6.19.6h-.17a2.83,2.83,0,0,1-.69-1l-.52-1Zm1.81,1-.32.19V51a.7.7,0,0,1,.32-.52l.32-.2v.32a.7.7,0,0,1-.32.52m0,1.28a.16.16,0,0,1,.16-.16.16.16,0,1,1,0,.32.16.16,0,0,1-.16-.16m.64-4.47c0-.05.19-.16.43-.25l.43-.16v.83l-.43-.16c-.23-.09-.43-.2-.43-.25M35,47.72a.16.16,0,1,1,.16-.16.16.16,0,0,1-.16.16m-1.28,2.56h.72a1.42,1.42,0,0,1,.71.11l-.12.23-.12.09-.26.16-.46-.29ZM34,51.58l.5-.19.16-.06L34,52.46h0Zm2.13-4a.16.16,0,0,1,.16-.16.16.16,0,0,1,0,.32.16.16,0,0,1-.16-.16m8-4.1.17-.28a1.82,1.82,0,0,1,1-.44c.44-.08.8-.11.8,0a1.82,1.82,0,0,1-.62.43,2.78,2.78,0,0,1-1,.33Zm3.07-5.11a.16.16,0,1,1,0-.32.16.16,0,0,1,0,.32m.16.53v.85l-.21-.21-.21-.21.21-.21Zm-1.75,4.81.4-.15.4-.15v-.84l.48-.18.48-.18v-.74l-.48.4-.48.4v-.34a.72.72,0,0,1,.32-.54l.33-.2-.19-.38c-.1-.21,0-.09.32.25l.51.63-.17.44-.17.44.19.31.19.31.45-.37.45-.37-.22-.36a2.27,2.27,0,0,1-.26-.87l0-.51h.68l.06,1.06.06,1.06-.54.28-.54.28-.44-.16-.44-.16.17.28.17.28-.85,0Zm3.35-3.58c0,.08-.13.15-.28.15a1.42,1.42,0,0,1-.72-.53l-.44-.53.72.38c.39.21.72.45.72.53m-1.48-15.9h0v-.88l.5-.19.16-.06-.61,1.13m.86,14.31c.16.1.3.25.3.32s-.22.14-.5.14h-.5l.2-.33.2-.32Zm.93,4.57.29.18.29.18.16-.4.16-.4,0,.34a.8.8,0,0,1-.19.56.72.72,0,0,1-.19.13l-.37.06a.34.34,0,0,1-.18-.32Zm2.55-1.4a.16.16,0,1,1,.16.16.16.16,0,0,1-.16-.16m.32-.64a.16.16,0,1,1,.16.16.16.16,0,0,1-.16-.16m.34-4.33-.19-.31-.19-.31h.71l-.2-.32-.2-.32.65.1a2,2,0,0,1,.82.27L54,36l-.79.36ZM52.66,39l.21-.21.21-.21v.85l-.21-.21Zm1.47-3.72a2.38,2.38,0,0,1-1.08-.62l-.11-.13.37-.21a4.51,4.51,0,0,1,.77.52l.75.62ZM52,38.41a1.42,1.42,0,0,1,.43.47c0,.07-.19.12-.43.12H51.6v-.95ZM14.39,47.09a.16.16,0,1,1-.16-.16.16.16,0,0,1,.16.16M55.21,34.53l.21-.21.21-.21.21.21.21.21h-.85ZM50.44,19.06c1.42-3.24,3.29-6.58,4.35-9.84-3.06,1.74-6.36,3.23-9.53,4.87a22.91,22.91,0,0,0-9.42-3.83C34.48,6.88,33.41,3.22,31.9,0c-1,3.51-2.2,6.85-3.31,10.25a26.57,26.57,0,0,0-9.53,3.93c-3.24-1.42-6.58-3.29-9.84-4.35,1.74,3.06,3.23,6.36,4.87,9.53a25,25,0,0,0-2.19,3.94l.5-.27c.37-.19.67-.3.67-.22a1.68,1.68,0,0,1-.49.54l-.49.4-.18-.18-.1-.1a22.31,22.31,0,0,0-1.56,5.31c-3.38,1.35-7,2.42-10.25,3.94,3.52,1.07,7,2.15,10.36,3.42.49,3.66,2,6.29,3.54,8.92l.16-.19a1.76,1.76,0,0,1,.52-.49c.07,0,.12.13.12.28s-.24.38-.52.49l-.19.07.2.35c-1.52,3.21-3,6.43-4.45,9.73,3.3-1.5,6.4-3.2,9.63-4.76q1,.66,2,1.25l-.24-.39.3-.31.31-.31.38.38.38.38.54-.83.54-.82.21.35.22.35h-.68v1l-.4,0a4.42,4.42,0,0,1-.8,0l-.4-.05V52l.61.3a2.9,2.9,0,0,1,.51-.15c.44-.08.8-.11.8,0a1.85,1.85,0,0,1-.62.43l-.11.05c.24.11.46.24.71.35l.33-.12v-.84l.48-.18.48-.18v-.74l-.48.4-.48.4v-.34a.72.72,0,0,1,.33-.54l.32-.2-.19-.38c-.1-.21,0-.09.32.25l.51.63-.17.44-.17.44.19.31.19.31.45-.37.45-.37L26,51.44a2.27,2.27,0,0,1-.26-.87l0-.51h.68l.06,1.06.06,1.06-.54.28-.54.28L25,52.59l-.44-.16.17.28.17.28-.85,0h0a22.31,22.31,0,0,0,4.75,1.34c1.37,3.36,2.42,7,3.94,10.25,1.07-3.52,2.16-7,3.42-10.36,3.9-.52,6.63-2.21,9.42-3.83,3.24,1.42,6.58,3.29,9.84,4.35-1.74-3.06-3.24-6.36-4.87-9.53.49-.73.95-1.49,1.38-2.29a3.24,3.24,0,0,1,.19-.43l.22-.41c.2-.41.39-.82.57-1.25l-.2-.38.31.12A22.17,22.17,0,0,0,54.1,37a.15.15,0,0,1-.06-.12.15.15,0,0,1,.12-.14c.07-.32.16-.62.22-1l.52-.2h0c.1-.25.3-.46.46-.46a.27.27,0,0,1,.25.19c3-1.15,6.2-2.13,9-3.47-3.53-1.07-7-2.15-10.36-3.42-.52-3.89-2.2-6.63-3.83-9.42"/></g></g></svg>