<?xml version="1.0" encoding="utf-8"?>
<!-- Generator: Adobe Illustrator 21.1.0, SVG Export Plug-In . SVG Version: 6.00 Build 0)  -->
<svg version="1.1" id="Layer_1" xmlns="http://www.w3.org/2000/svg" xmlns:xlink="http://www.w3.org/1999/xlink" x="0px" y="0px"
	 viewBox="0 0 23.96 23.96" enable-background="new 0 0 23.96 23.96" xml:space="preserve">
<path fill="#FFFFFF" d="M20.675,3.946l0.088-0.01l0.07-0.007c-0.069-0.076-0.136-0.153-0.206-0.228L20.675,3.946z M23.073,7.968
	c-0.024-0.019-0.027-0.053-0.008-0.076c0.019-0.023,0.053-0.026,0.075-0.008c0.024,0.019,0.027,0.053,0.008,0.076
	c-0.01,0.013-0.026,0.02-0.042,0.02C23.094,7.98,23.083,7.976,23.073,7.968 M21.264,6.78c-0.024-0.019-0.027-0.053-0.008-0.075
	c0.019-0.024,0.053-0.027,0.075-0.009c0.024,0.019,0.027,0.054,0.008,0.076c-0.01,0.014-0.026,0.02-0.041,0.02
	C21.285,6.792,21.274,6.788,21.264,6.78 M21.618,6.513c-0.023-0.018-0.026-0.052-0.008-0.076c0.019-0.022,0.053-0.026,0.076-0.008
	c0.023,0.019,0.027,0.053,0.008,0.076c-0.011,0.013-0.026,0.02-0.041,0.02C21.64,6.525,21.628,6.521,21.618,6.513 M21.968,6.082
	l0.139,0.042l0.139,0.042l0.07,0.127l0.07,0.127L21.968,6.082z M20.698,5.768c-0.023-0.019-0.026-0.052-0.008-0.076
	c0.018-0.023,0.053-0.027,0.076-0.008c0.023,0.019,0.026,0.053,0.008,0.076c-0.011,0.013-0.026,0.019-0.042,0.019
	C20.72,5.779,20.708,5.776,20.698,5.768 M20.202,5.782c-0.046-0.038-0.055-0.103-0.02-0.147c0.035-0.043,0.121-0.072,0.189-0.063
	l0.126,0.017L20.285,5.85L20.202,5.782z M21.288,5.553C21.265,5.534,21.261,5.5,21.28,5.477c0.019-0.022,0.053-0.027,0.076-0.008
	c0.023,0.019,0.027,0.053,0.008,0.075c-0.011,0.014-0.026,0.02-0.043,0.02C21.31,5.564,21.298,5.561,21.288,5.553 M20.445,5.425
	l0.101-0.011l0.101-0.011l0.011,0.101l0.01,0.101L20.445,5.425z M19.578,4.584c-0.022-0.019-0.026-0.053-0.007-0.075
	c0.018-0.024,0.052-0.027,0.076-0.009c0.022,0.019,0.026,0.054,0.008,0.076c-0.011,0.014-0.026,0.02-0.043,0.02
	C19.601,4.596,19.588,4.592,19.578,4.584 M20.136,4.066c-0.022-0.018-0.026-0.052-0.007-0.076c0.018-0.022,0.052-0.026,0.075-0.008
	c0.023,0.019,0.027,0.053,0.009,0.077c-0.011,0.012-0.027,0.019-0.043,0.019C20.159,4.078,20.146,4.074,20.136,4.066 M18.878,4.161
	c-0.103-0.012-0.233-0.059-0.292-0.105l-0.105-0.084l0.12-0.147l0.447,0.202l0.008,0.077l0.008,0.079L18.878,4.161z M17.734,3.783
	c-0.023-0.019-0.027-0.053-0.008-0.076c0.018-0.023,0.052-0.026,0.076-0.008c0.022,0.019,0.026,0.053,0.008,0.076
	c-0.011,0.013-0.027,0.02-0.043,0.02C17.756,3.795,17.744,3.791,17.734,3.783 M17.196,3.763c-0.024-0.019-0.027-0.053-0.008-0.076
	c0.019-0.023,0.053-0.026,0.075-0.008c0.024,0.019,0.027,0.053,0.008,0.076c-0.01,0.013-0.026,0.02-0.041,0.02
	C17.217,3.775,17.206,3.771,17.196,3.763 M19.117,3.795c-0.02-0.016-0.029-0.086-0.02-0.156l0.016-0.125l0.177,0.143l-0.068,0.084
	C19.193,3.778,19.158,3.8,19.134,3.8C19.127,3.8,19.122,3.798,19.117,3.795 M17.785,3.547c-0.023-0.018-0.027-0.052-0.008-0.075
	c0.019-0.023,0.053-0.026,0.076-0.008c0.023,0.019,0.027,0.053,0.008,0.076c-0.01,0.013-0.025,0.02-0.042,0.02
	C17.808,3.56,17.795,3.556,17.785,3.547 M19.466,3.384l0.1-0.01l0.101-0.011l0.011,0.101l0.01,0.101L19.466,3.384z M17.449,3.137
	l0.1-0.011l0.101-0.011l0.011,0.101l0.011,0.101L17.449,3.137z M18.886,3.054c-0.02-0.017-0.03-0.086-0.021-0.155l0.016-0.127
	l0.178,0.144L18.991,3c-0.029,0.036-0.065,0.06-0.089,0.06C18.896,3.06,18.89,3.058,18.886,3.054 M17.657,2.976
	c-0.128-0.004-0.263-0.029-0.298-0.056c-0.036-0.026-0.033-0.088,0.007-0.137c0.04-0.049,0.17-0.13,0.29-0.181l0.217-0.091
	l0.369,0.302l-0.187-0.022L17.87,2.77l0.011,0.106l0.011,0.107L17.657,2.976z M18.097,2.137c-0.024-0.019-0.027-0.053-0.008-0.076
	c0.019-0.023,0.053-0.026,0.075-0.008c0.024,0.019,0.027,0.053,0.008,0.076c-0.011,0.013-0.026,0.02-0.042,0.02
	C18.118,2.149,18.107,2.145,18.097,2.137 M17.557,1.977l0.1-0.011l0.101-0.011l0.011,0.102l0.011,0.101L17.557,1.977z M15.654,2.088
	l-0.166-0.123l0.092-0.01l0.091-0.01l0.149,0.266L15.654,2.088z M17.401,1.712l0.068-0.083c0.037-0.046,0.084-0.071,0.105-0.053
	c0.02,0.016,0.03,0.086,0.021,0.154l-0.017,0.126L17.401,1.712z M17.278,1.609c-0.046-0.038-0.111-0.15-0.143-0.251l-0.061-0.183
	l0.084,0.068c0.046,0.037,0.111,0.15,0.144,0.251l0.059,0.182L17.278,1.609z M14.203,0.785c-0.022-0.018-0.026-0.052-0.008-0.075
	c0.019-0.023,0.053-0.026,0.076-0.008c0.023,0.018,0.027,0.053,0.008,0.075c-0.01,0.014-0.026,0.02-0.042,0.02
	C14.226,0.797,14.213,0.793,14.203,0.785 M14.729,0.964l-0.165-0.196l0.12-0.147l0.39,0.315l-0.18,0.223L14.729,0.964z
	 M13.717,0.531c-0.023-0.019-0.027-0.054-0.008-0.076c0.019-0.023,0.053-0.027,0.076-0.008c0.023,0.019,0.027,0.052,0.008,0.075
	c-0.011,0.014-0.026,0.02-0.042,0.02C13.739,0.542,13.727,0.539,13.717,0.531 M14.405,0.395l0.101-0.011l0.1-0.011l0.011,0.101
	l0.011,0.101L14.405,0.395z M0,11.98c0,6.616,5.363,11.98,11.979,11.98c6.617,0,11.981-5.364,11.981-11.98
	c0-1.783-0.4-3.468-1.098-4.988l-0.098,0.034c-0.131,0.045-0.272,0.056-0.312,0.023L22.38,6.991L22.537,6.9
	c0.088-0.051,0.171-0.107,0.187-0.126c0.005-0.006,0.021,0,0.034,0.003c-0.129-0.266-0.264-0.528-0.412-0.783l-0.143-0.117
	l0.041-0.051c-0.095-0.158-0.185-0.319-0.286-0.472C21.941,5.37,21.921,5.391,21.912,5.4c-0.033,0.03-0.116,0.01-0.186-0.046
	L21.6,5.252l0.152-0.186c-0.044-0.062-0.09-0.119-0.134-0.179c-0.074-0.062-0.181-0.152-0.284-0.247l-0.239-0.218l0.193,0.023
	c-0.122-0.151-0.254-0.292-0.382-0.437l0.074,0.115l0.13,0.196l-0.127,0.155l-0.237-0.191l0.045-0.122l0.046-0.121L20.56,3.987
	l-0.276-0.054L20.27,3.805l-0.013-0.129l0.17-0.059l0.092-0.033c-0.157-0.16-0.324-0.308-0.489-0.458l-0.096,0.055l-0.213-0.282
	c-0.037-0.05-0.08-0.108-0.126-0.167c-0.831-0.685-1.758-1.253-2.755-1.696l-0.221,0.273L16.461,1.17l-0.159-0.14l-0.054,0.06
	c-0.03,0.034-0.115,0.136-0.19,0.228l-0.135,0.167l0.664,0.538l-0.046,0.232l-0.044,0.233l-0.126-0.016l-0.126-0.016l0.152-0.188
	l-0.252-0.032l0.212-0.261L16.18,1.832l-0.015,0.112l-0.013,0.111l-0.304-0.18l-0.304-0.179l-0.081-0.139l-0.08-0.138l0.478,0.024
	l-0.099-0.172l-0.099-0.172l-0.319,0.034l-0.081-0.138l-0.079-0.138l0.178-0.218L15.5,0.681l0.14,0.042l-0.028-0.138
	c-0.001-0.006,0.001-0.014,0.001-0.021c-0.205-0.065-0.414-0.113-0.622-0.167c-0.019,0.013-0.043,0.021-0.062,0.006
	c-0.008-0.006,0.001-0.015-0.003-0.023c-0.09-0.023-0.178-0.048-0.269-0.069l-0.006,0.006l-0.014-0.011
	c-0.11-0.026-0.219-0.054-0.33-0.076l-0.11,0.135l-0.166-0.134l0.04-0.037c-0.084-0.014-0.168-0.025-0.253-0.039
	c-0.04,0.029-0.076,0.052-0.102,0.062l-0.15,0.053l-0.255-0.192c-0.009-0.001-0.016-0.003-0.024-0.004l0.123,0.219l0.134,0.241
	l-0.278,0.043l-0.279,0.044l-0.269,0.555l0.009-0.145c0.006-0.08-0.039-0.258-0.099-0.398L12.519,0.38l0.213-0.09l0.213-0.089
	l-0.104-0.157c-0.107-0.008-0.216-0.012-0.325-0.017c-0.002,0.006,0.006,0.012,0.002,0.018c-0.018,0.022-0.053,0.026-0.076,0.007
	c-0.009-0.007,0-0.019-0.003-0.029C12.285,0.018,12.135,0,11.979,0C5.363,0,0,5.364,0,11.98"/>
<polygon fill="#414042" points="8.348,10.134 15.983,10.134 16.624,12.268 19.293,7.52 21.804,7.52 17.515,15.344 14.862,15.343 
	14.007,12.375 11.943,12.375 8.596,18.139 6.149,18.139 9.416,12.268 7.173,12.268 5.37,15.334 2.832,15.338 4.504,12.375 
	6.426,9.12 1.531,9.12 2.635,7.333 10.003,7.333 "/>
<g>
	<path fill="#414042" d="M16.295,20.572c1.156,0,2.093-0.937,2.093-2.093c0-1.156-0.937-2.093-2.093-2.093
		c-1.156,0-2.093,0.937-2.093,2.093C14.202,19.635,15.139,20.572,16.295,20.572"/>
	<path fill="#FFFFFF" d="M16.551,17.654c0,0.957-1.033,1.118-1.033,2.094v0.407h1.506v-0.473h-0.985
		c-0.1-0.583,1.032-0.957,1.032-2.047c0-0.53-0.265-0.833-0.776-0.833c-0.512,0-0.777,0.303-0.777,0.833v0.322h0.492v-0.355
		c0-0.237,0.105-0.327,0.271-0.327C16.447,17.275,16.551,17.356,16.551,17.654"/>
</g>
</svg>
