<?xml version="1.0" encoding="utf-8"?>
<!-- Generator: Adobe Illustrator 21.1.0, SVG Export Plug-In . SVG Version: 6.00 Build 0)  -->
<svg version="1.1" id="Layer_1" xmlns="http://www.w3.org/2000/svg" xmlns:xlink="http://www.w3.org/1999/xlink" x="0px" y="0px"
	 viewBox="0 0 64.63 64.63" enable-background="new 0 0 64.63 64.63" xml:space="preserve">
<path fill="#414042" d="M32.315,63.463c-17.204,0-31.148-13.944-31.148-31.148c0-17.204,13.944-31.148,31.148-31.148
	c17.204,0,31.148,13.944,31.148,31.148C63.463,49.519,49.519,63.463,32.315,63.463 M38.936,38.206
	c2.378-3.235,6.027-5.783,11.007-5.929c-0.669,9.955-6.057,15.185-14.546,17.319C35.257,45.43,36.68,41.283,38.936,38.206
	 M29.316,49.596c-8.526-2.043-14.078-7.468-14.546-17.319C24.134,33.043,28.823,40.219,29.316,49.596 M29.705,30.896
	c0.322-0.639,1.052-1.301,2.153-1.466c2.049-0.304,4.111,1.496,3.229,3.928C33.791,36.947,27.734,34.703,29.705,30.896
	 M42.706,18.192c2.858,2.153,4.993,4.81,6.081,8.24H15.846c2.311-6.574,7.93-11.214,16.012-11.779
	C36.212,14.349,40.037,16.18,42.706,18.192 M30.933,8.882c-7.279,0.468-12.242,3.491-15.854,7.541
	c-3.533,3.959-6.695,9.511-6.233,17.24c0.407,6.963,3.521,12.199,7.62,15.854c4.074,3.643,9.694,6.683,17.24,6.239
	c6.939-0.414,12.223-3.509,15.854-7.547c3.63-4.038,6.641-9.608,6.233-17.24c-0.371-6.951-3.643-12.424-7.541-15.933
	C44.3,11.485,38.474,8.396,30.933,8.882"/>
</svg>
