<?xml version="1.0" encoding="utf-8"?>
<!-- Generator: Adobe Illustrator 19.0.0, SVG Export Plug-In . SVG Version: 6.00 Build 0)  -->
<svg version="1.1" id="Capa_1" xmlns="http://www.w3.org/2000/svg" xmlns:xlink="http://www.w3.org/1999/xlink" x="0px" y="0px"
	 width="34.603px" height="34.603px" viewBox="-70 107.847 34.603 34.603" enable-background="new -70 107.847 34.603 34.603"
	 xml:space="preserve">
<g>
	<path fill="#444242" d="M-34.634,116.389c-0.323-1.122-2.034-1.504-3.501-1.54c-0.065-0.002-0.133,0.005-0.198,0.004
		c-3.156-4.242-8.192-7.006-13.873-7.006c-9.54,0-17.301,7.761-17.301,17.301c0,1.449,0.199,2.849,0.536,4.195
		c-0.669,0.829-1.227,1.733-1.513,2.66v0.841c0.587,1.192,1.992,1.5,3.654,1.508c3.067,4.856,8.468,8.098,14.624,8.098
		c9.54,0,17.302-7.762,17.302-17.302c0-1.98-0.351-3.876-0.966-5.65c0.508-0.69,0.94-1.434,1.236-2.269V116.389z M-52.206,109.449
		c4.773,0,9.047,2.148,11.929,5.521c-2.62,0.308-5.317,1.149-7.031,1.629c0.567,0.244,0.91,1.046,1.681,1.19
		c0.518,0.098,1.167-0.136,1.68-0.14c1.483-0.01,3.281,0.371,3.431,1.891c0.174,1.753-2.087,3.846-3.501,4.971
		c-3.036,2.417-6.779,4.397-10.993,5.812c-2.089,0.701-4.695,1.473-7.212,1.19c-1.112-0.125-2.265-0.762-2.38-1.82
		c-0.221-2.028,1.648-2.907,2.45-4.131c-0.031-0.686,0.047-1.261,0.14-1.821c-1.6,0.828-3.27,2.079-4.831,3.431
		c-0.264,0.229-0.534,0.479-0.803,0.739c-0.16-0.899-0.259-1.819-0.259-2.763C-67.905,116.491-60.862,109.449-52.206,109.449z
		 M-52.206,140.846c-5.257,0-9.907-2.606-12.758-6.584c3.11-0.282,6.297-1.291,9.044-2.329c5.825-2.203,11.106-4.938,15.614-8.332
		c1.114-0.839,2.231-1.701,3.205-2.674c0.377,1.345,0.593,2.757,0.593,4.221C-36.508,133.804-43.549,140.846-52.206,140.846z"/>
	<path fill="#444242" d="M-47.098,125.282c1.115-0.716,2.317-1.415,3.081-2.451c-1.276-3.523-4.115-6.438-8.822-6.092
		c-4.589,0.338-7.995,4.122-7.982,8.613c0.006,2.102,0.624,3.585,1.68,4.901C-54.514,129.319-50.495,127.463-47.098,125.282z"/>
	<path fill="#444242" d="M-43.946,127.382c-3.607,2.274-7.691,4.072-11.903,5.742c5.564,2.389,10.991-1.147,11.973-5.672
		C-43.88,127.409-43.886,127.369-43.946,127.382z"/>
</g>
</svg>
