<?xml version="1.0" encoding="utf-8"?>
<!-- Generator: Adobe Illustrator 19.0.0, SVG Export Plug-In . SVG Version: 6.00 Build 0)  -->
<svg version="1.1" id="Capa_1" xmlns="http://www.w3.org/2000/svg" xmlns:xlink="http://www.w3.org/1999/xlink" x="0px" y="0px"
	 width="34.603px" height="34.603px" viewBox="-70 107.847 34.603 34.603" enable-background="new -70 107.847 34.603 34.603"
	 xml:space="preserve">
<g>
	<path fill="#444242" d="M-52.699,107.847c-9.54,0-17.301,7.761-17.301,17.301c0,9.54,7.761,17.302,17.301,17.302
		c9.54,0,17.302-7.762,17.302-17.302C-35.397,115.608-43.159,107.847-52.699,107.847z M-52.699,140.847
		c-8.657,0-15.699-7.042-15.699-15.699s7.043-15.699,15.699-15.699s15.698,7.043,15.698,15.699
		C-37.001,133.805-44.042,140.847-52.699,140.847z"/>
	<path fill="#444242" d="M-41.107,129.279c0.051-8.706-2.056-15.255-8.5-17.466c0.001-0.012,0.016-0.023,0.016-0.036
		c0-0.572-0.792-1.047-1.886-1.231c-0.171-0.505-0.493-0.91-0.957-0.91c-0.464,0-0.786,0.404-0.957,0.91
		c-1.096,0.183-1.889,0.659-1.889,1.231c0,0.009,0.011,0.017,0.011,0.026c-4.311,1.508-8.367,5.755-9.312,17.214
		c-0.051,0.615,0.016,0.431-0.869,1.335c0.596,0.342,9.663,8.123,13.75,10.224c0.834-0.799,9.717-8.292,9.894-8.418
		c0.519-0.506,1.243-1.202,1.568-1.473C-40.238,130.685-41.11,129.905-41.107,129.279z M-47.822,119.754v2.594
		c-0.515-1.153-1.441-2.078-2.594-2.594H-47.822z M-52.503,117.816l1.84,1.84c-0.573-0.221-1.19-0.354-1.84-0.354
		c-0.651,0-1.268,0.134-1.841,0.355L-52.503,117.816z M-54.59,119.754c-1.153,0.515-2.078,1.44-2.594,2.594v-2.594H-54.59z
		 M-57.281,122.594c-0.221,0.573-0.355,1.19-0.355,1.841c0,0.652,0.134,1.27,0.356,1.844l-1.843-1.843L-57.281,122.594z
		 M-57.184,126.522c0.515,1.153,1.441,2.078,2.594,2.594h-2.594V126.522z M-52.504,131.055l-1.843-1.843
		c0.574,0.222,1.192,0.356,1.844,0.356c0.651,0,1.268-0.134,1.841-0.355L-52.504,131.055z M-50.416,129.116
		c1.153-0.515,2.078-1.44,2.594-2.594v2.594H-50.416z M-47.725,126.276c0.221-0.573,0.355-1.19,0.355-1.841
		c0-0.651-0.134-1.267-0.354-1.84l1.84,1.84L-47.725,126.276z"/>
</g>
</svg>
