<?xml version="1.0" encoding="utf-8"?>
<!-- Generator: Adobe Illustrator 19.0.0, SVG Export Plug-In . SVG Version: 6.00 Build 0)  -->
<svg version="1.1" id="Capa_1" xmlns="http://www.w3.org/2000/svg" xmlns:xlink="http://www.w3.org/1999/xlink" x="0px" y="0px"
	 width="34.603px" height="34.603px" viewBox="-70 107.847 34.603 34.603" enable-background="new -70 107.847 34.603 34.603"
	 xml:space="preserve">
<g>
	<path fill="#444242" d="M-52.699,107.847c-9.54,0-17.301,7.761-17.301,17.301c0,9.54,7.761,17.302,17.301,17.302
		c9.54,0,17.302-7.762,17.302-17.302S-43.159,107.847-52.699,107.847z M-37.001,125.148c0,3.294-1.024,6.35-2.764,8.877v-15.626
		h-0.309h-0.648h-8.164c0-0.473-0.268-0.922-0.724-1.284l4.366-5.779C-40.34,113.994-37.001,119.188-37.001,125.148z
		 M-42.128,126.51c-0.298,0-0.537-0.233-0.537-0.536c0-0.292,0.239-0.538,0.537-0.538c0.297,0,0.536,0.246,0.536,0.538
		C-41.592,126.277-41.831,126.51-42.128,126.51z M-41.592,127.776c0,0.299-0.239,0.538-0.536,0.538
		c-0.298,0-0.537-0.239-0.537-0.538c0-0.297,0.239-0.542,0.537-0.542C-41.831,127.234-41.592,127.479-41.592,127.776z
		 M-42.443,124.03c-0.882,0-1.593-0.706-1.593-1.582c0-0.88,0.711-1.586,1.593-1.586c0.869,0,1.581,0.706,1.581,1.586
		C-40.862,123.324-41.574,124.03-42.443,124.03z M-44.036,125.484v3.29c0,2.732-2.218,4.95-4.955,4.95h-8.391
		c-2.737,0-4.954-2.218-4.954-4.95v-3.29c0-2.737,2.217-4.955,4.954-4.955h8.391C-46.254,120.529-44.036,122.747-44.036,125.484z
		 M-45.73,111.102l-4.318,5.721c-0.718-0.408-1.71-0.653-2.807-0.653c-0.957,0-1.833,0.187-2.521,0.502l-4.118-5.655
		c2.059-0.994,4.358-1.568,6.794-1.568C-50.194,109.449-47.833,110.054-45.73,111.102z M-59.978,111.251l4.136,5.677
		c-0.613,0.397-0.987,0.911-0.987,1.471h-8.805v15.038v0.047v0.541c-1.74-2.527-2.764-5.584-2.764-8.877
		C-68.398,119.118-64.977,113.88-59.978,111.251z M-52.699,140.846c-4.747,0-9-2.126-11.881-5.466h1.333v1.138h2.176
		c0.648-0.286,1.08-0.706,1.36-1.138h13.865c0.187,0.386,0.479,0.8,0.928,1.138h2.807v-1.138h1.292
		C-43.7,138.72-47.952,140.846-52.699,140.846z"/>
	<polygon fill="#444242" points="-52.586,129.79 -53.94,122.519 -56.951,128.098 -61.386,128.098 -61.386,128.956 -56.443,128.956 
		-54.337,125.046 -52.697,131.78 -50.701,126.837 -46.534,126.837 -46.534,125.985 -51.314,125.985 	"/>
</g>
</svg>
