<?xml version="1.0" encoding="utf-8"?>
<!-- Generator: Adobe Illustrator 19.0.0, SVG Export Plug-In . SVG Version: 6.00 Build 0)  -->
<svg version="1.1" id="Capa_1" xmlns="http://www.w3.org/2000/svg" xmlns:xlink="http://www.w3.org/1999/xlink" x="0px" y="0px"
	 width="34.603px" height="34.603px" viewBox="-70 107.847 34.603 34.603" enable-background="new -70 107.847 34.603 34.603"
	 xml:space="preserve">
<path fill="#444242" d="M-52.698,107.847c-9.54,0-17.301,7.761-17.301,17.301c0,9.54,7.761,17.302,17.301,17.302
	c9.54,0,17.301-7.762,17.301-17.302C-35.398,115.608-43.158,107.847-52.698,107.847z M-37,125.148c0,2.651-0.667,5.148-1.832,7.341
	v-14.682C-37.667,120-37,122.496-37,125.148z M-52.698,109.449c5.073,0,9.578,2.429,12.449,6.174
	c-4.188,2.008-8.266,4.15-12.191,6.477l-12.716-6.467C-62.285,111.882-57.776,109.449-52.698,109.449z M-52.44,130.258
	c-4.302-2.291-12.31-6.426-12.31-6.426v-4.859l12.29,6.358c0-0.081,11.928-6.312,11.928-6.312v4.75
	C-40.533,123.769-52.46,130.186-52.44,130.258z M-40.533,126.465v4.554c-4.259,2.247-7.895,3.942-11.908,6.488
	c-4.245-2.36-7.998-4.257-12.31-6.534v-4.554l12.29,6.506C-48.213,130.568-40.533,126.465-40.533,126.465z M-66.518,117.709v5.823
	v2.864v6.191c-1.197-2.215-1.879-4.749-1.879-7.439C-68.398,122.458-67.716,119.925-66.518,117.709z M-52.698,140.846
	c-5.729,0-10.736-3.094-13.478-7.689l13.716,6.992l13.211-6.947C-41.997,137.772-46.989,140.846-52.698,140.846z"/>
</svg>
