<?xml version="1.0" encoding="utf-8"?>
<!-- Generator: Adobe Illustrator 19.0.0, SVG Export Plug-In . SVG Version: 6.00 Build 0)  -->
<svg version="1.1" id="Capa_1" xmlns="http://www.w3.org/2000/svg" xmlns:xlink="http://www.w3.org/1999/xlink" x="0px" y="0px"
	 width="34.603px" height="34.603px" viewBox="-70 107.847 34.603 34.603" enable-background="new -70 107.847 34.603 34.603"
	 xml:space="preserve">
<g>
	<path fill="#444242" d="M-52.698,107.847c-9.54,0-17.301,7.761-17.301,17.301c0,9.54,7.761,17.302,17.301,17.302
		c9.54,0,17.301-7.762,17.301-17.302S-43.158,107.847-52.698,107.847z M-68.398,125.148c0-8.657,7.043-15.699,15.699-15.699
		S-37,116.492-37,125.148c0,1.311-0.179,2.578-0.483,3.796c0.141-0.523,0.111-1.126-0.168-1.833
		c-0.808-2.052-3.147-3.302-4.948-4.431c0.817-1.878,2.448-3.577,2.29-6.204c-0.167-2.759-3.305-3.118-5.908-2.141
		c-0.039,0.214,0.404,0.579,0.295,1.108c1.059-0.229,2.302-0.357,3.102,0.073c2.246,1.208,0.184,5.269-0.739,6.647
		c-1.401-0.666-2.821-1.314-4.431-1.772c-0.39-1.234-0.881-2.368-1.403-3.471c0.223-0.369,0.763-0.42,1.108-0.665
		c-0.167-0.252-0.341-0.496-0.369-0.886c-0.33-0.034-0.803,0.427-1.256,0.517c-1.13-1.95-2.659-4.836-4.874-5.761
		c-0.407-0.17-1.264-0.342-1.846-0.147c-2.615,0.871-2.921,4.779-3.028,8.345c-3.83,0.108-7.483,0.394-8.345,3.471v0.443
		c0.31,1.265,0.897,2.254,1.846,2.88c0.17-0.348,0.398-0.636,0.813-0.739c-0.316-0.765-0.928-1.166-0.887-2.141
		c0.103-2.412,4.029-2.781,6.647-2.954c0.084,1.343,0.249,2.607,0.443,3.84c-1.096,1.144-2.024,2.456-3.102,3.619
		c-0.464-0.249-0.833-0.595-1.329-0.813c-0.08,0.413-0.381,0.604-0.591,0.887c0.481,0.282,1.024,0.502,1.403,0.886
		c-0.947,1.591-2.618,3.952-2.289,6.425c0.07,0.524,0.238,0.94,0.482,1.267C-66.947,132.64-68.398,129.064-68.398,125.148z
		 M-52.568,117.509c-0.469,0.318-1.139,1.141-1.699,1.256c-0.612,0.126-1.433-0.217-2.142-0.296
		c-0.735-0.081-1.438-0.044-2.215-0.147c0.046-2.835,0.599-7.688,3.84-6.499c1.838,0.674,2.969,2.955,3.988,4.505
		C-51.242,116.86-51.893,117.05-52.568,117.509z M-50.354,117.288c0.566,0.714,0.785,1.775,1.256,2.585
		c-1.211-0.045-2.491-0.66-3.841-0.813C-52.24,118.305-51.208,117.886-50.354,117.288z M-55.375,119.577
		c-0.933,0.938-1.946,1.796-2.954,2.659c-0.166-0.892-0.187-1.93-0.295-2.88C-57.695,119.293-56.338,119.429-55.375,119.577z
		 M-57.812,128.735c-1.305-0.345-2.359-0.939-3.471-1.477c0.667-1.032,1.495-1.903,2.216-2.881
		C-58.473,125.655-58.299,127.351-57.812,128.735z M-57.369,129.916c0.369,1.281,0.917,2.382,1.404,3.545
		c-1.574,0.77-5.842,2.727-7.238,0.739c-1.313-1.871,0.622-4.695,1.403-6.056C-60.369,128.781-58.943,129.423-57.369,129.916z
		 M-56.261,130.286c1.247,0.353,2.53,0.67,3.84,0.96c-0.847,0.629-1.7,1.253-2.732,1.698
		C-55.51,132.046-55.959,131.24-56.261,130.286z M-56.705,129.178c-0.447-1.321-0.764-2.644-1.108-4.21
		c-0.102-0.466-0.363-1.015-0.295-1.403c0.095-0.545,1.282-1.471,1.772-1.92c0.867-0.793,1.585-1.246,2.29-1.846
		c1.964,0.276,3.727,0.753,5.391,1.329c0.386,1.322,0.786,2.673,1.108,4.136c0.097,0.442,0.345,1.067,0.295,1.403
		c-0.107,0.72-1.518,1.561-1.994,1.994c-0.795,0.722-1.379,1.309-2.142,1.846C-53.247,130.151-55.038,129.728-56.705,129.178z
		 M-47.177,127.996c0.391,0.717,0.313,1.902,0.369,2.954c-1.17,0.014-2.146-0.168-3.249-0.221
		C-49.18,129.735-48.021,129.023-47.177,127.996z M-47.62,121.571c1.167,0.162,2.39,0.908,3.471,1.403
		c-0.59,1.134-1.51,1.937-2.216,2.954C-46.89,124.581-47.057,122.878-47.62,121.571z M-46.217,127.258
		c0.089-0.539,0.977-1.18,1.477-1.773c0.642-0.762,1.065-1.511,1.551-1.994c1.285,0.938,3.257,1.957,3.84,3.545
		c0.277,0.755,0.145,1.686-0.295,2.216c-1.111,1.335-3.794,1.572-6.13,1.698c-0.076-0.653-0.152-1.225-0.222-1.846
		C-46.064,128.489-46.295,127.728-46.217,127.258z M-52.698,140.847c-4.704,0-8.921-2.09-11.8-5.378
		c1.801,2.193,7.266-0.011,8.976-1.122c1.519,2.493,2.781,5.245,5.982,6.056h0.295c2.125-0.336,2.703-2.22,3.176-4.209
		c-0.311-0.158-0.933-0.003-1.182-0.222c-0.46,1.243-0.968,2.599-2.363,2.659c-0.848,0.036-1.784-0.6-2.363-1.108
		c-1.132-0.993-2.027-2.639-2.659-3.619c1.172-0.822,2.408-1.58,3.545-2.437c1.351,0.273,2.908,0.341,4.357,0.517
		c0,0.517-0.125,0.909-0.074,1.477c0.203-0.018,0.728,0.049,1.034,0.148v-1.625c2.874-0.007,7.44-0.551,8.251-2.887
		C-39.281,135.845-45.408,140.847-52.698,140.847z"/>
	<path fill="#444242" d="M-47.325,116.328c1.352,0.011,1.525-2.485-0.369-1.994C-48.815,114.763-48.268,116.321-47.325,116.328z"/>
	<path fill="#444242" d="M-51.83,122.901c-0.397-0.13-0.978-0.115-1.477,0c-1.138,0.263-1.787,0.968-1.772,2.289
		c0.018,1.644,1.737,2.851,3.397,2.142C-49.823,126.538-50.046,123.485-51.83,122.901z"/>
	<path fill="#444242" d="M-63.869,125.412c-0.082-0.488-0.462-0.911-1.255-0.739c-0.572,0.124-0.812,0.398-0.812,0.96
		C-65.935,127.172-63.609,126.945-63.869,125.412z"/>
	<path fill="#444242" d="M-46.734,133.831c-0.563,0.126-0.81,0.413-0.812,0.96c-0.008,1.559,2.439,1.32,2.067-0.295
		C-45.575,134.082-45.963,133.658-46.734,133.831z"/>
</g>
</svg>
