<?xml version="1.0" encoding="utf-8"?>
<!-- Generator: Adobe Illustrator 19.0.0, SVG Export Plug-In . SVG Version: 6.00 Build 0)  -->
<svg version="1.1" id="Capa_1" xmlns="http://www.w3.org/2000/svg" xmlns:xlink="http://www.w3.org/1999/xlink" x="0px" y="0px"
	 width="34.603px" height="34.603px" viewBox="-70 107.847 34.603 34.603" enable-background="new -70 107.847 34.603 34.603"
	 xml:space="preserve">
<path fill="#444242" d="M-52.698,107.847c-9.54,0-17.301,7.761-17.301,17.301c0,9.54,7.761,17.302,17.301,17.302
	c9.54,0,17.301-7.762,17.301-17.302C-35.398,115.608-43.158,107.847-52.698,107.847z M-37,125.148c0,2.706-0.688,5.254-1.899,7.479
	l-13.394-23.158C-43.826,109.687-37,116.629-37,125.148z M-58.987,125.005c0.532-1.004,1.415-1.656,2.278-2.329
	c-0.449,1.663,0.039,3.183,1.02,4.205c0.009,0.009,0.017,0.019,0.026,0.028c0.163,0.167,0.337,0.321,0.525,0.459
	c0.005,0.004,0.011,0.007,0.016,0.011c0.171,0.124,0.352,0.232,0.54,0.33c0.037,0.019,0.073,0.039,0.11,0.057
	c0.197,0.095,0.401,0.179,0.613,0.242c0.017,0.005,0.034,0.008,0.051,0.012c0.192,0.055,0.389,0.093,0.59,0.12
	c0.057,0.008,0.113,0.015,0.171,0.02c0.221,0.021,0.444,0.03,0.672,0.015c0,0,0,0,0,0c0,0,0.001,0,0.001,0
	c0.002,0,0.003-0.001,0.005-0.001c0.186-0.013,0.37-0.044,0.553-0.083c0.048-0.01,0.096-0.022,0.144-0.034
	c0.167-0.042,0.331-0.094,0.492-0.157c0.016-0.006,0.033-0.011,0.048-0.017c0.181-0.074,0.356-0.163,0.526-0.262
	c0.029-0.017,0.057-0.035,0.085-0.052c0.162-0.099,0.317-0.208,0.465-0.329c0.006-0.005,0.012-0.009,0.018-0.014
	c0.164-0.136,0.317-0.284,0.459-0.445c0.003-0.003,0.006-0.007,0.009-0.01c0.43-0.487,0.75-1.083,0.907-1.76
	c0-0.002,0.001-0.003,0.002-0.005h0c0.157-0.683,0.151-1.445-0.09-2.264c0.885,0.414,1.79,1.314,2.372,2.264h-0.001
	c0.027,0.044,0.062,0.086,0.088,0.13c-0.997,1.512-2.524,2.929-4.627,3.412c-0.3,0.069-0.613,0.119-0.937,0.147
	c-0.439,0.038-0.86,0.044-1.262,0.022c-2.816-0.159-4.74-1.726-5.984-3.516C-59.071,125.128-59.023,125.073-58.987,125.005
	L-58.987,125.005z M-55.674,122.87c0.097-0.273,0.52-0.72,1.1-0.841c2.397-0.501,2.248,3.122,0.194,2.976
	C-55.114,124.953-56.163,124.238-55.674,122.87z M-51.792,120.524c-4.241-0.309-7.525,1.344-9.187,4.481
	c1.662-3.137,4.946-5.355,9.187-5.046c3.459,0.251,6.005,2.573,7.375,5.046C-45.787,122.532-48.333,120.775-51.792,120.524z
	 M-53.121,109.47l-13.377,23.158c-1.211-2.225-1.9-4.774-1.9-7.48C-68.398,116.634-61.581,109.697-53.121,109.47z M-52.698,140.846
	c-5.529,0-10.388-2.879-13.186-7.209h26.371C-42.311,137.967-47.171,140.846-52.698,140.846z"/>
</svg>
