<?xml version="1.0" encoding="utf-8"?>
<!-- Generator: Adobe Illustrator 19.0.0, SVG Export Plug-In . SVG Version: 6.00 Build 0)  -->
<svg version="1.1" id="Capa_1" xmlns="http://www.w3.org/2000/svg" xmlns:xlink="http://www.w3.org/1999/xlink" x="0px" y="0px"
	 width="6.434px" height="6.429px" viewBox="82.195 122.68 6.434 6.429" enable-background="new 82.195 122.68 6.434 6.429"
	 xml:space="preserve">
<g id="XMLID_1_">
	<path id="XMLID_2_" fill="#444242" d="M88.629,125.892c0,0.432-0.081,0.841-0.242,1.229c-0.161,0.389-0.396,0.736-0.703,1.044
		c-0.308,0.305-0.655,0.538-1.042,0.701c-0.387,0.162-0.795,0.243-1.226,0.243s-0.841-0.081-1.233-0.243
		c-0.391-0.163-0.739-0.396-1.043-0.701c-0.308-0.308-0.542-0.655-0.703-1.044c-0.161-0.388-0.242-0.797-0.242-1.229
		c0-0.427,0.081-0.835,0.242-1.224c0.161-0.388,0.396-0.735,0.703-1.044c0.305-0.304,0.652-0.538,1.042-0.7
		c0.39-0.163,0.798-0.244,1.226-0.244c0.431,0,0.839,0.081,1.226,0.241c0.387,0.162,0.737,0.396,1.05,0.703
		c0.308,0.309,0.542,0.656,0.703,1.044C88.548,125.057,88.629,125.465,88.629,125.892z M88.242,124.965h-2.158l-0.677-2.057
		l-0.668,2.057h-2.158l1.745,1.271l-0.672,2.069l1.753-1.278l1.762,1.278l-0.672-2.069L88.242,124.965z"/>
</g>
</svg>
