<?xml version="1.0" encoding="utf-8"?>
<!-- Generator: Adobe Illustrator 19.0.0, SVG Export Plug-In . SVG Version: 6.00 Build 0)  -->
<svg version="1.1" id="Capa_1" xmlns="http://www.w3.org/2000/svg" xmlns:xlink="http://www.w3.org/1999/xlink" x="0px" y="0px"
	 width="9.165px" height="9.167px" viewBox="0 0 9.165 9.167" enable-background="new 0 0 9.165 9.167" xml:space="preserve">
<path id="XMLID_2_" fill="#444242" d="M1.934,4.845c0.208,1.351,0.986,2.129,2.337,2.337V6.137C3.582,5.97,3.129,5.569,2.997,4.845
	H1.934 M7.131,4.845H6.102C5.907,5.512,5.53,5.995,4.795,6.12v1.062C6.144,6.974,6.923,6.196,7.131,4.845 M3.487,4.682
	c0.051,0.624,0.548,0.935,1.045,0.935c0.502,0,1.005-0.318,1.047-0.952c0.048-0.71-0.528-1.193-1.176-1.112
	C3.882,3.62,3.432,4.018,3.487,4.682 M4.238,1.986C2.917,2.211,2.137,2.978,1.934,4.322h1.062c0.131-0.723,0.585-1.124,1.275-1.29
	C4.25,2.694,4.314,2.269,4.238,1.986 M4.795,3.032c0.701,0.158,1.131,0.589,1.29,1.29h1.046C6.926,2.975,6.147,2.201,4.81,1.986
	C4.772,2.301,4.805,2.688,4.795,3.032 M4.583,0.006c-2.528,0-4.578,2.05-4.578,4.578c0,2.528,2.05,4.578,4.578,4.578
	S9.16,7.112,9.16,4.584C9.16,2.055,7.111,0.006,4.583,0.006z M7.67,4.845C7.404,6.491,6.478,7.477,4.795,7.705v0.54H4.271V7.721
	C2.625,7.456,1.64,6.529,1.411,4.845H0.872V4.322h0.523c0.266-1.646,1.191-2.631,2.876-2.859v-0.54h0.523v0.523
	C6.44,1.712,7.426,2.638,7.654,4.322h0.539v0.523H7.67z"/>
</svg>
