<?xml version="1.0" encoding="utf-8"?>
<!-- Generator: Adobe Illustrator 19.0.0, SVG Export Plug-In . SVG Version: 6.00 Build 0)  -->
<svg version="1.1" id="Capa_1" xmlns="http://www.w3.org/2000/svg" xmlns:xlink="http://www.w3.org/1999/xlink" x="0px" y="0px"
	 width="34.603px" height="34.603px" viewBox="-70 107.847 34.603 34.603" enable-background="new -70 107.847 34.603 34.603"
	 xml:space="preserve">
<g>
	<path fill="#444242" d="M-52.699,107.847c-9.54,0-17.301,7.761-17.301,17.301c0,9.54,7.761,17.302,17.301,17.302
		c9.54,0,17.302-7.762,17.302-17.302C-35.397,115.608-43.159,107.847-52.699,107.847z M-52.699,140.847
		c-8.657,0-15.699-7.042-15.699-15.699s7.043-15.699,15.699-15.699s15.698,7.043,15.698,15.699
		C-37.001,133.805-44.042,140.847-52.699,140.847z"/>
	<path fill="#444242" d="M-49.573,121.406h-6.263c-1.169,0-2.256,0.364-3.159,0.978v-3.535h-0.034c0-3.05,2.847-5.523,6.325-5.523
		c3.507,0,6.335,2.473,6.335,5.523h2.279c0-4.143-3.86-7.508-8.614-7.508c-4.735,0-8.599,3.365-8.599,7.508v4.607h-0.174v3.589
		v2.049v4.218c0,3.115,2.534,5.641,5.641,5.641h6.263c3.122,0,5.65-2.526,5.65-5.641v-4.218v-2.049v-3.589h-1.295
		C-46.259,122.203-47.82,121.406-49.573,121.406z M-51.88,130.853l0.909,4.67h-2.856l0.708-4.67
		c-0.809-0.263-1.411-1.019-1.411-1.925c0-1.12,0.906-2.028,2.033-2.028c1.113,0,2.023,0.908,2.023,2.028
		C-50.474,129.834-51.062,130.59-51.88,130.853z"/>
</g>
</svg>
