<svg width="512" height="512" viewBox="0 0 512 512" xmlns="http://www.w3.org/2000/svg">
<path transform="scale(1, -1) translate(0, -512)" unicode="&#xe900;" glyph-name="civilian" d="M511.985 960c-282.315 0-511.985-229.67-511.985-511.985s229.67-512.015 511.985-512.015c282.315 0 512.015 229.699 512.015 512.015s-229.699 511.985-512.015 511.985zM976.533 448.015c0-97.479-30.303-187.914-81.795-262.695v462.417h-269.916c0 13.997-7.931 27.285-21.425 37.997l129.202 171.017c145.123-78.658 243.934-232.363 243.934-408.736zM824.811 407.709c-8.819 0-15.891 6.895-15.891 15.862 0 8.641 7.073 15.921 15.891 15.921 8.789 0 15.862-7.28 15.862-15.921 0-8.967-7.073-15.862-15.862-15.862zM840.673 370.245c0-8.848-7.073-15.921-15.862-15.921-8.819 0-15.891 7.073-15.891 15.921 0 8.789 7.073 16.039 15.891 16.039 8.789 0 15.862-7.25 15.862-16.039zM815.489 481.1c-26.101 0-47.141 20.893-47.141 46.816 0 26.042 21.040 46.934 47.141 46.934 25.716 0 46.786-20.893 46.786-46.934 0-25.923-21.070-46.816-46.786-46.816zM768.348 438.072v-97.36c0-80.848-65.637-146.484-146.632-146.484h-248.313c-80.996 0-146.603 65.637-146.603 146.484v97.36c0 80.996 65.607 146.632 146.603 146.632h248.313c80.996 0 146.632-65.637 146.632-146.632zM718.217 863.675l-127.782-169.3c-21.248 12.074-50.604 19.324-83.067 19.324-28.32 0-54.244-5.534-74.603-14.856l-121.863 167.347c60.932 29.415 128.965 46.402 201.054 46.402 74.16 0 144.028-17.904 206.262-48.917zM296.579 859.266l122.396-167.998c-18.14-11.748-29.208-26.959-29.208-43.531h-260.565v-462.417c-51.491 74.781-81.795 165.246-81.795 262.695 0 178.445 101.237 333.452 249.171 411.251zM511.985-16.533c-140.477 0-266.335 62.914-351.592 161.754h39.447v-33.677h64.394c19.176 8.464 31.96 20.893 40.246 33.677h410.304c5.534-11.423 14.175-23.674 27.462-33.677h83.067v33.677h38.234c-85.257-98.84-211.086-161.754-351.563-161.754zM515.329 310.645l-40.069 215.169-89.104-165.098h-131.244v-25.391h146.277l62.322 115.708 48.532-199.278 59.067 146.277h123.313v25.213h-141.454z" />
</svg>