<svg width="512" height="512" viewBox="0 0 512 512" xmlns="http://www.w3.org/2000/svg">
<path transform="scale(1, -1) translate(0, -512)" unicode="&#xe901;" glyph-name="crime" d="M511.985 960c-282.315 0-511.985-229.67-511.985-511.985s229.67-512.015 511.985-512.015c282.315 0 512.015 229.699 512.015 512.015s-229.699 511.985-512.015 511.985zM511.985-16.563c-256.185 0-464.578 208.393-464.578 464.578s208.422 464.578 464.578 464.578 464.548-208.422 464.548-464.578c0-256.185-208.363-464.578-464.548-464.578zM604.492 558.751h-185.34c-34.594 0-66.761-10.772-93.484-28.942v104.611h-1.006c0 90.258 84.251 163.441 187.175 163.441 103.782 0 187.47-73.183 187.47-163.441h67.442c0 122.603-114.228 222.183-254.912 222.183-140.122 0-254.469-99.58-254.469-222.183v-136.334h-5.149v-291.667c0-92.182 74.988-166.933 166.933-166.933h185.34c92.389 0 167.199 74.751 167.199 166.933v291.667h-38.323c-30.806 37.080-77 60.665-128.877 60.665zM536.222 279.188l26.9-138.198h-84.517l20.952 138.198c-23.941 7.783-41.755 30.155-41.755 56.966 0 33.144 26.811 60.014 60.162 60.014 32.937 0 59.866-26.87 59.866-60.014 0-26.811-17.401-49.183-41.607-56.966z" />
</svg>