<svg width="512" height="512" viewBox="0 0 512 512" xmlns="http://www.w3.org/2000/svg">
<path transform="scale(1, -1) translate(0, -512)" unicode="&#xe90a;" glyph-name="drive_icon" d="M512-45.51c-272.581 0-493.51 220.929-493.51 493.51s220.929 493.51 493.51 493.51c272.581 0 493.51-220.929 493.51-493.51s-220.929-493.51-493.51-493.51zM616.903 354.663c37.677 51.255 95.492 91.626 174.395 93.939-10.6-157.727-95.967-240.592-230.467-274.403-2.218 66.006 20.328 131.711 56.072 180.464zM464.484 174.199c-135.086 32.369-223.052 118.323-230.467 274.403 148.364-12.137 222.656-125.833 230.467-274.403zM470.647 470.483c5.102 10.124 16.668 20.613 34.112 23.227 32.464 4.817 65.135-23.703 51.16-62.235-20.534-56.864-116.501-21.31-85.273 39.008zM676.635 671.765c45.282-34.112 79.109-76.21 96.348-130.555h-521.918c36.616 104.159 125.643 177.675 253.695 186.627 68.985 4.817 129.588-24.194 171.876-56.072zM490.104 819.273c-115.329-7.415-193.963-55.312-251.191-119.48-55.977-62.727-106.076-150.693-98.756-273.151 6.449-110.322 55.787-193.281 120.732-251.191 64.549-57.72 153.592-105.886 273.151-98.851 109.942 6.559 193.662 55.597 251.191 119.575 57.514 63.978 105.22 152.229 98.756 273.151-5.878 110.132-57.72 196.846-119.48 252.443-62.616 56.262-154.923 105.204-274.403 97.504z" />
</svg>