<svg width="512" height="512" viewBox="0 0 512 512" xmlns="http://www.w3.org/2000/svg">
<path transform="scale(1, -1) translate(0, -512)" unicode="&#xe909;" glyph-name="fist_icon" d="M511.832 960c-282.725 0-511.832-229.219-511.832-511.944 0-282.837 229.107-512.056 511.832-512.056s511.944 229.219 511.944 512.056c0 282.725-229.219 511.944-511.944 511.944zM592.483 775.575l82.55 21.782c1.676 0.447 3.463 0.67 5.138 0.67 13.293 0 26.698-12.734 31.501-31.054l119.078-450.060-135.833-36.974-119.301 450.953c-5.474 20.777 2.122 40.772 16.867 44.682zM325.62 197.278l-82.438-21.782c-14.857-3.91-30.607 7.037-35.187 24.575l-107.125 404.596c-4.468 17.426 3.686 34.74 18.431 38.538l82.438 21.894c2.011 0.559 4.133 0.782 6.144 0.782 12.846 0 25.022-10.165 29.043-25.245l107.013-404.707c4.58-17.426-3.686-34.74-18.32-38.65zM488.151 215.374l-82.438-21.782c-14.745-3.91-30.831 8.154-35.857 27.033l-115.615 437.772c-5.027 18.766 2.904 37.309 17.538 41.219l82.55 21.782c1.899 0.447 3.798 0.782 5.697 0.782 12.958 0 25.804-11.282 30.049-27.815l115.838-437.772c5.027-18.878-2.904-37.309-17.761-41.219zM532.498 249.556l-127.232 481.337c-5.585 20.777 2.122 40.772 16.756 44.682l82.55 21.782c1.676 0.447 3.463 0.67 5.138 0.67 13.293 0 26.698-12.734 31.501-31.054l127.455-481.449c1.229-4.692-0.335-8.378-0.335-12.846l-106.79-29.043c-7.484-2.011-13.069-7.819-17.873-14.075-4.803 5.362-8.936 11.841-11.171 19.995zM899.561 175.496l-297.359-81.098c-12.846-3.463-26.474 5.697-30.495 20.442l-22.453 82.327c-4.021 14.745 3.128 29.49 15.974 32.953l297.359 81.098c1.899 0.559 3.686 0.782 5.585 0.782 10.947 0 21.447-8.601 24.91-21.224l22.453-82.327c3.91-14.745-3.239-29.49-15.974-32.953z" />
</svg>