<svg width="512" height="512" viewBox="0 0 512 512" xmlns="http://www.w3.org/2000/svg">
<path transform="scale(1, -1) translate(0, -512)" unicode="&#xe902;" glyph-name="law" d="M511.985 960c-282.315 0-511.985-229.67-511.985-511.985s229.67-512.015 511.985-512.015c282.315 0 512.015 229.699 512.015 512.015s-229.699 511.985-512.015 511.985zM511.985-16.563c-256.185 0-464.578 208.393-464.578 464.578s208.422 464.578 464.578 464.578 464.548-208.422 464.548-464.578c0-256.185-208.363-464.578-464.548-464.578zM855.025 325.767c1.509 257.635-60.843 451.438-251.539 516.868 0.030 0.355 0.473 0.681 0.473 1.065 0 16.927-23.438 30.984-55.812 36.429-5.060 14.944-14.589 26.929-28.32 26.929s-23.26-11.955-28.32-26.929c-32.434-5.415-55.901-19.502-55.901-36.429 0-0.266 0.326-0.503 0.326-0.769-127.575-44.626-247.603-170.307-275.568-509.411-1.509-18.2 0.473-12.755-25.716-39.506 17.637-10.121 285.955-240.382 406.901-302.557 24.68 23.645 287.553 245.384 292.791 249.112 15.359 14.974 36.784 35.571 46.402 43.59 0 0-25.805 23.082-25.716 41.607zM656.309 607.638v-76.764c-15.24 34.121-42.643 61.494-76.764 76.764h76.764zM517.785 664.989l54.451-54.451c-16.957 6.54-35.215 10.476-54.451 10.476-19.265 0-37.524-3.965-54.48-10.505l54.48 54.48zM456.025 607.638c-34.121-15.24-61.494-42.614-76.764-76.764v76.764h76.764zM376.391 523.595c-6.54-16.957-10.505-35.215-10.505-54.48 0-19.295 3.965-37.583 10.535-54.569l-54.54 54.54 54.51 54.51zM379.261 407.354c15.24-34.121 42.643-61.494 76.764-76.764h-76.764v76.764zM517.756 273.21l-54.54 54.54c16.986-6.57 35.275-10.535 54.569-10.535 19.265 0 37.524 3.965 54.48 10.505l-54.51-54.51zM579.546 330.591c34.121 15.24 61.494 42.614 76.764 76.764v-76.764h-76.764zM659.18 414.634c6.54 16.957 10.505 35.215 10.505 54.48s-3.965 37.494-10.476 54.451l54.451-54.451-54.48-54.48z" />
</svg>