<svg width="512" height="512" viewBox="0 0 512 512" xmlns="http://www.w3.org/2000/svg">
<path transform="scale(1, -1) translate(0, -512)" unicode="&#xe906;" glyph-name="military" d="M512.015 960c-282.315 0-511.985-229.67-511.985-511.985s229.67-512.015 511.985-512.015c282.315 0 511.985 229.699 511.985 512.015-0.030 282.315-229.67 511.985-511.985 511.985zM976.563 448.015c0-78.451-19.738-152.344-54.214-217.241v434.482c34.476-64.897 54.214-138.761 54.214-217.241zM512.015 912.592c150.124 0 283.44-71.881 368.401-182.706-123.935-59.422-244.614-122.81-360.766-191.673l-376.302 191.377c84.961 111.003 218.395 183.002 368.667 183.002zM519.65 296.796c-127.308 67.797-364.287 190.163-364.287 190.163v143.791l363.696-188.151c0 2.397 352.983 186.79 352.983 186.79v-140.566c-0.030 0-352.983-189.897-352.391-192.028zM872.011 409.041v-134.766c-126.036-66.495-233.635-116.655-352.391-191.998-125.621 69.839-236.683 125.977-364.287 193.359v134.766l363.696-192.531c125.71 69.75 352.983 191.17 352.983 191.17zM103.042 668.156v-440.282c-35.423 65.548-55.605 140.536-55.605 220.141-0.030 79.605 20.153 154.563 55.605 220.141zM512.015-16.533c-169.537 0-317.708 91.56-398.852 227.539l405.895-206.913 390.951 205.581c-81.321-135.239-229.048-226.207-397.994-226.207z" />
</svg>