<svg width="512" height="512" viewBox="0 0 512 512" xmlns="http://www.w3.org/2000/svg">
<path transform="scale(1, -1) translate(0, -512)" unicode="&#xe904;" glyph-name="secret" d="M512.015 960c-282.315 0-511.985-229.67-511.985-511.985s229.67-512.015 511.985-512.015c282.315 0 511.985 229.699 511.985 512.015-0.030 282.315-229.67 511.985-511.985 511.985zM976.563 448.015c0-80.078-20.36-155.481-56.197-221.325l-396.366 685.31c250.562-6.451 452.563-211.885 452.563-463.986zM325.906 452.247c15.743 29.711 41.874 49.006 67.412 68.922-13.287-49.213 1.154-94.194 30.185-124.438 0.266-0.266 0.503-0.562 0.769-0.829 4.824-4.942 9.973-9.499 15.536-13.583 0.148-0.118 0.326-0.207 0.473-0.326 5.060-3.67 10.417-6.866 15.98-9.766 1.095-0.562 2.16-1.154 3.255-1.687 5.83-2.811 11.867-5.297 18.14-7.161 0.503-0.148 1.006-0.237 1.509-0.355 5.682-1.628 11.512-2.752 17.46-3.551 1.687-0.237 3.344-0.444 5.060-0.592 6.54-0.621 13.139-0.888 19.886-0.444 0 0 0 0 0 0s0.030 0 0.030 0c0.059 0 0.089 0.030 0.148 0.030 5.504 0.385 10.949 1.302 16.365 2.456 1.42 0.296 2.841 0.651 4.261 1.006 4.942 1.243 9.795 2.782 14.56 4.646 0.473 0.178 0.977 0.326 1.42 0.503 5.356 2.19 10.535 4.824 15.566 7.753 0.858 0.503 1.687 1.036 2.515 1.539 4.794 2.93 9.381 6.155 13.761 9.736 0.178 0.148 0.355 0.266 0.533 0.414 4.853 4.025 9.381 8.404 13.583 13.169 0.089 0.089 0.178 0.207 0.266 0.296 12.725 14.412 22.195 32.049 26.841 52.083 0 0.059 0.030 0.089 0.059 0.148v0c4.646 20.212 4.469 42.762-2.663 66.998 26.19-12.251 52.971-38.885 70.194-66.998h-0.030c0.799-1.302 1.835-2.545 2.604-3.847-29.504-44.744-74.692-86.677-136.926-100.971-8.878-2.042-18.14-3.522-27.728-4.35-12.991-1.125-25.45-1.302-37.346-0.651-83.333 4.705-140.27 51.077-177.083 104.048 0.917 2.16 2.338 3.788 3.403 5.8v0zM423.947 515.427c2.871 8.079 15.388 21.307 32.552 24.888 70.934 14.826 66.525-92.389 5.741-88.068-21.721 1.539-52.764 22.698-38.293 63.181zM538.826 584.852c-125.503 9.144-222.686-39.773-271.869-132.605 49.183 92.833 146.366 158.469 271.869 149.325 102.362-7.428 177.705-76.142 218.247-149.325-40.542 73.183-115.885 125.178-218.247 132.605zM499.497 911.971l-395.863-685.31c-35.837 65.844-56.226 141.276-56.226 221.354 0 251.953 201.734 457.239 452.089 463.956zM512.015-16.533c-163.619 0-307.41 85.198-390.211 213.335h780.392c-82.801-128.137-226.622-213.335-390.181-213.335z" />
</svg>