<svg width="512" height="512" viewBox="0 0 512 512" xmlns="http://www.w3.org/2000/svg">
<path transform="scale(1, -1) translate(0, -512)" unicode="&#xe907;" glyph-name="star_icon" horiz-adv-x="1025" d="M1024.796 448.398c0-68.808-12.902-133.953-38.545-195.753-25.644-61.959-63.074-117.229-111.973-166.287-49.058-48.58-104.327-85.692-165.968-111.654-61.641-25.803-126.626-38.705-195.275-38.705s-133.953 12.902-196.39 38.705c-62.278 25.962-117.707 63.074-166.127 111.654-49.058 49.058-86.329 104.327-111.973 166.287-25.644 61.8-38.545 126.945-38.545 195.753 0 68.012 12.902 132.997 38.545 194.957 25.644 61.8 63.074 117.070 111.973 166.287 48.58 48.421 103.849 85.692 165.968 111.495 62.119 25.962 127.104 38.864 195.275 38.864 68.649 0 133.634-12.902 195.275-38.386 61.641-25.803 117.388-63.074 167.242-111.973 49.058-49.217 86.329-104.487 111.973-166.287 25.644-61.959 38.545-126.945 38.545-194.957zM963.156 596.049h-343.723l-107.831 327.635-106.398-327.635h-343.723l277.941-202.443-107.035-329.547 279.215 203.558 280.648-203.558-107.035 329.547 277.941 202.443z" />
</svg>