<svg width="512" height="512" viewBox="0 0 512 512" xmlns="http://www.w3.org/2000/svg">
<path transform="scale(1, -1) translate(0, -512)" unicode="&#xe908;" glyph-name="target_icon" d="M216.038 418.789c23.235-150.913 110.141-237.82 261.055-261.055v116.732c-76.965 18.655-127.567 63.448-142.312 144.323h-118.742zM796.569 418.789h-114.944c-21.782-74.507-63.895-128.461-145.998-142.424v-118.631c150.69 23.235 237.708 110.141 260.943 261.055zM389.515 436.997c5.697-69.704 61.214-104.444 116.732-104.444 56.076 0 112.264 35.522 116.955 106.343 5.362 79.311-58.98 133.264-131.365 124.216-58.198-7.484-108.466-51.943-102.322-126.115zM473.406 738.154c-147.562-25.134-234.692-110.811-257.368-260.943h118.631c14.633 80.763 65.347 125.556 142.424 144.099-2.346 37.756 4.803 85.231-3.686 116.843zM535.626 621.31c78.305-17.649 126.338-65.794 144.099-144.099h116.843c-22.9 150.467-109.918 236.926-259.267 260.943-4.245-35.187-0.559-78.417-1.676-116.843zM511.944 959.33c-282.39 0-511.386-228.995-511.386-511.386s228.995-511.386 511.386-511.386 511.274 228.995 511.274 511.386c0 282.502-228.884 511.386-511.274 511.386zM856.778 418.789c-29.714-183.866-133.152-294.008-321.152-319.476v-60.321h-58.533v58.533c-183.866 29.602-293.896 133.152-319.476 321.264h-60.209v58.422h58.422c29.714 183.866 133.041 293.896 321.264 319.365v60.321h58.422v-58.422c183.866-29.714 294.008-133.152 319.476-321.264h60.209v-58.422h-58.422z" />
</svg>