<svg width="512" height="512" viewBox="0 0 512 512" xmlns="http://www.w3.org/2000/svg">
<path transform="scale(1, -1) translate(0, -512)" unicode="&#xe905;" glyph-name="unknown" d="M1046.579 707.218c-9.558 33.203-60.192 44.508-103.604 45.573-1.924 0.059-3.936-0.148-5.859-0.118-93.395 125.533-242.424 207.327-410.541 207.327-282.315 0-511.985-229.67-511.985-511.985 0-42.88 5.889-84.31 15.862-124.142-19.798-24.532-36.31-51.284-44.774-78.717v-24.888c17.371-35.275 58.949-44.389 108.132-44.626 90.761-143.703 250.592-239.643 432.765-239.643 282.315 0 512.015 229.699 512.015 512.015 0 58.594-10.387 114.702-28.587 167.199 15.033 20.419 27.817 42.436 36.577 67.146v24.858zM526.574 912.592c141.246 0 267.726-63.565 353.013-163.382-77.533-9.115-157.345-34.002-208.067-48.207 16.779-7.221 26.929-30.954 49.746-35.215 15.329-2.9 34.535 4.025 49.716 4.143 43.886 0.296 97.094-10.979 101.533-55.96 5.149-51.876-61.76-113.814-103.604-147.106-89.844-71.526-200.61-130.12-325.314-171.993-61.819-20.745-138.938-43.59-213.423-35.215-32.907 3.699-67.028 22.55-70.431 53.859-6.54 60.014 48.769 86.026 72.502 122.248-0.917 20.301 1.391 37.317 4.143 53.889-47.348-24.503-96.768-61.523-142.963-101.533-7.813-6.777-15.803-14.175-23.763-21.869-4.735 26.604-7.665 53.829-7.665 81.765 0 256.185 208.422 464.578 464.578 464.578zM526.574-16.533c-155.569 0-293.176 77.119-377.545 194.839 92.034 8.345 186.346 38.204 267.637 68.922 172.378 65.193 328.658 146.129 462.062 246.567 32.966 24.828 66.022 50.337 94.845 79.131 11.156-39.802 17.549-81.587 17.549-124.911 0-256.155-208.363-464.548-464.548-464.548zM677.735 444.049c32.996 21.188 68.567 41.874 91.175 72.532-37.76 104.255-121.774 190.519-261.068 180.279-135.801-10.002-236.595-121.982-236.21-254.883 0.178-62.204 18.466-106.090 49.716-145.034 136.926 27.64 255.859 82.564 356.386 147.106zM771.011 381.904c-106.741-67.294-227.598-120.502-352.243-169.922 164.654-70.697 325.255 33.943 354.315 167.85-0.118 1.272-0.296 2.456-2.071 2.071z" />
</svg>