<?xml version="1.0" encoding="utf-8"?>
<!-- Generator: Adobe Illustrator 19.0.0, SVG Export Plug-In . SVG Version: 6.00 Build 0)  -->
<svg version="1.1" id="Capa_1" xmlns="http://www.w3.org/2000/svg" xmlns:xlink="http://www.w3.org/1999/xlink" x="0px" y="0px"
	 width="443.0880127px" height="397.7367859px" viewBox="0 0 443.0880127 397.7367859"
	 enable-background="new 0 0 443.0880127 397.7367859" xml:space="preserve">
<g id="XMLID_31_" opacity="0.3">
	<path id="XMLID_8_" opacity="0.2" fill="#FFFFFF" d="M306.9450684,32.1570129
		c0.0719604-13.059021-3.0870361-22.8870239-12.7530518-26.1990356l0.0270386-0.0540161
		c0-0.8639526-1.1879883-1.5749512-2.835022-1.8540039c-0.2520142-0.7559814-0.7379761-1.3589478-1.4309692-1.3589478
		c-0.7020264,0-1.1790161,0.6029663-1.4400024,1.3589478c-1.6380005,0.2790527-2.835022,0.9900513-2.835022,1.8540039
		l0.0180054,0.0360107c-6.4619751,2.2590332-12.5460205,8.6310425-13.9680176,25.8209839
		c-0.0719604,0.9180298,0.0270386,0.6480103-1.3049927,1.9980469c0.9000244,0.5219727,14.4990234,12.1859741,20.6279907,15.3359985
		c1.2510376-1.1970215,14.5800171-12.4290161,14.8410034-12.6270142c0.78302-0.7559814,1.8630371-1.7999878,2.348999-2.2050171
		C308.2410278,34.26297,306.9360352,33.0929871,306.9450684,32.1570129z M282.6486206,27.6183777l-2.730957-2.7329712
		l2.7329712-2.7330322c-0.322998,0.8500366-0.5009766,1.7709961-0.5009766,2.7330322
		C282.1496582,25.8483582,282.3266602,26.7684021,282.6486206,27.6183777z M282.8249512,31.9139709v-3.8689575
		c0.7709961,1.7159424,2.1519775,3.0969849,3.8659668,3.8689575H282.8249512z M282.8249512,21.730011v-3.8650513h3.8659668
		C284.9769287,18.6359558,283.5959473,20.0169983,282.8249512,21.730011z M289.8446655,34.8213806l-2.7280273-2.7310181
		c0.8480225,0.3220215,1.7680054,0.4990234,2.7280273,0.4990234c0.9619751,0,1.8809814-0.177002,2.7299805-0.4979858
		L289.8446655,34.8213806z M289.8446655,17.1903992c-0.9620361,0-1.882019,0.177002-2.7319946,0.5l2.7319946-2.7319946
		l2.7339478,2.7299805C291.7286377,17.3674011,290.8076172,17.1903992,289.8446655,17.1903992z M296.8649292,31.9139709h-3.8599854
		c1.7089844-0.7689819,3.0859985-2.1430054,3.8599854-3.848999V31.9139709z M296.8649292,21.710968
		c-0.7739868-1.7039795-2.151001-3.0769653-3.8599854-3.8460083h3.8599854V21.710968z M297.0516357,27.6144104
		c0.3209839-0.8480225,0.4970093-1.7680054,0.4970093-2.7290039c0-0.9620361-0.177002-1.8800049-0.4990234-2.7290039
		l2.7310181,2.7290039L297.0516357,27.6144104z"/>
	<path id="XMLID_72_" opacity="0.2" fill="#FFFFFF" d="M154.8990173,38.0159912
		c0.0090027,14.3280029,11.618988,25.9470215,25.9559937,25.9470215v-1.1970215v-1.2059937
		c-6.5069885,0-12.3840027-2.6279907-16.6499939-6.8940125c-1.3940125-1.3939819-2.6140137-2.9599915-3.6230164-4.664978
		l-0.4539795-0.2310181v-0.5709839c-1.7980042-3.3250122-2.8170166-7.132019-2.8170166-11.1830139
		s1.0190125-7.8609924,2.8170166-11.1879883V22.697998l2.0109863,1.0230103
		c0.6360168-0.82901,1.3260193-1.6170044,2.0660095-2.355011c4.2659912-4.2659912,10.1430054-6.9029846,16.6499939-6.9029846
		s12.3840027,2.6369934,16.6500244,6.9029846c0.7319946,0.7309875,1.4169922,1.5090027,2.0479736,2.3309937
		c0.697998-0.3359985,1.3980103-0.6690063,2.1010132-0.9989929v4.2600098
		c1.7579956,3.29599,2.7539673,7.0589905,2.7539673,11.0579834c0,3.9990234-0.9959717,7.7600098-2.7539673,11.0550232v0.6989746
		l-0.5620117,0.2950134c-1.0039673,1.6799927-2.210022,3.223999-3.5869751,4.6009827
		c-4.2660217,4.2660217-10.1430359,6.8940125-16.6500244,6.8940125v1.2059937v1.1970215
		c14.3370056,0,25.9559937-11.6190186,25.9559937-25.9470215c0-14.3370056-11.618988-25.9559937-25.9559937-25.9559937
		S154.90802,23.6789856,154.8990173,38.0159912"/>
	<path id="XMLID_68_" opacity="0.2" fill="#FFFFFF" d="M162.7825012,46.7550049v-6.8309937l18.4320068,9.7559814
		c6.3720093-3.5369873,17.8930054-9.6929932,17.8930054-9.6929932v6.8309937
		c-6.3909912,3.375-11.8450012,5.9129944-17.8659973,9.7380066
		C174.8785095,53.0100098,169.2445068,50.1659851,162.7825012,46.7550049 M162.7825012,36.0360107v-7.2810059l18.4320068,9.5310059
		c0-0.1170044,17.8930054-9.4680176,17.8930054-9.4680176v7.1280212c0,0-17.8930054,9.6209717-17.8659973,9.7289734
		C174.7885132,42.2460022,162.7825012,36.0360107,162.7825012,36.0360107 M199.5525208,23.696991
		c-6.2900085,3.0190125-12.4140015,6.2480164-18.3110046,9.7470093l-19.1019897-9.7229919l-2.0110168-1.0230103v4.1300049v8.7579956
		v4.302002v9.3110046v0.5709839l0.4530029,0.2310181l20.6329956,10.5149841l19.8770142-10.4509888l0.5629883-0.2950134v-0.6989746
		V26.9580078V22.697998C200.9515076,23.0279846,200.2505188,23.3609924,199.5525208,23.696991"/>
	<g id="XMLID_9_">
		<path id="XMLID_10_" opacity="0.2" fill="#FFFFFF" d="M23.4355469,214.6585999
			c0.0629883,0.0050049,0.125,0.0079956,0.18396,0.0079956c0.2120361,0,0.40802-0.0280151,0.5900269-0.0800171
			c0.9810181-0.276001,1.5239868-1.2340088,1.5750122-2.1870117c0.0019531-0.0349731,0.0039673-0.0709839,0.0039673-0.105957
			c0.0180054-1.0289917-0.5419922-2.0300293-1.7470093-2.1550293c-0.0829468-0.0079956-0.1689453-0.0130005-0.2579956-0.0130005
			h-0.0009766c-0.1690063,0-0.348999,0.0159912-0.5410156,0.0499878c-0.0339966,0.0060425-0.0670166,0.0120239-0.1029663,0.019043
			c-0.8640137,0.1799927-1.5020142,0.8460083-1.6470337,1.2600098c-0.125,0.3529663-0.1820068,0.677002-0.1859741,0.9719849
			C21.2875366,213.8465881,22.5185547,214.5915833,23.4355469,214.6585999z"/>
		<path id="XMLID_14_" opacity="0.2" fill="#FFFFFF" d="M17.8146362,216.7280579
			c-0.2828979-0.2929688-0.5506592-0.5957642-0.8026123-0.9072876c-0.2315063-0.2860107-0.4532471-0.5770264-0.6594849-0.8736572
			C16.7834473,215.566803,17.2718506,216.1661072,17.8146362,216.7280579z"/>
		<path id="XMLID_17_" opacity="0.2" fill="#FFFFFF" d="M25.9560547,188.9189758
			c-14.3370361,0-25.9470215,11.6190186-25.9560547,25.9559937c0.0090332,14.3280029,11.6190186,25.9470215,25.9560547,25.9470215
			c14.3369751,0,25.9559937-11.6190186,25.9559937-25.9470215
			C51.9120483,200.5379944,40.2930298,188.9189758,25.9560547,188.9189758z M49.5090332,214.8749695
			c0,4.0686646-1.0298462,7.8903198-2.8464966,11.2271118L26.555542,191.329071v-0.000061
			c6.2676392,0.1571045,11.9155884,2.7611084,16.0504761,6.8869629
			C46.8720093,202.4819641,49.5090332,208.3680115,49.5090332,214.8749695z M25.8615112,207.0480652
			c0.0900269-0.0009766,0.1799927-0.0019531,0.2709961-0.0019531c0.0320435,0,0.0650024,0.0009766,0.0970459,0.0009766
			c0.1309814,0.0009766,0.2599487,0.0029907,0.3919678,0.007019c0.2290039,0.006958,0.460022,0.0189819,0.6929932,0.0360107
			c5.1929932,0.3779907,9.0090332,3.8609619,11.0610352,7.5689697v0.3870239
			c-2.2860107,3.9499512-6.2369995,7.6519775-12.2080078,7.6519775c-0.75,0-1.5300293-0.059021-2.3450317-0.1820068
			c-4.9859619-0.7559814-8.1439819-3.7709961-10.2860107-7.4699707v-0.3870239
			c0.0720215-0.1380005,0.1470337-0.2750244,0.2250366-0.4099731
			C16.114502,210.1180725,20.3835449,207.1430969,25.8615112,207.0480652z M26.2828979,190.8586121l-0.3361816-0.5801392
			l0.0003052-0.0004883L26.2828979,190.8586121z M9.3060303,198.2159729
			c4.1308594-4.1218872,9.7716675-6.7248535,16.0335693-6.8859863l-0.000061,0.0001221L5.2508545,226.0986023
			c-1.8119507-3.3348389-2.8388062-7.1567993-2.8388062-11.2236328
			C2.4120483,208.3680115,5.0400391,202.4819641,9.3060303,198.2159729z M42.6060181,231.5249939
			c-4.2659912,4.257019-10.1430054,6.8939819-16.6499634,6.8939819c-6.507019,0-12.3840332-2.6369629-16.6500244-6.8939819
			c-1.1899414-1.1899414-2.2518311-2.5049438-3.164917-3.9238892h39.6318359
			C44.8588257,229.02005,43.7959595,230.3350525,42.6060181,231.5249939z M47.5284424,227.6009827l-0.3276978-0.5671997
			l0.3283081,0.5671997H47.5284424z"/>
		<path id="XMLID_62_" opacity="0.2" fill="#FFFFFF" d="M26.0325317,220.2370911h-0.0009766
			c-3.6039429,0-6.2783813-1.5020752-8.2169189-3.5090332c1.9385376,2.0074463,4.6129761,3.5095215,8.2169189,3.5095215h0.0009766
			h0.0009766c0.3829956,0,0.7770386-0.0169678,1.1820068-0.0529785c3.8359985-0.3270264,6.5560303-2.6699829,8.2709961-5.2150269
			c0.0270386-0.0409546,0.0549927-0.0809937,0.0809937-0.1220093c-0.8639526-1.4939575-2.3039551-2.93396-3.6889648-3.5909424
			c0.2059937,0.7029419,0.3009644,1.3799438,0.2990112,2.0229492c-0.0050049,3.4680176-2.7969971,5.934021-5.7350464,6.1310425
			c-0.1430054,0.0089722-0.282959,0.0149536-0.4229736,0.0149536c-0.0629883,0-0.1259766-0.0009766-0.1879883-0.0029907
			c-3.5950317-0.1069946-6.5490112-3.2689819-6.0950317-7.1799927c0.0410156-0.3529663,0.1090088-0.7119751,0.2070312-1.0759888
			c-1.3850098,1.0709839-2.8250122,2.0880127-3.5910034,3.7799683c0.2062988,0.296814,0.4279785,0.5880127,0.6594849,0.8742065
			C18.9918213,218.2662048,21.9078979,220.2370911,26.0325317,220.2370911z"/>
	</g>
	<g id="XMLID_3_">
		<path id="XMLID_55_" opacity="0.2" fill="#FFFFFF" d="M81.1620483,74.3669739
			c-14.3370361,0-25.9559937,11.6190186-25.9559937,25.9559937c0,14.3280029,11.6189575,25.9470215,25.9559937,25.9470215
			c14.3369751,0,25.9559937-11.6190186,25.9559937-25.9470215C107.118042,85.9859924,95.4990234,74.3669739,81.1620483,74.3669739z
			 M97.8120117,116.9729919c-4.2659912,4.2659912-10.1430054,6.8939819-16.6499634,6.8939819
			c-6.507019,0-12.3840332-2.6279907-16.6500244-6.8939819s-6.8939819-10.1430054-6.8939819-16.6500244
			c0-6.506958,2.6279907-12.3930054,6.8939819-16.6499634c4.2659912-4.2659912,10.1430054-6.9030151,16.6500244-6.9030151
			c6.506958,0,12.3839722,2.6370239,16.6499634,6.9030151c4.2659912,4.256958,6.894043,10.1430054,6.9030151,16.6499634
			C104.7060547,106.8299866,102.0780029,112.7070007,97.8120117,116.9729919z"/>
		<path id="XMLID_58_" opacity="0.2" fill="#FFFFFF" d="M103.7340088,103.2659607
			c-1.2149658-3.0780029-4.7249756-4.9499512-7.4249878-6.651001c1.223999-2.8169556,3.6719971-5.3639526,3.4379883-9.2969971
			c-0.1699829-2.7999878-2.3769531-3.9530029-4.9970093-3.9530029c-1.2529907,0-2.6029663,0.2650146-3.867981,0.7400513
			c-0.0540161,0.3150024,0.6119995,0.8639526,0.440979,1.6559448c0.8250122-0.177002,1.7230225-0.3129883,2.5620117-0.3129883
			c0.7820435,0,1.5140381,0.118042,2.0910034,0.4299927c3.375,1.809021,0.2789917,7.9020386-1.1069946,9.9630127
			c-2.0969849-0.9989624-4.2299805-1.9710083-6.6419678-2.6549683c-0.585022-1.8540039-1.322998-3.5549927-2.1060181-5.2109985
			c0.3330078-0.5490112,1.1430054-0.6300049,1.664978-0.9900513c-0.2519531-0.3779907-0.5130005-0.7469482-0.5579834-1.3319702
			c-0.0189819-0.0020142-0.0369873-0.0029907-0.0570068-0.0029907c-0.4909668,0-1.1740112,0.6469727-1.8239746,0.7769775
			c-1.7009888-2.9249878-3.9869995-7.2539673-7.3170166-8.6400146c-0.4210205-0.1739502-1.15802-0.3509521-1.8610229-0.3509521
			c-0.3189697,0-0.6300049,0.0359497-0.9019775,0.1259766c-3.9240112,1.3140259-4.3829956,7.1729736-4.5449829,12.5189819
			c-5.7420044,0.1620483-11.2230225,0.5939941-12.519043,5.2109985v0.6660156
			c0.4680176,1.8900146,1.3500366,3.375,2.7720337,4.3200073c0.2520142-0.5219727,0.5939941-0.9539795,1.2149658-1.1069946
			c-0.4679565-1.1519775-1.3859863-1.7550049-1.322998-3.2130127c0.1530151-3.617981,6.0390015-4.1759644,9.9630127-4.4370117
			c0.1260376,2.0159912,0.3779907,3.9150391,0.6660156,5.7600098c-1.6380005,1.7189941-3.03302,3.6900024-4.6530151,5.427002
			c-0.6929932-0.3690186-1.2509766-0.8909912-1.9890137-1.2149658c-0.1259766,0.6209717-0.5759888,0.9089966-0.8909912,1.3319702
			c0.7200317,0.4229736,1.5390015,0.7559814,2.1060181,1.322998c-1.4219971,2.3939819-3.9240112,5.9310303-3.4290161,9.6389771
			c0.3389893,2.559021,2.2269897,3.4280396,4.5570068,3.4280396c3.4819946,0,7.9520264-1.94104,9.7260132-3.0950317
			c2.2860107,3.7440186,4.1759644,7.8660278,8.9730225,9.0809937h0.4499512
			c3.1860352-0.5039673,4.0500488-3.3299561,4.7610474-6.30896c-0.4680176-0.2340088-1.4040527-0.0090332-1.7730103-0.3330078
			c-0.6929932,1.8629761-1.4490356,3.8969727-3.5460205,3.9869995c-0.0339966,0.0020142-0.0689697,0.0020142-0.1040039,0.0020142
			c-1.2409668,0-2.59198-0.9230347-3.4420166-1.6669922c-1.6919556-1.4850464-3.0419922-3.9510498-3.9869995-5.427002
			c1.7550049-1.2330322,3.6090088-2.3670044,5.3190308-3.6540527c2.0249634,0.4140015,4.3649902,0.5130005,6.5339966,0.7740479
			c0,0.7739868-0.1890259,1.367981-0.1080322,2.2139893c0.0310059-0.0029907,0.0680542-0.0050049,0.1100464-0.0050049
			c0.3549805,0,1.0269775,0.1010132,1.4379883,0.2299805v-2.4389648
			C96.8850098,110.5649719,106.1190186,109.3229675,103.7340088,103.2659607z M86.5620117,92.4119568
			c-1.8179932-0.0719604-3.7349854-0.9899902-5.7600098-1.223999c1.0440063-1.1339722,2.6010132-1.7549438,3.8790283-2.6549683
			C85.5270386,89.6039734,85.8600464,91.196991,86.5620117,92.4119568z M76.6190186,80.0589905
			c0.4280396,0,0.8970337,0.0869751,1.4110107,0.2749634c2.7630005,1.0080566,4.4550171,4.4370117,5.9849854,6.7590332
			c-0.6660156,0.8010254-1.6469727,1.0800171-2.6549683,1.7730103c-0.7020264,0.4769897-1.710022,1.7099609-2.5469971,1.8809814
			c-0.1400146,0.0289917-0.2880249,0.0410156-0.4420166,0.0410156c-0.848999,0-1.8710327-0.3829956-2.7709961-0.4819946
			c-1.1069946-0.1260376-2.1600342-0.0629883-3.3300171-0.2250366
			C72.335022,86.2820129,73.0040283,80.0589905,76.6190186,80.0589905z M73.0640259,91.6130066
			c1.302002,0,2.8920288,0.1709595,4.0839844,0.348999c-1.4039917,1.4129639-2.9159546,2.6999512-4.4279785,3.9959717
			c-0.2520142-1.3410034-0.2880249-2.8980103-0.4500122-4.3200073
			C72.5170288,91.6210022,72.7840576,91.6130066,73.0640259,91.6130066z M71.6130371,99.17099
			c0.882019,1.90802,1.1519775,4.4550171,1.8809814,6.5339966c-1.9619751-0.5219727-3.5369873-1.4130249-5.2109985-2.2139893
			C69.2820435,101.9429626,70.5240479,100.6289978,71.6130371,99.17099z M68.4320068,115.1990051
			c-1.2639771,0-2.3639526-0.3500366-3.0289917-1.2950439c-1.9710083-2.8079834,0.9360352-7.0469971,2.1060181-9.0899658
			c2.151001,0.9539795,4.2839966,1.9169922,6.651001,2.6640015c0.5490112,1.9169922,1.367981,3.572998,2.0969849,5.3099976
			C74.6470337,113.5809631,71.1550293,115.1990051,68.4320068,115.1990051z M77.4810181,112.0140076
			c-0.539978-1.3410034-1.2149658-2.5560303-1.664978-3.9869995c1.8720093,0.5310059,3.7979736,1.0079956,5.7600098,1.4400024
			C80.3070068,110.4119568,79.0290527,111.3479919,77.4810181,112.0140076z M83.1330566,108.3599548
			c-2.7900391-0.5309448-5.4810181-1.1699829-7.9830322-1.9889526c-0.6660156-1.9890137-1.1430054-3.9689941-1.6560059-6.3179932
			c-0.1530151-0.7020264-0.5490112-1.5209961-0.440979-2.1060181c0.1350098-0.8190308,1.9169922-2.2050171,2.6549683-2.8800049
			c1.2960205-1.1879883,2.3760376-1.8720093,3.4380493-2.7719727c2.9429932,0.4139404,5.5889893,1.1339722,8.0819702,1.9979858
			c0.5759888,1.9799805,1.1790161,4.0050049,1.664978,6.2009888c0.144043,0.6660156,0.5130005,1.6019897,0.44104,2.1060181
			c-0.1619873,1.0799561-2.2770386,2.3399658-2.9880371,2.9879761
			C85.1490479,106.6769714,84.276001,107.5589905,83.1330566,108.3599548z M89.8320312,109.0270081
			c-1.6810303,0-3.1069946-0.2560425-4.710022-0.3340454c1.3140259-1.4939575,3.0599976-2.5559692,4.3200073-4.0949707
			c0.585022,1.0709839,0.4680176,2.8529663,0.5579834,4.4279785
			C89.9430542,109.0270081,89.8880005,109.0270081,89.8320312,109.0270081z M88.776001,94.9589539
			c1.7550049,0.243042,3.5910034,1.3590088,5.2109985,2.1060181c-0.881958,1.7009888-2.2679443,2.8980103-3.3209839,4.4280396
			C89.8740234,99.4679871,89.6220093,96.92099,88.776001,94.9589539z M100.7460327,106.4789734
			c-1.664978,2.007019-5.6970215,2.3580322-9.197998,2.5469971c-0.1170044-0.980957-0.2250366-1.8359985-0.3330078-2.7719727
			c-0.098999-0.9180298-0.4500122-2.0610352-0.3330078-2.7630005c0.1350098-0.8099976,1.46698-1.7730103,2.2139893-2.6640015
			c0.9630127-1.1430054,1.6019897-2.2680054,2.3309937-2.9880371c1.9260254,1.4040527,4.8870239,2.934021,5.7600098,5.3190308
			C101.6010132,104.2829895,101.4030151,105.6869812,100.7460327,106.4789734z"/>
		<path id="XMLID_82_" opacity="0.2" fill="#FFFFFF" d="M89.2260132,87.0929871c0.0050049,0,0.0109863,0,0.0159912,0
			c0.90802,0,1.460022-0.7689819,1.5230103-1.5390015c0.0599976-0.7689819-0.3709717-1.5430298-1.4160156-1.5430298
			c-0.2029419,0-0.4299927,0.0290527-0.6809692,0.0940552C86.9850464,84.743988,87.8040161,87.0839539,89.2260132,87.0929871z"/>
		<path id="XMLID_83_" opacity="0.2" fill="#FFFFFF" d="M82.467041,96.9479675
			c-0.2900391-0.09198-0.6450195-0.1350098-1.0209961-0.1350098c-0.3950195,0-0.8110352,0.0480347-1.1929932,0.1350098
			c-1.710022,0.3959961-2.6820068,1.4580078-2.6640015,3.4379883c0.0219727,1.9720459,1.6779785,3.5240479,3.6099854,3.5240479
			c0.4840088,0,0.9860229-0.0980225,1.4840088-0.3110352C85.4730225,102.4109802,85.1400146,97.8299866,82.467041,96.9479675z"/>
		<path id="XMLID_84_" opacity="0.2" fill="#FFFFFF" d="M64.4040527,100.7189636
			c-0.098999-0.6159668-0.5250244-1.1659546-1.3690186-1.1659546c-0.1569824,0-0.3270264,0.0189819-0.5120239,0.05896
			c-0.8549805,0.1799927-1.2149658,0.5939941-1.2149658,1.4400024c0,1.0679932,0.75,1.5679932,1.5159912,1.5679932
			C63.710022,102.6199646,64.6160278,101.9499817,64.4040527,100.7189636z"/>
		<path id="XMLID_85_" opacity="0.2" fill="#FFFFFF" d="M90.6140137,113.2859802
			c-0.1539917,0-0.322998,0.0189819-0.5059814,0.0599976c-0.8460083,0.1890259-1.2150269,0.6210327-1.2150269,1.4400024
			c-0.0079956,1.0720215,0.7579956,1.5780029,1.5370483,1.5780029c0.9219971,0,1.8609619-0.7080078,1.55896-2.0189819
			C91.8670044,113.821991,91.4400024,113.2859802,90.6140137,113.2859802z"/>
	</g>
	<g id="XMLID_4_">
		<path id="XMLID_12_" opacity="0.2" fill="#FFFFFF" d="M52.2084351,329.4374695
			c0.6710205-0.6709595,1.2949219-1.3789062,1.8499146-2.1349487c0.000061,0.0001831,0.0001221,0.0003052,0.0001831,0.0004883
			c0.7539673-1.0289917,1.3809814-2.1480103,1.822998-3.3930054v-1.2600098
			c-0.4860229-1.6829834-3.0510254-2.2590332-5.2470093-2.3129883c-0.0859375-0.0020142-0.171814-0.0040283-0.2577515-0.0040283
			h-0.000061c0.0001221,0,0.0001831,0,0.0003052,0c-4.7290039-6.3699951-12.3079834-10.4989624-20.8479614-10.4989624
			c-14.3370361,0-25.9560547,11.6189575-25.9560547,25.9469604c0,2.1819458,0.269043,4.2999268,0.776001,6.3239136
			c-0.0001221,0.0001221-0.0002441,0.0003052-0.0003662,0.0004272c0-0.0001221-0.0001221-0.0001831-0.0001221-0.0003052
			c-0.9920044,1.2359619-1.8189697,2.5819702-2.2420044,3.9629517v1.2600098
			c0.8770142,1.78302,2.9640503,2.2550049,5.4450073,2.2709961c-0.7189941-1.1414795-1.3512573-2.3427124-1.8880005-3.5947266
			c0.5368652,1.2520142,1.1694336,2.4532471,1.888916,3.5942383c0.0440063,0,0.0880127,0.0009766,0.132019,0.0009766
			c0.3134766,0,0.6455078-0.0216675,0.9692993-0.0339355c-0.3237915,0.0123901-0.6555786,0.0344849-0.9697266,0.0344849
			c-0.0440063,0-0.0880127-0.0010376-0.132019-0.0010376c4.5940552,7.2919922,12.7190552,12.1380005,21.9770508,12.1380005
			c14.3280029,0,25.9469604-11.6189575,25.9469604-25.9559937c0-2.9689941-0.4989624-5.8209839-1.4169922-8.4779663
			c-0.5558472,0.7557983-1.1787109,1.4626465-1.8505859,2.1345215c-0.0356445-0.1278076-0.0794678-0.2520142-0.1171875-0.3789062
			C52.1290283,329.1855164,52.1727905,329.3097229,52.2084351,329.4374695z M53.6586304,326.2765198
			c-0.4414673-1.1192017-0.9559326-2.1995239-1.5421753-3.2363892
			C52.7026978,324.0768127,53.2171631,325.157135,53.6586304,326.2765198z M4.680603,341.7215881
			c0.3977661-0.4698486,0.8116455-0.9193115,1.2376709-1.3487549C5.4924316,340.8022766,5.0785522,341.2517395,4.680603,341.7215881
			z M8.8180542,346.9927673c0.1435547,0.2647095,0.2932129,0.5250854,0.4464722,0.7835083
			C9.1112671,347.5178528,8.9616089,347.2574158,8.8180542,346.9927673z M46.1790161,352.4309998
			c-4.2659912,4.2659912-10.1430054,6.9030151-16.6499634,6.9030151c-6.507019,0-12.3930054-2.6370239-16.6589966-6.9030151
			c-0.9140015-0.9140015-1.7540283-1.9039917-2.5090332-2.9589844c-0.1414185,0.0128174-0.2824707,0.0217285-0.4237671,0.0325317
			c0.1411743-0.0108032,0.2821045-0.0197144,0.4229126-0.0330811c0.0001221,0.0001831,0.0002441,0.0003662,0.0003662,0.0005493
			c4.6749878-0.4190063,9.4660034-1.9450073,13.5980225-3.5120239c8.7299805-3.3029785,16.6589966-7.4069824,23.4179688-12.4920044
			c1.6777954-1.2669067,3.3656006-2.5637207,4.831604-4.0296021c0.5638428,2.0169067,0.8648682,4.1437378,0.8648682,6.3425903
			C53.072998,342.2879944,50.4360352,348.1739807,46.1790161,352.4309998z M47.444519,320.5039978
			c-3.9389648,0.4589844-7.9949951,1.7340088-10.5709839,2.4609985c0.8449707,0.3599854,1.3670044,1.565979,2.5200195,1.7819824
			c0.1309814,0.0239868,0.2689819,0.0350342,0.4109497,0.0350342c0.6900024,0,1.473999-0.2420044,2.1080322-0.2420044
			c0.0349731,0,0.0679932,0,0.1019897,0c2.2030029,0,4.8250122,0.5839844,5.0469971,2.8349609
			c0.2609863,2.6279907-3.132019,5.769043-5.257019,7.4520264c-4.5529785,3.6270142-10.1599731,6.5969849-16.4869995,8.7210083
			c-2.677002,0.8999634-5.9179688,1.8720093-9.1629639,1.8720093c-0.552002,0-1.1060181-0.0290527-1.6560059-0.0900269
			c-1.6640015-0.1890259-3.3920288-1.1430054-3.5640259-2.7269897c-0.3319702-3.0419922,2.4660034-4.3649902,3.6719971-6.2009888
			c-0.0440063-1.026001,0.072998-1.8900146,0.2070312-2.7269897c-2.3930054,1.2419434-4.9050293,3.1139526-7.2449951,5.1479492
			c-0.4030151,0.3480225-0.81604,0.7220459-1.2260132,1.118042c0.0026245,0.0145874,0.0063477,0.0287476,0.0089722,0.043335
			c-0.0026855-0.0147705-0.0064697-0.0291138-0.0090942-0.0438843c-0.0001221,0.0001221-0.0002441,0.0002441-0.0003662,0.0003662
			c-0.2410278-1.3499756-0.3660278-2.7399292-0.3660278-4.1598511c0-6.506958,2.6370239-12.3839722,6.894043-16.6499634
			c4.2659912-4.2660522,10.1519775-6.894043,16.6589966-6.894043c6.506958,0,12.3839722,2.6279907,16.6499634,6.894043
			c0.4390259,0.440979,0.8610229,0.8979492,1.2650146,1.3729858c0.0002441,0,0.0005493-0.000061,0.0007935-0.000061
			c1.0926514,1.2818604,2.0510254,2.6818848,2.8526001,4.1785278
			C49.4957886,323.1858215,48.5373535,321.7858582,47.444519,320.5039978z"/>
		<path id="XMLID_36_" opacity="0.2" fill="#FFFFFF" d="M28.5750122,323.1719666
			c-6.8850098,0.5040283-11.9879761,6.1830444-11.9699707,12.9150391c0.0089722,3.1589966,0.9359741,5.381958,2.5199585,7.3529663
			c6.9390259-1.3949585,12.9690552-4.1849976,18.0630493-7.4519653c1.6739502-1.0800171,3.473999-2.1240234,4.6170044-3.6810303
			c-1.8040161-4.9949951-5.7080078-9.177002-12.1000366-9.177002
			C29.3370361,323.1299744,28.960022,323.1429749,28.5750122,323.1719666z"/>
		<path id="XMLID_37_" opacity="0.2" fill="#FFFFFF" d="M24.0570068,347.7510071
			c1.8540039,0.7959595,3.6970215,1.1519775,5.4590454,1.1519775c6.1759644,0,11.3569946-4.3870239,12.5050049-9.6660156
			l-0.1080322-0.098999C36.5040283,342.5489807,30.375,345.2399597,24.0570068,347.7510071z"/>
	</g>
	<path id="XMLID_26_" opacity="0.2" fill="#FFFFFF" d="M363.7259827,52.3529968
		c0,14.3370056,11.6190186,25.9559937,25.9470215,25.9559937v-1.2059937v-1.2059937
		c-6.507019,0-12.3839722-2.6279907-16.6499634-6.8940125c-4.2660522-4.2659912-6.894043-10.1430054-6.894043-16.6499939
		s2.6279907-12.3840027,6.894043-16.6499939c4.2659912-4.2659912,10.1429443-6.9030151,16.6499634-6.9030151
		s12.3930054,2.6370239,16.6500244,6.9030151c4.2659912,4.2659912,6.9029541,10.1430054,6.9029541,16.6499939
		s-2.6369629,12.3840027-6.9029541,16.6499939c-4.257019,4.2660217-10.1430054,6.8940125-16.6500244,6.8940125v1.2059937v1.2059937
		c14.3370361,0,25.9559937-11.618988,25.9559937-25.9559937s-11.6189575-25.9559937-25.9559937-25.9559937
		C375.3450012,26.3970032,363.7259827,38.0159912,363.7259827,52.3529968"/>
	<path id="XMLID_25_" opacity="0.2" fill="#FFFFFF" d="M376.7669983,42.9029846v6.9120178h1.6830444
		c0.5119629-0.6220093,1.1119995-1.1669922,1.7819824-1.6199951v-5.2920227h-0.0540161
		c0-4.571991,4.2750244-8.2799988,9.4860229-8.2799988c5.2649536,0,9.5039673,3.7080078,9.5039673,8.2799988h3.4200439
		c0-6.2099915-5.7870483-11.2589722-12.9240112-11.2589722C382.5630188,31.6440125,376.7669983,36.6929932,376.7669983,42.9029846"
		/>
	<path id="XMLID_22_" opacity="0.2" fill="#FFFFFF" d="M389.0429993,60.9119873
		c-1.2059937-0.3959961-2.1149902-1.5299988-2.1149902-2.8889771c0-1.6830139,1.3590088-3.0420227,3.0510254-3.0420227
		c1.6739502,0,3.032959,1.3590088,3.032959,3.0420227c0,1.3589783-0.881958,2.492981-2.105957,2.8889771l1.3589478,7.0020142
		h-4.2839966L389.0429993,60.9119873 M384.9750061,46.7460022c-1.7529907,0-3.3880005,0.5329895-4.742981,1.4490051
		c-0.6699829,0.4530029-1.2700195,0.9979858-1.7819824,1.6199951h-1.6830444h-0.2609863v5.3819885v3.0780029v6.3269958
		c0,4.6710205,3.8070068,8.460022,8.4689941,8.460022h9.3870239c4.6889648,0,8.4779663-3.7890015,8.4779663-8.460022v-6.3269958
		V55.196991v-5.3819885h-1.9439697c-1.5570068-1.881012-3.8970337-3.0690002-6.5339966-3.0690002H384.9750061"/>
	<path id="XMLID_21_" opacity="0.2" fill="#FFFFFF" d="M263.6009827,25.9559937C263.6009827,11.618988,275.2200012,0,289.5570374,0
		c14.3280029,0,25.9469604,11.618988,25.9469604,25.9559937s-11.6189575,25.9559937-25.9469604,25.9559937v-1.2059937v-1.196991
		c6.4979858,0,12.3839722-2.6369934,16.6499634-6.9030151c4.257019-4.2659912,6.8939819-10.1429749,6.8939819-16.6499939
		c0-6.5069885-2.6369629-12.3840027-6.8939819-16.6499939c-4.2659912-4.2659912-10.1519775-6.8940125-16.6499634-6.8940125
		c-6.507019,0-12.3930054,2.6280212-16.6589966,6.8940125c-4.257019,4.2659912-6.894043,10.1430054-6.894043,16.6499939
		c0,6.507019,2.6370239,12.3840027,6.894043,16.6499939c4.2659912,4.2660217,10.1519775,6.9030151,16.6589966,6.9030151v1.196991
		v1.2059937C275.2200012,51.9119873,263.6009827,40.2929993,263.6009827,25.9559937"/>
	<path id="XMLID_1_" opacity="0.2" fill="#FFFFFF" d="M263.598938,75.5328064
		c-99.6329956,0-180.4020386,80.7689819-180.4020386,180.4019775c0,57.5269775,26.9310303,108.7689819,68.868042,141.802002
		h223.0679932c37.4429932-29.4920044,62.9240723-73.5,67.9550781-123.5349731v-36.5339966
		C433.9320068,146.6138,357.0669556,75.5328064,263.598938,75.5328064z M328.5825195,385.3094788
		c-17.4049683,0-31.5149536-14.1099854-31.5149536-31.5150146c0-17.4049683,14.1099854-31.5149536,31.5149536-31.5149536
		c17.4050293,0,31.5160522,14.1099854,31.5160522,31.5149536
		C360.0985718,371.1994934,345.9875488,385.3094788,328.5825195,385.3094788z M347.8339233,307.0387878l-40.3729858-0.0250244
		l-12.9959717-45.1999512h-31.4150391l-50.9359741,87.782959h-37.2410278l49.7180176-89.4119873h-34.1270142l-27.4359741,46.6920166
		l-38.6329956,0.0679932l25.447998-45.1309814l29.2449951-49.5640259h-74.4830322l16.7940063-27.2180176h112.1260376
		l-25.184021,42.6560059h116.1870117l9.7550049,32.4970093l40.6189575-72.3109741h38.2061157L347.8339233,307.0387878z
		 M316.8899841,341.0954895c0-7.9869995,3.9890137-12.5469971,11.6930542-12.5469971
		c7.7030029,0,11.6939697,4.5599976,11.6939697,12.5469971c0,16.4090271-17.0460205,22.0450134-15.5499878,30.8210144h14.8369751
		v7.1239929h-22.6740112v-6.1260071c0-14.696991,15.5490112-17.1219788,15.5490112-31.5339966
		c0-4.4949951-1.5709839-5.7080078-4.0700073-5.7080078c-2.4989624,0-4.0699463,1.3560181-4.0699463,4.9230042v5.3510132h-7.4090576
		V341.0954895"/>
</g>
</svg>
