<svg width="512" height="512" viewBox="0 0 512 512" xmlns="http://www.w3.org/2000/svg">
<path transform="scale(1, -1) translate(0, -512)" unicode="&#xe906;" glyph-name="epic" horiz-adv-x="801" d="M110.638 724.072l-55.020 88.51 89.408-56.665c66.801 55.514 152.931 89.858 247.023 91.793l0.418 0.007 26.164 112.283 25.417-114.525c89.252-10.070 168.153-48.056 229.3-104.887l-0.249 0.229 106.302 66.233-68.625-106.452c56.049-68.612 90.010-157.18 90.010-253.679 0-98.238-35.195-188.255-93.665-258.131l0.515 0.633q32.743-52.927 65.785-105.854v0l-103.462 66.084c-30.973-28.071-66.76-51.6-105.837-69.097l-2.558-1.024c-36.426-16.365-78.692-27.588-123.066-31.443l-1.476-0.103-26.015-111.535-23.922 110.040c-95.564 3.141-182.11 39.338-249.134 97.455l0.498-0.422-88.211-54.87 54.422 86.716c-65.279 71.316-105.275 166.718-105.275 271.462 0 107.521 42.146 205.198 110.818 277.413l-0.16-0.17zM89.707 506.982h1.047l1.794 1.495c19.002 15.733 40.117 31.19 62.131 45.373l2.607 1.573c34.397 22.503 73.907 42.151 115.708 56.955l3.901 1.205c29.688 10.572 64.17 18.15 99.929 21.268l1.589 0.112c8.013 0.643 17.349 1.010 26.771 1.010 3.152 0 6.293-0.041 9.425-0.123l-0.463 0.010c16.525-0.301 32.452-1.65 48.056-3.985l-2.007 0.247c16.699-2.357 30.978-5.231 44.963-8.836l-2.801 0.613c37.365-9.656 69.891-22.133 100.543-37.759l-2.762 1.278c39.918-20.167 74.211-42.032 106.087-66.856l-1.429 1.071 2.542-1.794c-9.405 39.771-25.256 74.767-46.579 105.7l0.679-1.042-12.11-18.539c-32.475 19.24-70.051 36.401-109.485 49.492l-4.144 1.192 62.346 37.677c-37.479 30.164-82.867 52.095-132.533 62.297l-2.027 0.348c3.289-14.951 6.429-29.005 9.419-43.358s6.279-28.557 9.27-43.209c-11.213 1.645-21.829 3.439-32.444 4.635s-21.53 2.093-32.294 2.392-21.829 0-32.743 0-21.38-1.495-32.294-2.392l20.333 87.314c-57.28-5.3-109.070-25.116-152.774-55.697l1.021 0.677 69.672-44.853c-43.206-12.012-80.737-27.308-115.977-46.305l2.947 1.452-20.333 31.397c-32.839-39.258-56.557-87.261-67.234-139.994l-0.345-2.041zM707.635 373.469l-3.439-2.542c-16.813-13.152-35.792-26.273-55.524-38.28l-2.635-1.49c-47.603-30.195-103.118-53.246-162.473-65.935l-3.334-0.597c-17.182-3.802-37.305-6.426-57.88-7.301l-0.728-0.025c-4.529-0.204-9.839-0.32-15.177-0.32-14.672 0-29.14 0.877-43.353 2.58l1.716-0.168c-18.376 2.255-34.273 5.14-49.857 8.835l3.060-0.612c-39.855 9.822-74.708 22.992-107.443 39.716l2.785-1.292c-45.869 23.121-85.403 49.181-121.548 79.184l1.042-0.84-3.14 2.691c5.366-27.449 13.381-51.777 24.003-74.65l-0.828 1.988c11.591-24.456 25.059-45.532 40.794-64.675l-0.426 0.535 19.885 30.799c32.062-17.768 69.302-33.389 108.307-44.894l3.976-1.006-71.167-44.853c21.043-15.476 45.104-28.855 70.79-39.013l2.171-0.757c23.448-9.069 50.661-15.624 78.976-18.434l1.311-0.105-19.287 89.707c16.878-2.34 36.379-3.676 56.193-3.676 3.057 0 6.107 0.032 9.149 0.095l-0.454-0.007c23.655 0.779 46.15 3.302 68.067 7.458l-2.731-0.431-20.782-89.707c27.38 4.84 51.809 12.575 74.719 23.059l-1.907-0.782c24.644 11.276 45.884 24.567 65.142 40.205l-0.553-0.435-62.795 40.368c43.838 13.937 81.69 30.868 117.174 51.433l-2.798-1.497 13.755-22.128c21.693 30.693 38.152 66.791 47.145 105.744l0.399 2.053zM672.799 446.729l-1.794 1.495c-30.991 25.726-65.922 48.663-103.284 67.479l-3.168 1.446c-33.604 17.347-72.61 30.398-113.755 37.074l-2.266 0.303-6.878 0.748 1.944-3.289c4.851-7.637 9.835-16.703 14.276-26.077l0.675-1.583c10.165-20.775 16.733-45.035 18.217-70.658l0.024-0.51c0.063-1.709 0.099-3.716 0.099-5.732 0-16.058-2.275-31.586-6.519-46.277l0.291 1.175c-6.55-23.074-15.738-43.241-27.466-61.63l0.554 0.929-2.093-3.289c11.88 1.266 22.318 3.003 32.549 5.291l-1.899-0.357c29.728 6.757 55.723 15.75 80.351 27.188l-2.456-1.024c45.632 21.203 84.961 46.172 120.553 75.511l-0.945-0.756zM367.946 338.782v0l-1.794 3.14c-5.384 8.414-10.679 18.228-15.258 28.432l-0.59 1.47c-8.111 17.443-13.826 37.687-16.075 58.966l-0.072 0.838c-0.452 4.489-0.71 9.702-0.71 14.975 0 15.105 2.115 29.717 6.066 43.554l-0.273-1.117c6.509 23.571 15.811 44.201 27.765 62.978l-0.554-0.931c0 0.897 1.047 1.944 1.645 2.99h-0.897c-10.017-1.944-20.184-3.439-29.902-5.681-34.045-8.003-63.954-19.199-91.92-33.632l2.213 1.038c-39.828-20.243-74.152-42.912-105.6-68.934l0.942 0.757-1.794-1.047 2.542-2.243c21.906-17.847 46.329-34.839 72.002-49.935l2.754-1.497c36.122-21.723 78.024-38.795 122.562-48.937l2.878-0.551c7.625-1.794 15.848-3.14 24.071-4.635z" />
</svg>