<svg width="512" height="512" viewBox="0 0 512 512" xmlns="http://www.w3.org/2000/svg">
<path transform="scale(1, -1) translate(0, -512)" unicode="&#xe908;" glyph-name="folktale" d="M678.046 199.719h-40.015v61.282h-64.906l-7.877-61.125h-80.030l-7.877 61.125h-65.694v-61.282h-35.761l-17.487-260.726-9.61 3.781c-122.090 51.783-213.525 155.318-247.754 282.319l-0.685 2.984c-4.921 17.891-8.917 39.312-11.194 61.245l-0.149 1.771c-1.766 14.712-2.773 31.749-2.773 49.021 0 6.64 0.149 13.244 0.443 19.811l-0.033-0.933c11.244 195.458 153.126 354.748 339.134 392.44l2.725 0.461c3.781 0 3.781 0 5.199 4.254 24.261 63.015 47.262 127.291 68.844 191.252 1.418 3.938 2.836 7.877 4.411 12.603l1.733-3.623 28.987-71.838c17.644-43.796 36.549-87.119 55.769-130.284 0.655-1.79 2.187-3.114 4.063-3.461l0.033-0.005c73.904-15.464 138.393-48.644 191.091-94.927l-0.469 0.404c64.499-55.4 111.765-129.191 133.73-213.213l0.651-2.93c4.773-17.559 8.659-38.61 10.881-60.156l0.147-1.757c1.26-12.761 2.048-25.679 2.048-38.597 0.016-1.378 0.025-3.007 0.025-4.637 0-165.206-94.394-308.365-232.189-378.486l-2.411-1.113-2.363-1.103h-1.103q-9.767 122.407-19.535 245.445zM512 775.365l-1.733-4.569c-21.425-57.659-43.796-115.003-67.742-171.559-20.094-48.047-39.725-87.498-61.512-125.556l2.907 5.512c-33.29-57.567-65.099-105.81-99.342-152.143l3.086 4.372-2.836-3.781h479.232l-2.678 3.623c-6.932 8.98-14.021 17.959-20.795 27.097-30.449 39.786-61.233 85.080-89.504 132.058l-3.758 6.733c-21.425 36.234-40.172 73.728-58.604 111.38-25.836 53.721-50.727 108.071-74.673 162.422zM662.449 223.98h38.597l17.487 68.844h-55.138zM331.618 292.825l17.644-68.844h38.282v68.844zM496.719 292.825l8.665-68.844h38.124l8.822 68.844zM504.438 21.228v121.935c-0.219 15.319-12.689 27.652-28.039 27.652-3.568 0-6.98-0.666-10.119-1.881l0.191 0.065c-10.373-4.519-17.493-14.681-17.493-26.507 0-0.207 0.002-0.414 0.007-0.62l-0.001 0.031c0-40.33 0-80.817 0-121.147-0.036-0.518-0.056-1.123-0.056-1.733s0.020-1.215 0.060-1.814l-0.004 0.081h55.611z" />
</svg>