<svg width="512" height="512" viewBox="0 0 512 512" xmlns="http://www.w3.org/2000/svg">
<path transform="scale(1, -1) translate(0, -512)" unicode="&#xe900;" glyph-name="melee" d="M707.040 106.88l-91.040-55.52-77.76 84.8c-41.92-37.92-83.52-75.84-125.44-114.080l-96 66.88c-4.32-4-8.64-7.68-12.64-11.84-0.862-1.119-1.48-2.47-1.751-3.943l-0.009-0.057c-5.377-21.163-14.663-39.647-27.123-55.521l0.243 0.321c-22.14-28.994-54.040-49.553-90.723-56.802l-0.957-0.158c-10.144-2.394-21.792-3.766-33.76-3.766-84.613 0-153.206 68.593-153.206 153.206 0 72.645 50.561 133.481 118.412 149.238l1.034 0.202c7.040 1.76 14.4 2.72 21.76 3.84 1.479 0.154 2.768 0.864 3.674 1.913l0.006 0.007 7.2 8-55.52 91.040 178.56 163.36 60.48-88.8 29.92 29.92-2.24 2.4-252.8 252.64c-1.763 1.783-3.012 4.076-3.507 6.639l-0.013 0.081c-11.36 50.72-23.84 101.12-35.2 152.32-4.64 19.2-9.12 38.4-13.6 57.44 0 0.96 0 1.92 0 3.36h5.76l44.32-6.24 38.88-4.64 37.12-5.12 32-3.84 32-4.16 26.72-3.2c2.67-0.165 5.031-1.362 6.714-3.193l0.006-0.007 261.76-262.24 2.4-2.88 3.2 2.88 220.32 220.48c1.658 1.777 3.854 3.032 6.327 3.508l0.073 0.012 209.28 50.24h3.36v-3.040l-5.76-45.76c-1.6-12.64-3.2-25.12-4.64-37.76l-5.28-44.16c-1.44-12.64-3.040-25.44-4.64-38.080s-4-29.76-5.44-44.64c-0.576-5.292-3.044-9.919-6.704-13.266l-0.016-0.014-229.44-229.6 8.64-8 73.6 77.44 152.8-168-66.88-96 12-12.8s1.92-0.96 2.88-1.28c29.064-7.403 53.975-22.297 73.391-42.509l0.049-0.051c20.652-21.253 35.138-48.6 40.507-79.089l0.133-0.911c0.859-6.095 1.349-13.137 1.349-20.292 0-84.654-68.626-153.28-153.28-153.28-71.23 0-131.112 48.586-148.312 114.426l-0.237 1.067c-0.96 4.96-1.6 10.080-2.24 15.040-0.013 1.692-0.821 3.194-2.067 4.151l-0.013 0.009c-3.36 2.72-5.76 5.12-8.64 7.68zM422.4 336l-54.4-54.4 20.8-16 3.36 3.36 92.8 92.96 383.2 382.4c1.906 1.746 3.194 4.138 3.515 6.828l0.005 0.052 6.72 53.6s0 1.12 0 1.6h-2.080l-58.88-13.76c-1.545-0.408-2.856-1.251-3.831-2.39l-0.009-0.010-473.44-473.12 11.84-19.36 53.92 54.24zM427.68 535.2l50.080 49.92-3.2 3.2-238.080 237.76c-2.062 2.088-4.853 3.451-7.959 3.678l-0.041 0.002-26.24 3.2-26.24 3.36c-0.36 0.038-0.777 0.060-1.2 0.060s-0.84-0.022-1.251-0.064l0.051 0.004c0-1.28 0-2.4 0-3.52 4.32-18.56 8.8-37.28 13.12-56 0.511-2.329 1.638-4.341 3.201-5.921l-0.001 0.001 235.36-233.92zM456.16 184.8l-3.84 2.88-110.080 85.76c-2.371 1.741-4.344 3.867-5.865 6.305l-0.055 0.095-77.44 121.76-2.88 3.36-44.32-46.24c0.291-0.806 0.615-1.492 0.993-2.142l-0.033 0.062 69.44-126.24c0.845-1.53 2.038-2.774 3.477-3.656l0.043-0.024 126.4-81.76zM840.16 372.16l-40.16 43.040-2.72-3.36-86.080-110.72c-1.674-2.171-3.69-3.983-5.984-5.385l-0.096-0.055-121.92-77.12-4-2.72 46.4-44.48 1.92 0.96 126.080 69.44c1.731 0.961 3.138 2.317 4.132 3.951l0.028 0.049 44.8 68.64zM152 172.64c-2.88 0-6.24 0-9.44-1.12-29.002-5.289-50.7-30.357-50.7-60.494 0-33.932 27.508-61.44 61.44-61.44 33.375 0 60.534 26.611 61.418 59.772l0.002 0.082c0.007 0.133 0.011 0.288 0.011 0.445 0 2.366-0.917 4.518-2.416 6.12l0.005-0.005c-9.12 9.76-17.92 19.68-26.88 29.44l-22.56 24.48c-0.96 1.12-1.76 2.4-3.52 2.4zM808 111.040c0-2.88 0-5.76 0-8.64 4.783-29.576 30.133-51.889 60.693-51.889 33.932 0 61.44 27.508 61.44 61.44 0 5.709-0.779 11.236-2.235 16.481l0.102-0.432c-6.374 22.378-24.803 39.202-47.642 43.149l-0.358 0.051c-0.593 0.161-1.275 0.254-1.978 0.254-1.935 0-3.706-0.701-5.074-1.863l0.011 0.009-61.12-45.92c-1.712-1.124-2.87-2.971-3.039-5.097l-0.001-0.023c-0.48-2.24-0.8-4.96-0.96-7.52zM801.28 145.12l49.76 37.28-62.72 68.32c-5.12-7.68-9.76-14.88-14.4-22.24-1.186-1.846-2.744-3.353-4.577-4.445l-0.063-0.035c-10.24-5.44-20.32-11.040-30.4-16l-3.2-1.92zM228.32 132.8l65.92 60.8-3.040 2.24c-4.8 3.2-9.6 6.72-14.88 9.6-6.973 3.504-12.496 9.027-15.907 15.797l-0.093 0.203c-3.84 7.84-8.32 15.2-12.8 23.36l-61.6-67.040zM665.12 297.92l18.24 11.52-53.92 53.76 16 16 54.4-54.24 16 20.32-57.76 57.76-49.44-49.44z" />
</svg>