<svg width="512" height="512" viewBox="0 0 512 512" xmlns="http://www.w3.org/2000/svg">
<path transform="scale(1, -1) translate(0, -512)" unicode="&#xe905;" glyph-name="mythic" d="M405.675 379.392l-49.152-1.195c-10.923 0-22.016-1.536-33.109-1.877-7.68 0-15.531 0-23.381 0-5.291 0-10.581 0-15.701 1.024-85.344 7.255-160.463 45.997-214.678 104.41l-0.192 0.209c-24.279 25.366-43.415 55.873-55.591 89.702l-0.558 1.775c-8.707 23.596-13.743 50.848-13.743 79.277 0 5.013 0.157 9.989 0.465 14.924l-0.034-0.675c3.773 72.665 39.352 136.321 92.971 177.764l0.554 0.412c23.593 18.876 52.616 31.94 84.375 36.578l0.959 0.115c8.115 1.275 17.474 2.004 27.003 2.004 59.269 0 111.955-28.183 145.389-71.878l0.323-0.44c15.112-19.438 24.98-43.635 27.106-70.018l0.030-0.468c0.509-4.424 0.799-9.551 0.799-14.746 0-47.282-24.034-88.951-60.553-113.456l-0.491-0.31c-14.93-10.566-33.335-17.163-53.236-17.915l-0.183-0.005c-2.519-0.212-5.451-0.333-8.412-0.333-34.672 0-65.475 16.569-84.921 42.222l-0.193 0.265c-11.955 14.571-19.202 33.404-19.202 53.929 0 11.695 2.353 22.841 6.611 32.99l-0.209-0.562c4.991 15.105 18.871 25.86 35.298 26.112h0.030c0.722 0.047 1.566 0.074 2.416 0.074 19.967 0 36.483-14.78 39.202-33.997l0.024-0.21c0.319-1.831 0.502-3.939 0.502-6.090 0-4.871-0.936-9.524-2.638-13.787l0.088 0.251c-0.585-1.284-0.925-2.784-0.925-4.363 0-3.133 1.34-5.952 3.477-7.918l0.008-0.007c5.482-5.752 13.202-9.329 21.758-9.329 6.64 0 12.778 2.155 17.75 5.803l-0.084-0.059c12.591 9.375 21.201 23.49 23.183 39.655l0.028 0.281c0.38 2.512 0.597 5.411 0.597 8.361 0 15.432-5.937 29.477-15.651 39.977l0.036-0.039c-16.209 19.19-39.308 32.118-65.436 34.948l-0.442 0.039c-3.866 0.525-8.334 0.825-12.872 0.825-25.365 0-48.543-9.363-66.267-24.821l0.12 0.103c-30.519-25.076-51.42-60.884-56.912-101.581l-0.090-0.819c-1.288-7.657-2.024-16.479-2.024-25.472 0-41.038 15.328-78.497 40.57-106.962l-0.146 0.168c13.124-15.403 27.682-28.931 43.661-40.633l0.712-0.497c2.456-1.72 5.257-3.316 8.205-4.646l0.328-0.132c24.23-11.405 52.627-18.062 82.579-18.062 6.981 0 13.877 0.362 20.671 1.067l-0.85-0.072c45.381 4.762 85.709 23.342 117.474 51.396l-0.226-0.196c19.526 17.792 36.457 37.925 50.492 60.073l0.708 1.196c14.848 22.016 26.453 45.739 39.253 68.267 6.656 11.776 12.117 24.405 18.773 36.181 38.014 68.286 96.649 121.191 167.389 151.049l2.253 0.844c21.452 9.282 46.398 16.44 72.423 20.28l1.646 0.2c10.886 1.747 23.436 2.745 36.22 2.745 7.858 0 15.629-0.377 23.294-1.115l-0.975 0.076c104.197-10.178 188.541-84.547 213.482-182.632l0.364-1.688c4.228-15.96 6.656-34.283 6.656-53.173 0-0.026 0-0.052 0-0.079v0.004c-0.441-37.569-12.453-72.248-32.629-100.736l0.373 0.555c-26.701-38.942-67.426-66.601-114.747-75.764l-1.135-0.183c-8.289-1.883-17.809-2.962-27.58-2.962-4.291 0-8.532 0.208-12.716 0.615l0.531-0.042c-43.761 3.462-81.428 26.826-104.304 60.942l-0.315 0.498c-13.166 18.489-21.668 41.129-23.359 65.644l-0.022 0.404c-0.231 2.628-0.362 5.686-0.362 8.775 0 29.523 12.013 56.24 31.418 75.53l0.005 0.005c15.623 18.001 37.138 30.524 61.518 34.563l0.605 0.083c4.356 0.78 9.37 1.226 14.488 1.226 27.813 0 52.548-13.174 68.307-33.622l0.149-0.202c5.612-6.783 9.016-15.571 9.016-25.153 0-19.87-14.637-36.322-33.717-39.161l-0.217-0.026c-2.015-0.375-4.333-0.589-6.702-0.589-11.631 0-22.054 5.171-29.096 13.34l-0.042 0.050-1.877 2.219c-1.783 1.924-4.323 3.125-7.144 3.125-0.734 0-1.45-0.081-2.137-0.236l0.065 0.012c-14.085-2.665-24.594-14.875-24.594-29.54 0-1.987 0.193-3.928 0.561-5.807l-0.031 0.19c4.49-25.548 24.527-45.354 49.829-49.447l0.347-0.046c3.178-0.508 6.843-0.798 10.575-0.798 8.064 0 15.813 1.354 23.029 3.848l-0.495-0.149c36.964 11.316 64.558 42.216 70.916 80.304l0.082 0.592c0.916 5.368 1.44 11.551 1.44 17.856 0 10.53-1.46 20.718-4.189 30.374l0.19-0.785c-15.214 60.778-62.819 107.472-122.974 121.134l-1.1 0.21c-10.35 2.409-22.235 3.79-34.442 3.79-5.903 0-11.731-0.323-17.466-0.952l0.708 0.063c-41.416-4.478-78.796-18.701-110.771-40.314l0.862 0.549c-4.138-2.929-7.767-6.070-11.065-9.528l-0.028-0.029c-29.192-29.019-49.458-66.987-56.337-109.444l-0.153-1.148c-1.623-10.245-2.551-22.057-2.551-34.087 0-27.936 5.001-54.704 14.158-79.456l-0.514 1.586c3.899-11.065 8.333-20.528 13.57-29.464l-0.429 0.792c17.067-30.379 35.328-60.416 54.443-89.6 10.39-15.075 20.503-32.409 29.316-50.492l1.062-2.415c12.771-26.852 22.333-58.008 27.094-90.72l0.213-1.781c2.181-13.989 3.428-30.123 3.428-46.548 0-9.749-0.439-19.395-1.298-28.921l0.089 1.228c-3.244-45.844-16.325-87.999-37.131-125.252l0.779 1.519c-32.886-57.917-87.58-100.228-152.639-116.057l-1.644-0.338c-13.905-3.577-30.098-6.021-46.724-6.806l-0.551-0.021c-3.733-0.217-8.098-0.341-12.493-0.341-37.379 0-72.667 8.954-103.835 24.835l1.299-0.601c-49.68 24.617-85.708 70.361-96.581 125.161l-0.187 1.132c-2.748 11.468-4.323 24.635-4.323 38.17 0 24.52 5.171 47.832 14.481 68.905l-0.43-1.091c17.426 43.082 54.984 74.768 100.686 83.658l0.861 0.139c8.63 2.049 18.537 3.224 28.72 3.224 21.877 0 42.487-5.423 60.559-14.998l-0.703 0.34c32.035-15.937 54.639-46.637 59.001-82.948l0.050-0.508c0.789-4.727 1.24-10.173 1.24-15.724 0-15.42-3.478-30.027-9.692-43.080l0.26 0.607c-12.075-26.931-36.607-46.377-66.058-51.133l-0.502-0.067c-2.437-0.528-5.237-0.83-8.107-0.83-22.090 0-39.998 17.908-39.998 39.998 0 19.22 13.557 35.274 31.63 39.121l0.262 0.047h2.731c3.739 0.637 6.704 3.372 7.665 6.93l0.015 0.067c1.046 2.917 1.65 6.283 1.65 9.79 0 12.863-8.131 23.826-19.534 28.031l-0.207 0.067c-6.297 2.457-13.587 3.88-21.21 3.88-25.205 0-46.774-15.567-55.618-37.61l-0.143-0.403c-4.745-11.381-7.5-24.603-7.5-38.469 0-44.124 27.908-81.73 67.036-96.129l0.71-0.229c16.926-6.682 36.531-10.555 57.041-10.555 2.388 0 4.763 0.052 7.125 0.156l-0.336-0.012c42.348 1.749 80.295 19.265 108.402 46.79l-0.028-0.028c20.824 20.453 36.364 46.216 44.431 75.098l0.284 1.19c4.243 13.748 7.606 30.015 9.449 46.741l0.109 1.216c0.066 1.144 0.104 2.481 0.104 3.828 0 5.356-0.597 10.573-1.729 15.588l0.089-0.471c-6.424 38.412-22.975 72.159-46.792 99.39l0.2-0.233c-23.389 26.561-53.085 47.024-86.772 59.105l-1.462 0.458c-15.783 6.048-34.183 10.663-53.281 13.024l-1.162 0.117c-5.461 0-11.093 0-17.067 0zM240.811 227.499c-9.216 9.557-18.773 18.944-27.477 29.013-24.381 28.525-44.531 61.614-58.898 97.636l-0.836 2.374c-0.7 2.101-2.243 3.755-4.217 4.59l-0.049 0.018c-2.88 1.175-5.237 2.32-7.514 3.591l0.346-0.178c-40.574 20.382-75.21 46.188-104.654 76.999l-0.136 0.143-3.755 3.584c3.017-35.009 9.788-67.315 19.976-98.063l-0.862 3.002c21.238-64.611 54.088-120.253 96.444-167.144l-0.358 0.403c21.464-24.269 45.434-45.529 71.73-63.655l1.315-0.857c-0.057 1.914-0.089 4.166-0.089 6.426 0 36.121 8.281 70.307 23.049 100.764l-0.602-1.377zM439.637 948.736c-49.356-5.257-94.525-17.809-136.26-36.627l2.799 1.129c35.2-17.018 64.497-41.234 86.951-70.916l0.43-0.593h3.243c27.286 7.373 58.653 11.717 90.998 11.946l0.138 0.001c0.919 0.009 2.005 0.014 3.092 0.014 23.051 0 45.579-2.241 67.377-6.518l-2.202 0.36c0.584-0.118 1.254-0.186 1.941-0.186 2.518 0 4.824 0.909 6.607 2.417l-0.015-0.012c27.032 20.779 58.011 38.474 91.269 51.657l2.598 0.908c6.485 2.56 13.312 4.949 19.968 7.339-55.638 26.372-120.883 41.771-189.725 41.771-17.336 0-34.444-0.976-51.271-2.877l2.063 0.189zM891.733 267.605c26.865 46.928 45.943 101.848 53.844 160.315l0.258 2.331c-29.667-14.856-64.638-23.553-101.64-23.553-0.267 0-0.534 0-0.801 0.001h0.041l-1.024-3.755c-13.026-50.254-34.979-94.152-64.282-132.082l0.623 0.839c-1.135-1.33-1.825-3.070-1.825-4.97 0-0.475 0.043-0.94 0.126-1.391l-0.007 0.047c1.195-9.899 2.219-19.797 2.901-29.867 0.417-6.592 0.655-14.295 0.655-22.053 0-20.533-1.666-40.678-4.869-60.305l0.289 2.145c-1.365-8.875-3.243-17.067-4.949-27.648 48.966 38.043 89.337 84.567 119.469 137.663l1.193 2.283z" />
</svg>