<svg width="512" height="512" viewBox="0 0 512 512" xmlns="http://www.w3.org/2000/svg">
<path transform="scale(1, -1) translate(0, -512)" unicode="&#xe903;" glyph-name="pen-n-paper" d="M66.065 703.505l444.119 256.495 3.634-1.982 437.347-252.532c1.983-0.945 3.329-2.933 3.329-5.235 0-0.192-0.009-0.382-0.028-0.569l0.002 0.024v-505.559c0.018-0.169 0.028-0.364 0.028-0.562 0-2.21-1.277-4.122-3.133-5.039l-0.033-0.015-441.146-254.679-444.119 256.495zM298.942 628.026l214.71-350.142 208.103 350.142zM836.377 263.515q-48.557 173.419-96.785 346.839v0l-205.626-346.839zM283.582 605.729h-0.826l-82.581-342.214h278.792c4.459 0 9.084 0 14.204 0zM321.074 653.956v0h381.357l-192.743 162.684zM195.055 238.41c5.45-3.964 300.759-174.245 303.401-174.906l1.982 174.906zM523.396 63.67l301.419 174.080h-299.603zM171.768 628.026v-364.511h3.138l87.866 364.511zM760.237 628.026q43.437-155.582 86.71-310.503l0.991-2.973c0 12.222 0 310.668 0 313.806zM191.752 653.956v0h87.701c0.063-0.002 0.138-0.004 0.212-0.004 1.64 0 3.133 0.629 4.251 1.659l-0.004-0.004 26.426 22.957 153.27 132.129 1.652 0.661zM828.614 653.956v0l-274.828 158.72h1.156l184.815-155.747c1.551-1.533 3.684-2.481 6.038-2.481 0.084 0 0.167 0.001 0.25 0.004h82.569z" />
</svg>