<svg width="512" height="512" viewBox="0 0 512 512" xmlns="http://www.w3.org/2000/svg">
<path transform="scale(1, -1) translate(0, -512)" unicode="&#xe902;" glyph-name="presence" horiz-adv-x="1025" d="M776.541 655.706l-193.816-62.902-79.027 188.867-71.683-191.581-197.328 55.558 105.689-175.616-166.037-118.301c16.137-3.522 36.398-6.676 56.98-8.744l2.41-0.196c19.797-2.395 39.593-5.268 59.39-7.983s39.913-5.268 60.188-8.781l-4.151-2.554c-39.593-24.267-79.027-47.895-118.621-72.801-2.777-1.543-4.748-4.25-5.261-7.444l-0.008-0.059c-5.588-31.93-11.655-63.86-17.402-96.908-4.47-24.427-8.781-47.895-13.251-73.12 0.027-0.524 0.043-1.138 0.043-1.756s-0.016-1.232-0.046-1.842l0.003 0.086c-19.258 19.787-36.402 41.806-50.958 65.581l-0.929 1.632c-13.828 22.080-26.266 47.526-35.98 74.278l-0.899 2.833c-8.8 23.685-15.885 51.524-20.014 80.318l-0.261 2.222-85.573 11.016 3.991 3.033 73.599 52.365c2.174 1.342 3.615 3.69 3.672 6.378v0.008c2.907 87.164 32.417 166.907 80.615 231.971l-0.79-1.116c4.311 5.907 8.94 11.814 13.73 18.041l-81.582 135.703h3.672l168.272-47.895c0.849-0.336 1.833-0.531 2.862-0.531 1.742 0 3.353 0.558 4.665 1.505l-0.024-0.016c41.141 26.95 89.301 47.288 140.958 58.114l2.727 0.478 11.495 2.075 35.921 95.79c11.974 31.93 23.948 63.86 36.081 96.908 0.958-1.916 1.597-2.874 2.075-3.991l77.59-186.153c0.731-3.216 3.5-5.603 6.85-5.747l0.015-0.001c50.727-10.933 95.613-29.727 135.781-55.277l-1.675 0.996c0.851-0.483 1.869-0.768 2.954-0.768s2.103 0.285 2.984 0.783l-0.030-0.016 188.707 59.869c-29.056-53.004-57.794-105.21-86.69-157.575l2.874-3.991c37.474-47.897 64.952-105.466 78.228-168.275l0.48-2.711c2.235-11.016 3.672-22.032 5.268-33.207 0.151-3.182 1.887-5.927 4.43-7.481l0.041-0.023c34.165-22.191 68.011-44.543 102.176-66.894l3.991-2.874-110.159-18.998c-3.083-29.374-8.708-56.128-16.76-81.809l0.795 2.941c-17.225-54.511-43.524-101.698-77.478-142.256l0.526 0.646c-1.277 6.546-2.554 11.974-3.672 17.562l-21.553 107.285c-2.235 11.335-4.63 22.511-6.865 33.846-0.237 2.884-1.975 5.314-4.424 6.525l-0.047 0.021-125.326 74.078c-1.469 0.806-2.695 1.878-3.651 3.163l-0.021 0.030 191.581 33.207v0.958l-170.507 111.756 98.185 178.649zM769.676 35.462c-1.597 8.621-3.353 17.242-5.109 25.704l-30.174 147.517c-0.379 2.313-1.818 4.226-3.792 5.25l-0.040 0.019-44.064 26.662-116.545 69.767c-1.398 0.746-2.6 1.54-3.721 2.432l0.049-0.037c41.512 23.212 69.116 66.894 69.116 117.024 0 73.801-59.827 133.628-133.628 133.628-59.020 0-109.102-38.262-126.796-91.335l-0.273-0.943c-4.367-12.5-6.889-26.91-6.889-41.908s2.522-29.408 7.166-42.828l-0.277 0.92c11.775-34.41 36.106-61.907 67.394-77.558l0.777-0.352c-1.437 0-2.235-1.597-3.353-2.235l-58.273-35.921-96.589-59.071c-2.266-1.271-3.844-3.536-4.147-6.189l-0.003-0.038-12.453-69.129c-4.79-26.183-9.579-52.365-14.209-78.548-2.395-12.612-4.63-25.065-6.865-37.678 69.23-52.79 156.947-84.579 252.089-84.579 103.488 0 198.192 37.611 271.188 99.91l-0.58-0.483z" />
</svg>