<svg width="512" height="512" viewBox="0 0 512 512" xmlns="http://www.w3.org/2000/svg">
<path transform="scale(1, -1) translate(0, -512)" unicode="&#xe901;" glyph-name="range" horiz-adv-x="1015" d="M244.428 643.299c-5.684 5.847-11.206 11.531-17.053 16.241-0.818 0.643-1.862 1.031-2.997 1.031-0.261 0-0.517-0.020-0.766-0.060l-33.429-4.381c-9.582-1.299-19.164-2.436-28.584-3.898-0.287-0.053-0.616-0.083-0.953-0.083-1.794 0-3.388 0.855-4.397 2.181l-0.010 0.014-34.431 37.354-118.56 126.031-3.248 3.735 146.17-5.035 17.216 143.571 3.411-3.573 47.099-54.732q41.74-48.723 83.479-97.446c1.517-1.598 2.451-3.763 2.451-6.146 0-0.18-0.005-0.359-0.016-0.537l0.001 0.024c-1.462-17.216-2.761-34.593-4.060-51.809 0-6.984-1.137-13.967-1.462-20.951-0.007-0.094-0.011-0.205-0.011-0.316 0-1.054 0.372-2.022 0.992-2.778l-0.006 0.008 14.13-14.13c73.476 59.725 168.188 95.896 271.348 95.896 6.526 0 13.018-0.145 19.474-0.431l-0.918 0.032c73.882-2.621 142.292-23.827 201.376-59.050l-1.936 1.069c61.049-35.414 111.115-83.403 147.905-140.727l1.026-1.708c41.894-65.539 66.776-145.464 66.776-231.201 0-239.491-194.146-433.637-433.637-433.637-112.423 0-214.853 42.782-291.899 112.953l0.347-0.311c-79.92 71.493-132.259 172.38-139.928 285.524l-0.070 1.293c-0.899 10.412-1.411 22.53-1.411 34.767 0 103.226 36.451 197.938 97.183 271.968l-0.599-0.753zM309.393 578.335c-44.468-57.269-71.287-130.172-71.287-209.339 0-189.44 153.572-343.012 343.012-343.012s343.012 153.572 343.012 343.012c0 189.44-153.572 343.012-343.012 343.012-77.669 0-149.309-25.815-206.808-69.332l0.86 0.624 47.099-46.937c44.445 31.682 99.857 50.654 159.7 50.654 153.023 0 277.073-124.050 277.073-277.073s-124.050-277.073-277.073-277.073c-29.593 0-58.102 4.639-84.84 13.23l1.961-0.544c-61.080 18.625-111.567 56.635-145.568 106.738l-0.602 0.94c-30.79 43.676-49.212 97.995-49.212 156.617 0 18.191 1.774 35.968 5.158 53.167l-0.285-1.735-2.436 1.787c3.086 0.974 3.086 0.974 3.735 4.060 8.234 38.223 23.35 71.943 44.107 101.402l-0.581-0.87 2.274 3.573zM669.944 252.051c-24.337-18.19-55.019-29.124-88.255-29.124-78.998 0-143.568 61.777-148.034 139.656l-0.018 0.395-89.651 42.064c-1.65-10.573-2.592-22.767-2.592-35.181 0-132.572 107.471-240.043 240.043-240.043s240.043 107.471 240.043 240.043c0 101.131-62.539 187.655-151.054 223.007l-1.619 0.571c-25.944 10.773-56.077 17.029-87.671 17.029-6.756 0-13.446-0.286-20.057-0.847l0.862 0.059 1.624-4.385q16.241-41.415 32.482-82.992c0.986-3.612 4.133-6.264 7.934-6.495l0.025-0.001c30.628-4.458 57.452-18.188 78.159-38.205l-0.040 0.038c28.943-26.496 47.024-64.446 47.024-106.619 0-6.615-0.445-13.127-1.306-19.506l0.082 0.744c-3.312-29.056-15.038-54.889-32.646-75.556l0.164 0.197c-0.598-0.836-0.957-1.878-0.957-3.005s0.358-2.169 0.967-3.020l-0.011 0.016 13.643-34.431 1.299-3.735zM448.416 570.214l67.4-67.563c1.331 0.716 2.989 1.48 4.693 2.154l0.342 0.119c2.923 0.812 3.735 2.923 4.223 5.684 1.137 7.633 2.436 15.267 3.735 22.738 4.060 23.387 7.958 46.774 11.856 69.999 0.039 0.534 0.061 1.158 0.061 1.787s-0.022 1.252-0.065 1.87l0.005-0.083c-34.927-5.89-66.034-18.78-93.051-37.221l0.801 0.516zM473.915 344.463c11.941-49.071 55.509-84.932 107.453-84.932 17.766 0 34.553 4.195 49.423 11.649l-0.637-0.289zM615.212 475.691l62.528-159.487c8.926 15.556 14.19 34.199 14.19 54.072 0 48.885-31.855 90.33-75.94 104.708l-0.779 0.22zM450.040 437.687c-8.77 9.907-64.964 64.964-67.725 66.751-15.414-22.527-27.341-48.843-34.254-77.126l-0.339-1.643 13.805 0.974 24.362 1.137 54.732 2.923c6.659 0.325 6.659 0.325 9.42 6.984z" />
</svg>